<svg width="56" height="56" viewBox="0 0 56 56" fill="none" xmlns="http://www.w3.org/2000/svg">
<circle cx="28" cy="28" r="26.75" stroke="#111111" stroke-width="1.5"/>
<path d="M29.5255 40.3578C27.9796 40.3578 26.4338 40.3578 24.888 40.3578C24.888 40.2484 24.8724 40.139 24.8724 40.0296C24.8724 36.3881 24.8724 32.7467 24.8724 29.1053C24.8724 28.9959 24.8724 28.9021 24.8724 28.7771C23.5608 28.7771 22.2804 28.7771 21 28.7771C21 27.2611 21 25.7764 21 24.2605C22.296 24.2605 23.5764 24.2605 24.8724 24.2605C24.8724 24.1355 24.8724 24.0417 24.8724 23.9635C24.8724 23.0102 24.8568 22.0569 24.8724 21.1192C24.888 20.5097 24.9192 19.9002 25.0441 19.3063C25.4969 16.9776 27.1833 15.4148 29.5255 15.0866C30.6653 14.9303 31.7895 15.0241 32.9294 15.071C33.3197 15.0866 33.7257 15.1491 34.1161 15.196C34.1161 16.54 34.1161 17.8685 34.1161 19.2125C33.1168 19.2281 32.1174 19.2125 31.1337 19.2594C30.3218 19.2906 29.8221 19.7282 29.6191 20.4784C29.5723 20.6659 29.5411 20.8691 29.5411 21.0567C29.5255 22.0725 29.5255 23.0884 29.5255 24.1042C29.5255 24.1511 29.5411 24.2136 29.5567 24.2917C31.0244 24.2917 32.4922 24.2917 33.9756 24.2917C33.7882 25.8077 33.5852 27.2924 33.3978 28.7927C32.1018 28.7927 30.8214 28.7927 29.5411 28.7927C29.5411 28.9178 29.5411 28.9959 29.5411 29.0897C29.5411 32.7467 29.5411 36.4194 29.5411 40.0764C29.5098 40.1702 29.5255 40.264 29.5255 40.3578Z" fill="#111111"/>
</svg>
