<svg width="56" height="56" viewBox="0 0 56 56" fill="none" xmlns="http://www.w3.org/2000/svg">
<circle cx="28" cy="28" r="26.75" stroke="#111111" stroke-width="1.5"/>
<path d="M24.7227 38.8454C24.7227 34.1096 24.7227 29.3877 24.7227 24.6519C24.7227 24.5398 24.7227 24.4277 24.7227 24.2876C26.1658 24.2876 27.595 24.2876 29.0662 24.2876C29.0662 24.9321 29.0662 25.5766 29.0662 26.2352C29.3744 25.8709 29.6407 25.5066 29.9629 25.1983C30.7616 24.4417 31.7283 24.0494 32.8072 23.9513C33.746 23.8672 34.6847 23.9373 35.5955 24.2175C37.0807 24.6939 38.0054 25.7307 38.3978 27.2019C38.5939 27.9586 38.664 28.7572 38.7901 29.5278C38.8181 29.682 38.8321 29.8361 38.8461 30.0042C38.8461 32.9326 38.8461 35.875 38.8461 38.8034C37.3469 38.8034 35.8337 38.8034 34.3064 38.8034C34.3064 38.6773 34.3064 38.5652 34.3064 38.4671C34.3064 36.0571 34.3205 33.6612 34.2924 31.2512C34.2924 30.6628 34.2084 30.0603 34.0823 29.4858C33.9141 28.7012 33.4517 28.1407 32.6251 27.9586C32.2888 27.8885 31.9385 27.8745 31.5882 27.9025C30.4533 27.9866 29.7107 28.5891 29.4585 29.696C29.3184 30.3265 29.2483 30.999 29.2483 31.6435C29.2203 34.0535 29.2343 36.4495 29.2343 38.8594C27.7491 38.8454 26.2359 38.8454 24.7227 38.8454Z" fill="#111111"/>
<path d="M17.3652 38.8449C17.3652 35.7764 17.3652 32.722 17.3652 29.6535C17.3652 27.9721 17.3652 26.2767 17.3652 24.5954C17.3652 24.4973 17.3652 24.3992 17.3652 24.2871C18.8785 24.2871 20.3637 24.2871 21.8909 24.2871C21.8909 24.3992 21.8909 24.5113 21.8909 24.6234C21.8909 29.3172 21.8909 34.025 21.8909 38.7188C21.8909 38.7609 21.8909 38.8029 21.8909 38.8449C20.3917 38.8449 18.8785 38.8449 17.3652 38.8449Z" fill="#111111"/>
<path d="M22.2407 19.6486C22.2127 21.1339 21.0077 22.2968 19.5506 22.2548C18.1494 22.2267 16.9725 20.9937 17.0005 19.5646C17.0285 18.1354 18.2475 16.9725 19.6767 17.0005C21.1198 17.0425 22.2688 18.2195 22.2407 19.6486Z" fill="#111111"/>
</svg>
