<svg width="56" height="56" viewBox="0 0 56 56" fill="none" xmlns="http://www.w3.org/2000/svg">
<circle cx="28" cy="28" r="26.75" stroke="#111111" stroke-width="1.5"/>
<path d="M17.0143 38.8437C17.515 38.2429 18.0157 37.6564 18.5306 37.0556C20.7479 34.4807 22.9652 31.8915 25.1825 29.3166C25.2254 29.2594 25.2683 29.2022 25.3255 29.145C22.5503 25.1109 19.7895 21.0769 17 17.0143C17.0858 17.0143 17.1287 17 17.186 17C19.1744 17 21.1771 17 23.1655 17C23.3085 17 23.38 17.0572 23.4516 17.1574C25.2111 19.718 26.9563 22.2642 28.7158 24.8248C28.7587 24.8821 28.8016 24.9536 28.8588 25.0251C29.2165 24.6103 29.5741 24.1954 29.9174 23.7949C31.8057 21.6062 33.6939 19.4175 35.5679 17.2146C35.6966 17.0572 35.8397 17 36.04 17C36.5549 17.0143 37.0699 17 37.6421 17C34.9814 20.1042 32.335 23.1655 29.7028 26.241C29.7458 26.3126 29.7887 26.3698 29.8316 26.427C32.6211 30.4896 35.4105 34.5665 38.2143 38.6292C38.2572 38.6864 38.2858 38.7579 38.3288 38.8294C36.2116 38.8294 34.0945 38.8294 31.9773 38.8294C31.9487 38.7865 31.9344 38.7436 31.9058 38.7007C30.0176 35.9827 28.1436 33.2505 26.2696 30.5182C26.241 30.4753 26.1981 30.4324 26.1552 30.3752C26.0837 30.4467 26.0265 30.5182 25.9835 30.5755C24.4672 32.335 22.9509 34.0945 21.4489 35.854C20.6049 36.841 19.7466 37.8424 18.9026 38.8294C18.2588 38.8437 17.6294 38.8437 17.0143 38.8437ZM19.5606 18.4162C19.6178 18.502 19.6464 18.5592 19.675 18.6022C24.0381 24.8391 28.3868 31.0761 32.7498 37.3274C32.8213 37.4419 32.9072 37.4848 33.0502 37.4848C33.8799 37.4848 34.7096 37.4848 35.5393 37.4848C35.5965 37.4848 35.6537 37.4705 35.7396 37.4705C35.668 37.3703 35.6251 37.2988 35.5822 37.2416C32.3922 32.664 29.1879 28.0864 25.9978 23.5231C24.8534 21.8923 23.709 20.2472 22.5646 18.6165C22.5074 18.5449 22.4073 18.4448 22.3358 18.4448C21.4202 18.4162 20.519 18.4162 19.5606 18.4162Z" fill="#111111"/>
</svg>
