<svg width="88" height="101" viewBox="0 0 88 101" fill="none" xmlns="http://www.w3.org/2000/svg">
<path d="M45.3084 0C45.7567 0.163021 46.1847 0.305665 46.633 0.489064C49.4858 1.69135 51.1568 4.84989 50.5047 7.78427C49.7711 11.0651 47.1424 13.1028 43.7393 13.0213C40.805 12.9602 38.1762 10.5964 37.6464 7.60087C37.1166 4.5646 38.9098 1.50795 41.8442 0.407553C42.1906 0.285287 42.5371 0.142644 42.8835 0.0203777C43.6782 0 44.4933 0 45.3084 0ZM44.1061 9.74053C45.8382 9.72015 47.3462 8.17145 47.3258 6.45972C47.3054 4.72762 45.7771 3.24005 44.045 3.24005C42.3333 3.26043 40.805 4.82951 40.8253 6.52085C40.8661 8.27333 42.3944 9.78128 44.1061 9.74053Z" fill="white"/>
<path d="M0.172119 42.7115C0.274007 42.4262 0.396274 42.1409 0.477784 41.8556C1.53742 38.799 4.63483 36.9242 7.75261 37.4744C10.9315 38.0246 13.1935 40.7349 13.1935 43.9749C13.1935 47.1335 10.9315 49.8233 7.77299 50.3735C4.67558 50.9237 1.5578 49.049 0.498162 45.9923C0.396274 45.707 0.294385 45.4217 0.172119 45.1568C0.172119 44.3417 0.172119 43.5266 0.172119 42.7115ZM9.91265 43.8934C9.89227 42.1613 8.36394 40.6737 6.65222 40.6737C4.94049 40.6737 3.41217 42.2428 3.43255 43.9545C3.45292 45.6866 4.98125 47.1946 6.71335 47.1742C8.42508 47.1538 9.93302 45.6255 9.91265 43.8934Z" fill="white"/>
<path d="M44.025 63.4562C33.2453 63.4562 24.5644 54.7142 24.5848 43.8121C24.5848 33.175 33.3471 24.4126 43.9639 24.4126C54.866 24.4126 63.6284 33.0731 63.6284 43.8529C63.5876 54.7753 54.9475 63.4358 44.025 63.4562ZM27.8248 43.9955C27.9267 52.9821 35.283 60.2569 44.2085 60.1754C53.1542 60.0939 60.4291 52.6968 60.3476 43.7306C60.2661 34.8256 52.7874 27.5304 43.862 27.6526C35.0181 27.7749 27.7229 35.2128 27.8248 43.9955Z" fill="white"/>
<path d="M60.3473 100.828C59.2062 100.828 58.2077 100.828 57.1073 100.828C57.1073 97.6698 57.1684 94.5724 57.0869 91.4546C57.0665 90.395 56.8831 89.2742 56.4552 88.3165C55.3752 85.9119 53.3578 84.6689 50.7291 84.6281C46.3275 84.5466 41.9259 84.567 37.5243 84.6281C33.8767 84.6689 31.1461 87.4606 31.1054 91.1286C31.0646 94.3075 31.085 97.4864 31.0646 100.686C31.0646 100.706 31.0442 100.747 30.9831 100.828C29.9846 100.828 28.9657 100.828 27.8449 100.828C27.8449 97.6495 27.8246 94.5113 27.8653 91.3731C27.8857 90.395 27.9672 89.3965 28.2117 88.4795C29.2918 84.4651 32.3688 81.9994 37.0964 81.3066C35.3235 78.8816 34.7122 76.2325 35.4662 73.3593C35.996 71.3623 37.0964 69.732 38.7674 68.489C42.1501 65.9826 46.7554 66.1252 49.9343 68.8354C53.5004 71.8513 53.9284 75.988 51.2181 81.3473C54.1933 81.653 56.6793 82.8553 58.4726 85.2802C59.7156 86.9512 60.3881 88.8463 60.3881 90.9452C60.3473 94.1852 60.3473 97.4661 60.3473 100.828ZM49.7713 75.5804C49.7306 72.5442 47.1222 69.9562 44.0859 69.9766C40.9885 69.9766 38.3802 72.6053 38.4006 75.7027C38.4006 78.7797 41.1108 81.4492 44.1471 81.3677C47.2649 81.2658 49.8121 78.6778 49.7713 75.5804Z" fill="white"/>
<path d="M11.1355 17.4842C11.1355 13.8366 13.968 10.9838 17.5952 10.9634C21.2836 10.9634 24.1568 13.8366 24.1568 17.5046C24.1568 21.0911 21.2224 23.9847 17.6156 23.9847C14.0087 23.9847 11.1355 21.0911 11.1355 17.4842ZM17.636 20.6428C19.4292 20.6428 20.876 19.196 20.876 17.4435C20.8556 15.691 19.3681 14.2238 17.636 14.2238C15.8835 14.2238 14.4163 15.7114 14.4163 17.4639C14.3959 19.2571 15.8224 20.6428 17.636 20.6428Z" fill="white"/>
<path d="M81.4588 37.4136C85.1268 37.4136 88.0001 40.2868 88.0001 43.9548C88.0001 47.5617 85.1065 50.4145 81.4792 50.4145C77.852 50.4145 74.9991 47.5413 74.9991 43.9141C74.9788 40.3072 77.852 37.434 81.4588 37.4136ZM84.7397 43.8529C84.6785 42.1004 83.1094 40.6332 81.4181 40.6944C79.686 40.7555 78.1984 42.3246 78.2596 44.0159C78.3207 45.7684 79.8694 47.2356 81.5811 47.1745C83.2928 47.1133 84.8008 45.5443 84.7397 43.8529Z" fill="white"/>
<path d="M70.5161 10.9634C74.1637 10.9634 77.0166 13.7959 77.037 17.4231C77.0573 21.1115 74.1637 24.0051 70.4957 23.9847C66.9093 23.9847 64.0156 21.0503 64.0156 17.4639C64.0156 13.8366 66.8889 10.9838 70.5161 10.9634ZM73.7765 17.4435C73.7562 15.691 72.289 14.2238 70.5365 14.2442C68.8044 14.2442 67.3168 15.7521 67.3168 17.4842C67.3168 19.2571 68.784 20.6632 70.5772 20.6632C72.3705 20.6428 73.7765 19.2163 73.7765 17.4435Z" fill="white"/>
<path d="M34.3862 89.3149C35.4459 89.3149 36.424 89.3149 37.4836 89.3149C37.4836 93.1256 37.4836 96.9158 37.4836 100.788C36.5055 100.788 35.4866 100.788 34.3862 100.788C34.3862 97.0177 34.3862 93.2071 34.3862 89.3149Z" fill="white"/>
<path d="M53.7655 100.828C52.7059 100.828 51.7073 100.828 50.6477 100.828C50.6477 96.9975 50.6477 93.1868 50.6477 89.3354C51.687 89.3354 52.6855 89.3354 53.7655 89.3354C53.7655 93.1461 53.7655 96.9363 53.7655 100.828Z" fill="white"/>
<path d="M22.4246 24.2292C23.0359 23.5975 23.7695 22.8639 24.442 22.1914C26.3575 24.1069 28.2322 25.9817 30.1477 27.8972C29.4752 28.5085 28.7009 29.2013 28.008 29.8127C26.2352 28.0398 24.3401 26.1447 22.4246 24.2292Z" fill="white"/>
<path d="M63.7504 22.2119C64.3821 22.864 65.0954 23.5976 65.7067 24.2293C63.832 26.104 61.9164 27.9992 60.0417 29.8535C59.4711 29.2626 58.7375 28.529 58.0854 27.8565C59.9194 26.0429 61.7942 24.1682 63.7504 22.2119Z" fill="white"/>
<path d="M42.5374 14.6919C43.597 14.6919 44.5955 14.6919 45.6551 14.6919C45.6551 17.3817 45.6551 20.0308 45.6551 22.7411C44.6159 22.7411 43.6174 22.7411 42.5374 22.7411C42.5374 20.0716 42.5374 17.4225 42.5374 14.6919Z" fill="white"/>
<path d="M14.8645 42.3442C17.534 42.3442 20.1627 42.3442 22.8526 42.3442C22.8526 43.3631 22.8526 44.382 22.8526 45.4824C20.2238 45.4824 17.5747 45.4824 14.8645 45.4824C14.8645 44.4635 14.8645 43.465 14.8645 42.3442Z" fill="white"/>
<path d="M65.2788 45.4824C65.2788 44.4024 65.2788 43.4039 65.2788 42.3442C67.9483 42.3442 70.577 42.3442 73.2872 42.3442C73.2872 43.3427 73.2872 44.382 73.2872 45.4824C70.6585 45.4824 68.0094 45.4824 65.2788 45.4824Z" fill="white"/>
<path d="M45.7162 50.4144C44.575 50.4144 43.5969 50.4144 42.5373 50.4144C42.5373 48.6823 42.3946 46.9502 42.578 45.2792C42.741 43.812 43.8414 42.8747 45.2271 42.3245C46.6535 41.7539 47.4279 40.6739 47.4075 39.1048C47.3871 37.3931 46.1645 36.0481 44.412 35.824C42.8633 35.6202 41.1516 36.7817 40.8663 38.3712C40.7236 39.1659 40.3772 39.2678 39.7251 39.2271C38.9915 39.1863 38.2579 39.2271 37.5243 39.2271C37.2391 36.4761 39.3991 33.5824 42.2316 32.7877C45.5532 31.8503 49.0377 33.5417 50.2808 36.741C51.5442 39.9607 50.1381 43.6694 46.9592 45.1366C45.9403 45.6053 45.5939 46.1758 45.6754 47.2151C45.7773 48.234 45.7162 49.2936 45.7162 50.4144Z" fill="white"/>
<path d="M44.086 53.6948C45.0845 53.6948 45.7366 54.3062 45.7162 55.2028C45.6958 56.0994 44.9826 56.7311 44.0453 56.7107C43.1486 56.6903 42.4965 56.0586 42.4762 55.2028C42.4354 54.3062 43.0875 53.6948 44.086 53.6948Z" fill="white"/>
</svg>
