<svg width="79" height="105" viewBox="0 0 79 105" fill="none" xmlns="http://www.w3.org/2000/svg">
<path d="M0 74.9023C0.487402 73.5151 1.4997 72.8027 2.88692 72.5028C3.93671 72.2778 4.9865 71.9404 6.03628 71.678C8.58577 71.0031 9.52308 71.4155 10.6853 73.8525C12.3725 72.5778 14.0222 71.303 15.6718 70.0283C17.4715 68.6786 19.3836 67.5913 21.6706 67.5163C22.7204 67.4788 23.8452 67.5913 24.895 67.8537C31.1562 69.5034 37.38 71.2281 43.6412 72.9152C47.9528 74.0775 49.1901 75.2398 50.6523 79.5139C51.8521 78.839 53.0143 78.1642 54.1766 77.4893C58.8631 74.7898 63.5497 72.0529 68.2738 69.3534C70.7108 67.9662 73.2228 67.9662 75.6223 69.4284C77.9093 70.8156 79.0716 72.9527 78.9966 75.6522C78.9216 78.4266 77.5344 80.4512 75.1349 81.8384C69.9609 84.8003 64.787 87.7997 59.613 90.7991C55.3014 93.2736 50.9522 95.7481 46.6781 98.2976C43.6787 100.097 40.5293 100.472 37.1925 99.7223C33.0308 98.785 28.8692 97.8102 24.7075 96.9479C22.158 96.423 19.871 97.2103 17.8089 98.6725C17.584 98.8225 17.434 99.3474 17.4715 99.6473C17.8089 101.634 17.0966 102.872 15.147 103.434C13.6098 103.884 12.1101 104.296 10.5729 104.746C10.0855 104.746 9.63556 104.746 9.14816 104.746C7.9484 104.184 7.27354 103.247 6.9361 101.934C5.4739 96.2355 3.93671 90.5742 2.39952 84.8753C1.64967 81.8759 0.824834 79.0265 0 76.1021C0 75.7272 0 75.3147 0 74.9023ZM16.3842 95.5607C16.7966 95.3357 17.1341 95.1482 17.434 94.9983C20.096 93.5736 22.9454 93.1236 25.9073 93.761C29.8065 94.6233 33.7057 95.4857 37.6049 96.423C40.3419 97.0978 42.8539 96.7979 45.3284 95.2982C49.9025 92.5613 54.5515 89.9368 59.1631 87.2748C63.9621 84.5004 68.7986 81.7259 73.5977 78.914C75.2848 77.9392 76.0722 76.327 75.6973 74.6774C75.0974 71.9779 72.2854 70.7782 69.8109 72.2029C63.5497 75.8021 57.2885 79.4014 51.0647 83.0382C50.5398 83.3381 50.0524 83.863 49.79 84.3504C48.1028 87.3498 44.691 88.9995 41.3917 88.1746C37.6424 87.2373 33.9307 86.1875 30.1814 85.1752C29.0192 84.8378 28.4943 83.7505 29.0192 82.8132C29.5066 81.9134 30.2939 81.8384 31.2312 82.1009C34.6805 83.0382 38.0923 84.013 41.5416 84.8753C42.404 85.1003 43.3788 85.1003 44.2411 84.9128C46.1532 84.4629 47.428 82.6258 47.428 80.6762C47.428 78.6141 46.0782 76.9269 43.9037 76.3645C37.4925 74.6024 31.0812 72.9527 24.67 71.1156C22.233 70.4032 20.1334 70.8156 18.1463 72.2778C16.1218 73.7775 14.1721 75.3522 12.1476 76.8144C11.6227 77.2269 11.5477 77.5643 11.7351 78.2017C12.635 81.501 13.5348 84.8003 14.3971 88.1372C15.072 90.5742 15.7093 93.0112 16.3842 95.5607ZM14.2471 100.21C11.9601 91.624 9.67305 83.1881 7.4235 74.6774C5.99879 75.0523 4.72405 75.4272 3.37432 75.8021C5.66136 84.3504 7.91091 92.7862 10.1979 101.297C11.6227 100.922 12.8974 100.585 14.2471 100.21Z" fill="white"/>
<path d="M66.2869 57.5063C65.3871 60.0183 64.5623 62.4553 63.5875 64.8548C63.325 65.4922 62.7251 66.2046 62.1253 66.5045C61.0755 67.0669 59.9882 66.5045 59.2758 65.2672C57.1013 61.5555 54.9642 57.8062 52.7896 54.057C52.6397 53.7571 52.4522 53.4946 52.2273 53.1572C49.9777 54.0195 47.6907 54.0195 45.4036 53.1572C45.1787 53.5321 44.9912 53.8695 44.7663 54.2445C42.6667 57.8812 40.5671 61.518 38.4675 65.1923C37.9051 66.1671 37.2303 66.8044 36.0305 66.692C34.8682 66.5795 34.3059 65.7921 33.9309 64.7423C33.1061 62.3803 32.2438 60.0183 31.344 57.5813C29.5443 57.8812 27.7822 58.1812 26.02 58.5186C25.2327 58.6686 24.4079 58.781 23.6205 58.9685C22.5707 59.1935 21.7084 58.9685 21.1085 58.1062C20.4711 57.2439 20.5461 56.344 21.071 55.4442C23.6205 51.0576 26.1325 46.671 28.6445 42.3219C28.832 41.9844 28.9819 41.6845 29.2444 41.2346C28.7945 41.0096 28.4195 40.7472 28.0071 40.5597C23.583 38.6101 21.7834 33.0612 24.2579 28.8996C24.8953 27.8498 24.8953 26.95 24.2579 25.8627C21.7459 21.6635 23.5455 16.0771 28.0821 14.1275C29.1694 13.6401 29.6943 12.9653 29.8068 11.7655C30.4066 6.55407 34.9807 3.29222 39.9672 4.417C41.092 4.67944 41.8418 4.34201 42.5917 3.55467C45.966 -0.232068 51.7024 -0.26956 55.0392 3.51718C55.789 4.3795 56.6139 4.64195 57.7386 4.3795C62.6502 3.29222 67.2617 6.62905 67.7866 11.6155C67.8991 12.8528 68.4615 13.5652 69.5863 14.0526C74.0479 15.9647 75.8475 21.551 73.3355 25.7127C72.6981 26.7625 72.6981 27.6623 73.3355 28.7496C75.8475 32.9487 74.0479 38.4976 69.5113 40.4847C69.1363 40.6722 68.7614 40.8971 68.349 41.1221C68.574 41.5345 68.7239 41.872 68.9114 42.2094C71.3859 46.4835 73.8604 50.7952 76.3349 55.0693C76.8973 56.0441 77.1972 57.0189 76.4849 57.9937C75.7725 58.9685 74.7977 59.0435 73.6729 58.8185C71.2734 58.3311 68.8364 57.9562 66.2869 57.5063ZM26.245 32.6488C26.395 34.8984 27.5572 36.6605 29.6193 37.5603C31.7189 38.4601 32.8811 40.0348 33.0686 42.3219C33.3311 45.5462 36.1805 47.6083 39.3298 46.8959C41.5794 46.371 43.454 46.9709 44.9912 48.7331C47.1283 51.1701 50.6151 51.1701 52.7147 48.6956C54.2144 46.9709 56.089 46.371 58.301 46.8959C61.4879 47.6458 64.3373 45.5462 64.5998 42.2844C64.7497 40.0723 65.837 38.3477 67.8991 37.6728C70.861 36.698 72.1732 32.4613 70.3736 29.9868C69.1363 28.2997 69.2863 26.3501 70.2986 24.5129C72.0982 21.3261 71.1609 18.3642 67.8241 16.827C65.8745 15.9272 64.7497 14.4275 64.5998 12.2529C64.3373 8.95358 61.5629 6.85401 58.3385 7.60385C56.0515 8.12875 54.1769 7.49138 52.6772 5.76672C50.5776 3.36721 47.1283 3.32972 45.0287 5.72923C43.4915 7.49138 41.5794 8.16624 39.2924 7.60385C36.1805 6.8915 33.3311 8.95358 33.1061 12.1029C32.9186 14.465 31.7189 16.0771 29.5443 16.977C26.6949 18.1767 25.5701 21.551 27.1823 24.213C28.457 26.2751 28.4195 28.2997 27.1823 30.3618C26.7324 31.0366 26.5449 31.899 26.245 32.6488ZM67.1492 45.6212C66.9993 45.8087 66.9243 45.8836 66.8493 45.9586C65.3121 48.883 61.3004 51.1701 57.5137 50.0828C57.1013 49.9703 56.6139 49.9703 56.2014 50.0828C55.0767 50.3827 54.8142 51.0951 55.3766 52.1074C56.9888 54.8818 58.601 57.6938 60.2131 60.4682C60.4756 60.9181 60.738 61.368 61.113 62.0429C61.9003 59.8308 62.6127 57.8437 63.3625 55.8566C63.9999 54.132 64.4498 53.8695 66.2494 54.207C68.349 54.5819 70.4486 54.9568 72.6981 55.3692C70.861 52.0324 69.0239 48.8455 67.1492 45.6212ZM36.4429 61.9679C36.7054 61.518 36.8928 61.293 37.0428 61.0306C38.7675 58.0312 40.4921 55.0318 42.2168 52.0324C42.7792 51.0576 42.6667 50.5702 41.6169 50.1953C41.092 50.0078 40.4921 50.0078 39.9297 50.0828C36.4054 50.7952 32.9936 49.4454 31.0065 46.4085C30.8566 46.1461 30.6691 45.9211 30.4441 45.5837C28.5695 48.8455 26.7324 51.9949 24.8203 55.2942C27.0698 54.8818 29.1319 54.5444 31.194 54.132C33.0686 53.7946 33.5185 54.0195 34.1559 55.7817C34.9432 57.8437 35.6556 59.7933 36.4429 61.9679Z" fill="white"/>
<path d="M66.3617 27.3617C66.2492 37.1472 58.3008 44.9082 48.5902 44.7957C38.9172 44.6457 31.1188 36.6598 31.2687 27.0618C31.4187 17.3137 39.3296 9.55279 49.0027 9.66527C58.6007 9.77775 66.4741 17.8011 66.3617 27.3617ZM48.7777 41.4964C56.6886 41.5338 63.0998 35.0851 63.0998 27.2117C63.0998 19.3758 56.6886 12.9646 48.8527 12.9271C40.9793 12.8896 34.5306 19.3758 34.5306 27.2492C34.5306 35.1226 40.9043 41.4964 48.7777 41.4964Z" fill="white"/>
<path d="M60.1377 24.1003C59.9877 24.3252 59.7252 24.8501 59.3503 25.2251C58.1881 26.3123 56.9883 27.3621 55.7136 28.3369C55.1512 28.7868 55.0387 29.1993 55.2262 29.8741C55.6386 31.4113 55.9385 32.986 56.3509 34.5232C56.5384 35.3105 56.4259 35.9479 55.826 36.4353C55.1512 36.9602 54.4388 36.8477 53.7265 36.3978C52.3017 35.5355 50.877 34.7106 49.4523 33.8108C48.9649 33.5109 48.665 33.5109 48.1776 33.8108C46.7904 34.7106 45.3281 35.5355 43.9034 36.3978C43.1911 36.8477 42.4787 36.9227 41.8039 36.4353C41.1665 35.9479 41.0915 35.273 41.279 34.5232C41.6914 32.911 41.9913 31.2613 42.4412 29.6867C42.5912 29.1243 42.4787 28.8243 42.0663 28.4869C40.8291 27.4371 39.5918 26.3498 38.3546 25.3C37.7547 24.7751 37.3048 24.1753 37.5672 23.3504C37.8297 22.4881 38.542 22.1882 39.3668 22.1132C41.0165 22.0007 42.6662 21.8507 44.3158 21.6633C44.6158 21.6258 45.0282 21.3258 45.1782 21.0634C45.8905 19.5262 46.5279 17.9515 47.1653 16.3768C47.4652 15.6645 47.9151 15.1396 48.74 15.1396C49.6023 15.1021 50.0897 15.627 50.3896 16.3768C51.027 17.914 51.7019 19.4137 52.3017 20.9884C52.4892 21.5133 52.7891 21.7008 53.3515 21.7383C54.9637 21.8132 56.6134 22.0007 58.2255 22.1507C59.4253 22.2257 60.1002 22.8255 60.1377 24.1003ZM52.0393 31.7862C52.1143 31.7112 52.1518 31.6363 52.2268 31.5613C52.0393 30.7364 51.9268 29.9116 51.6644 29.1243C51.3644 28.187 51.6644 27.4746 52.4142 26.8747C53.0516 26.3498 53.614 25.8249 54.4388 25.1126C53.4265 25.0376 52.6767 24.9626 51.9268 24.9251C50.877 24.8876 50.1647 24.4002 49.7897 23.3879C49.5273 22.6381 49.1899 21.8882 48.8149 21.0259C48.44 21.8507 48.1026 22.5256 47.8776 23.238C47.5027 24.4752 46.6779 24.9626 45.4406 24.9626C44.7658 24.9626 44.0909 25.0751 43.1536 25.1501C44.0159 25.8999 44.6158 26.4623 45.2532 26.9497C45.9655 27.5121 46.1905 28.2245 45.9655 29.1243C45.7406 29.9116 45.5906 30.7739 45.4031 31.5613C45.4406 31.6738 45.4781 31.7862 45.5156 31.8987C47.6902 29.5742 49.8647 29.4992 52.0393 31.7862Z" fill="white"/>
</svg>
