<svg width="79" height="89" viewBox="0 0 79 89" fill="none" xmlns="http://www.w3.org/2000/svg">
<path d="M38.5136 88.0213L38.4683 88.0012C38.4264 87.9826 38.3877 87.9649 38.3509 87.9481C38.2443 87.8995 38.1541 87.8584 38.0527 87.8242C35.7344 87.1903 34.1778 85.7046 33.4567 83.4193L33.4565 83.4187C33.3765 83.1629 33.2948 83.0227 33.1937 82.932C33.0934 82.8419 32.9471 82.7764 32.6857 82.7289C16.4745 79.8886 3.75403 67.0229 1.30557 50.7838C-0.695849 37.5343 2.84796 25.9469 12.3452 16.3353C14.4389 14.1915 16.8554 12.4282 19.4193 10.8908L19.4235 10.8882L19.4236 10.8883C19.5574 10.8119 19.6896 10.731 19.8522 10.6307C19.8218 10.6209 19.7915 10.6111 19.7615 10.6015C19.3315 10.4632 18.9463 10.3393 18.5622 10.2073M38.5136 88.0213L18.6377 9.98598M38.5136 88.0213H38.5632M38.5136 88.0213H38.5632M18.5622 10.2073C18.562 10.2073 18.5619 10.2072 18.5617 10.2072L18.6377 9.98598M18.5622 10.2073C18.5624 10.2074 18.5626 10.2075 18.5628 10.2075L18.6377 9.98598M18.5622 10.2073C17.9701 10.0069 17.5145 9.67113 17.252 9.22974C16.9873 8.7847 16.9334 8.25624 17.1039 7.70659M18.6377 9.98598C17.5317 9.61186 17.0212 8.76157 17.3275 7.77523M17.1039 7.70659C17.1039 7.70681 17.1038 7.70704 17.1037 7.70726L17.3275 7.77523M17.1039 7.70659C17.2674 7.1691 17.6186 6.76952 18.0947 6.55997C18.5674 6.35189 19.1421 6.33994 19.746 6.53184M17.1039 7.70659C17.104 7.70635 17.1041 7.70612 17.1041 7.70588L17.3275 7.77523M17.3275 7.77523L19.746 6.53184M19.746 6.53184C19.7462 6.5319 19.7463 6.53196 19.7465 6.53202L19.6757 6.75489L19.7453 6.53162C19.7455 6.53169 19.7457 6.53177 19.746 6.53184ZM38.5632 88.0213C39.2958 88.0213 40.022 88.0213 40.7474 88.0551L40.8153 88.0582L40.8742 88.0245C40.9978 87.954 41.0895 87.9032 41.1893 87.8783C44.3703 87.0878 46.3357 84.6153 46.3181 81.392C46.3004 78.3946 44.2027 75.7322 41.3059 75.0437C38.275 74.3216 35.2557 75.6972 33.8451 78.4991L33.8436 78.5022C33.7173 78.7626 33.6089 78.8651 33.5091 78.9088C33.4052 78.9544 33.2585 78.96 32.9979 78.903L32.996 78.9026M38.5632 88.0213L32.996 78.9026M32.996 78.9026C25.1791 77.2624 18.4881 73.6297 13.2503 67.5845L32.996 78.9026ZM21.8071 13.6886C21.7702 13.8161 21.738 13.9291 21.7086 14.0321C21.8073 13.968 21.9071 13.9029 22.0079 13.8366C22.0382 13.7313 22.0715 13.6164 22.1089 13.4892C22.0075 13.5568 21.9069 13.6232 21.8071 13.6886ZM21.5297 14.6396C21.5295 14.6402 21.5293 14.6408 21.5291 14.6414C21.529 14.642 21.5288 14.6426 21.5286 14.6431L21.7516 14.7136L21.5297 14.6396ZM20.4073 10.5642C20.3068 10.5315 20.2092 10.5 20.1141 10.4693L20.4073 10.5642ZM39.6277 84.1526L39.6257 84.1525C38.1675 84.1055 36.9616 82.8646 36.9764 81.4312C37.0082 79.8738 38.2316 78.6712 39.7828 78.7021C41.3538 78.7499 42.4945 79.9506 42.4473 81.5564C42.4001 83.0578 41.1662 84.2154 39.6277 84.1526Z" fill="#151924" stroke="#151924" stroke-width="0.467728"/>
<path d="M17.0893 52.0317L17.0953 51.98C17.2708 50.4718 17.8182 49.2479 18.846 48.2203C19.1519 47.9089 19.4572 47.6 19.7616 47.292C20.3736 46.6728 20.9819 46.0574 21.5834 45.4336C21.9965 45.0045 22.1692 44.6342 22.1709 44.2959C22.1726 43.9583 22.0042 43.5931 21.6004 43.1733C20.9989 42.5495 20.3907 41.9341 19.7787 41.3149C19.4741 41.0067 19.1685 40.6975 18.8624 40.3859L18.8607 40.3843C17.9635 39.4523 17.4267 38.3961 17.2767 37.2815C17.1266 36.1667 17.3657 35.0109 17.991 33.8844L17.9922 33.8822L17.9922 33.8822L17.9926 33.8815C18.6219 32.7767 19.2524 31.6697 19.9002 30.5794L19.9012 30.5777L19.9012 30.5777C21.1262 28.5549 23.2858 27.6077 25.5988 28.1411C26.3435 28.3129 27.089 28.509 27.8318 28.7045C28.4065 28.8557 28.9795 29.0064 29.5493 29.1451C30.188 29.3006 30.6217 29.2661 30.9324 29.0836C31.2435 28.9008 31.4877 28.5364 31.6681 27.8974L31.6682 27.897C31.8465 27.2692 32.0163 26.6455 32.1865 26.0203L32.1867 26.0195C32.3568 25.395 32.5272 24.7691 32.7062 24.1387L32.7067 24.1368C33.3993 21.7764 35.3098 20.331 37.7602 20.2955L37.7606 20.2955C39.0558 20.2785 40.3681 20.2785 41.6803 20.2955L41.6807 20.2955C44.1143 20.331 46.0411 21.7934 46.7338 24.1357C46.7339 24.1359 46.734 24.1361 46.734 24.1363L46.5098 24.2026C46.7964 25.1531 47.0531 26.1136 47.3104 27.0764C47.3892 27.3711 47.468 27.666 47.5477 27.9609L17.0893 52.0317ZM17.0893 52.0317L17.1058 52.081C17.1894 52.3318 17.2633 52.5821 17.3385 52.8367C17.3853 52.995 17.4325 53.1549 17.4828 53.3176C17.6115 53.7334 17.7561 54.1512 17.9516 54.5423L17.0893 52.0317ZM46.7684 64.3162C47.0072 63.4982 47.2312 62.6786 47.4546 61.8613C47.5659 61.4541 47.677 61.0474 47.7897 60.6418C47.9699 60.0202 48.2094 59.669 48.5113 59.4944C48.8131 59.3199 49.234 59.289 49.8558 59.4443C50.273 59.5513 50.6911 59.6605 51.1099 59.7699C51.9507 59.9894 52.7937 60.2095 53.6352 60.4141L53.6353 60.4141C56.0463 60.9988 58.2948 60.0911 59.5739 57.9609C60.2223 56.8865 60.8362 55.8128 61.4493 54.7237L61.4497 54.7228C62.091 53.5727 62.3442 52.4128 62.1962 51.292C62.0482 50.1713 61.5018 49.1109 60.5801 48.1546C60.1451 47.7028 59.706 47.2597 59.2683 46.8179L59.2676 46.8172C58.8292 46.3749 58.3922 45.9339 57.9597 45.4847L57.958 45.4829C57.4792 44.9961 57.2901 44.6157 57.2934 44.2696C57.2968 43.9211 57.4954 43.5347 57.9763 43.0375L57.9765 43.0373C58.3774 42.6219 58.7918 42.206 59.2085 41.7878C59.7323 41.2621 60.2597 40.7327 60.7686 40.1959L60.7695 40.1949C62.332 38.5269 62.6922 36.2084 61.6221 34.1943L61.6214 34.193C60.9219 32.897 60.1875 31.6169 59.4014 30.37L59.4012 30.3697C58.2061 28.4801 56.0456 27.6268 53.8431 28.1239L53.8421 28.1241C53.0622 28.304 52.2804 28.5093 51.5052 28.7129C50.963 28.8553 50.4239 28.9969 49.891 29.1283L49.8889 29.1288C49.2503 29.2925 48.8173 29.2612 48.5077 29.081C48.1976 28.9005 47.9535 28.5371 47.7731 27.8985L41.5411 68.0605L41.5427 68.2944C41.5429 68.2944 41.5431 68.2944 41.5433 68.2944C44.1143 68.2765 46.0593 66.7958 46.7684 64.3162ZM46.7684 64.3162C46.7684 64.3164 46.7683 64.3166 46.7683 64.3167L46.5438 64.2512L46.7686 64.3155C46.7686 64.3157 46.7685 64.3159 46.7684 64.3162ZM50.5935 32.7055C47.7179 33.4197 45.1655 31.9232 44.3487 29.0833M50.5935 32.7055L21.2072 35.5965C21.7688 34.6101 22.3303 33.6238 22.9088 32.6545C23.4874 31.6851 23.9978 31.4641 25.0868 31.7362C25.2908 31.7871 25.4951 31.8381 25.6998 31.8891C26.725 32.1446 27.7581 32.4022 28.7793 32.6715C31.689 33.4197 34.2924 31.9572 35.1262 29.0833C35.3134 28.4455 35.4878 27.8036 35.6622 27.1616C35.8366 26.5196 36.011 25.8777 36.1982 25.24C36.4704 24.3046 36.9639 23.9305 37.9168 23.9135C39.1419 23.8965 40.367 23.8965 41.5752 23.9135C42.5281 23.9305 43.0215 24.3046 43.2938 25.24C43.4402 25.7625 43.5808 26.2878 43.7216 26.8137C43.9246 27.5715 44.1278 28.3303 44.3487 29.0833M50.5935 32.7055L54.3711 31.7362L50.5935 32.7055ZM44.3487 29.0833L44.124 29.1479C44.1241 29.1481 44.1241 29.1483 44.1242 29.1485M44.3487 29.0833L44.1243 29.1491C44.1243 29.1489 44.1242 29.1487 44.1242 29.1485M21.4107 35.7117C21.9724 34.7252 22.5326 33.7411 23.1096 32.7743C23.3908 32.3033 23.6309 32.0582 23.8977 31.9451C24.1636 31.8324 24.5026 31.8313 25.0302 31.9631C25.2343 32.0141 25.4389 32.0651 25.6437 32.1161C26.6689 32.3717 27.7001 32.6287 28.7196 32.8976L28.721 32.898C30.229 33.2858 31.6701 33.103 32.8461 32.4394C34.0224 31.7756 34.9182 30.6394 35.3508 29.1485C35.5385 28.5088 35.7134 27.8651 35.8875 27.2242L35.8879 27.2229C36.0624 26.5806 36.2362 25.9409 36.4226 25.3058L36.4227 25.3053C36.5512 24.864 36.7222 24.5889 36.9448 24.4178C37.167 24.247 37.4724 24.1554 37.9205 24.1473C39.1432 24.1304 40.3658 24.1304 41.5714 24.1473C42.0196 24.1554 42.325 24.247 42.5472 24.4178C42.7695 24.5887 42.9405 24.8636 43.0689 25.3042C43.2134 25.8201 43.3536 26.3434 43.4942 26.8686C43.698 27.6296 43.903 28.3949 44.1242 29.1485M21.4107 35.7117L54.4286 31.9628L50.6517 32.932L50.6499 32.9325C47.6509 33.6773 44.9755 32.1076 44.1242 29.1485M21.4107 35.7117C21.1583 36.1594 21.0742 36.4888 21.1116 36.7781C21.1491 37.0676 21.3143 37.3631 21.6645 37.7296C22.0806 38.1539 22.4967 38.574 22.9133 38.9946L22.9133 38.9946C23.3301 39.4154 23.7474 39.8368 24.1648 40.2624L24.1649 40.2625C25.3958 41.5188 26.0309 42.8923 26.0354 44.2836C26.0399 45.6749 25.4136 47.0445 24.1995 48.2928L24.1988 48.2935C23.914 48.5838 23.628 48.8735 23.3422 49.1629C22.772 49.7403 22.2031 50.3164 21.6484 50.8934C21.3069 51.251 21.1494 51.5381 21.1138 51.8177C21.0781 52.0976 21.159 52.4152 21.3952 52.8467C21.732 53.4569 22.0802 54.0575 22.4307 54.6622C22.6462 55.0339 22.8625 55.4071 23.0776 55.785C23.3572 56.2697 23.6097 56.5273 23.893 56.6467C24.1763 56.7661 24.537 56.7669 25.0796 56.6272L25.0805 56.627C25.6825 56.4745 26.2807 56.3134 26.8807 56.1517L26.8825 56.1512C27.4814 55.9899 28.0823 55.8281 28.6877 55.6747C30.2455 55.2789 31.7006 55.465 32.8808 56.1521C34.0607 56.839 34.9455 58.0149 35.3852 59.5617C35.5556 60.1578 35.7217 60.7579 35.8875 61.357L35.8876 61.3574C36.0535 61.957 36.2192 62.5555 36.389 63.1496L36.3893 63.1505C36.537 63.6755 36.7144 63.9797 36.9497 64.162C37.1846 64.344 37.5153 64.4343 38.0395 64.4425C39.1772 64.4595 40.2978 64.4595 41.4354 64.4425C41.9576 64.4344 42.2939 64.3405 42.5342 64.1553C42.7747 63.9698 42.9558 63.6643 43.1029 63.1496L43.1032 63.1487C43.2593 62.6106 43.4112 62.0611 43.5632 61.5117C43.7368 60.8839 43.9104 60.2561 44.0901 59.6456C44.5542 58.0184 45.433 56.8183 46.6303 56.1381C47.8277 55.4578 49.3134 55.3145 50.9587 55.7431C51.47 55.8758 51.9872 56.0087 52.5009 56.1407C53.2914 56.3438 54.0733 56.5448 54.8115 56.7394C55.1925 56.7435 55.4812 56.6726 55.71 56.5452C55.9436 56.4151 56.1329 56.2159 56.2956 55.9373C56.4554 55.6589 56.615 55.3821 56.7742 55.1061C57.2091 54.3519 57.6407 53.6035 58.0634 52.8455L58.0642 52.8441C58.308 52.4136 58.3877 52.0974 58.3507 51.8213C58.3136 51.5449 58.1531 51.262 57.8112 50.9121L57.8101 50.911C57.4208 50.5075 57.0212 50.1029 56.6196 49.6963C56.0828 49.1528 55.5424 48.6057 55.0181 48.0525C53.9514 46.9334 53.4137 45.6056 53.4204 44.2725C53.4271 42.9394 53.9782 41.6202 55.054 40.5183C55.506 40.0496 55.9662 39.5854 56.4251 39.1225L56.4255 39.1221C56.8852 38.6585 57.3434 38.1962 57.793 37.7299L57.7942 37.7287C58.1526 37.3624 58.3169 37.0676 58.3525 36.7795C58.3882 36.4905 58.3005 36.1609 58.0472 35.7117C57.4865 34.7268 56.9257 33.7588 56.3478 32.7736C56.0677 32.3044 55.8236 32.0587 55.5544 31.9453C55.286 31.8323 54.9466 31.8314 54.4292 31.9627L21.4107 35.7117ZM32.7064 64.3839L32.9311 64.3192L32.7063 64.3837C32.7064 64.3838 32.7064 64.3839 32.7064 64.3839ZM29.6024 59.4272C29.6026 59.4272 29.6029 59.4271 29.6031 59.427L29.545 59.2005L29.6024 59.4272ZM25.8237 60.3968C25.8238 60.3968 25.824 60.3968 25.8242 60.3967L25.7675 60.1698L25.8227 60.3971C25.823 60.397 25.8234 60.3969 25.8237 60.3968Z" fill="#151924" stroke="#151924" stroke-width="0.467728"/>
<path d="M36.9763 7.17748L36.9764 7.17995C36.9763 8.71811 38.1496 9.90769 39.6909 9.93915L36.9763 7.17748ZM36.9763 7.17748C36.9607 5.69798 38.2108 4.47181 39.7202 4.47181C41.2426 4.47181 42.4471 5.67756 42.4471 7.17995M36.9763 7.17748L42.4471 7.17995M42.4471 7.17995C42.4471 8.77089 41.2402 9.9704 39.691 9.93915L42.4471 7.17995ZM42.772 13.0673L42.7724 13.0671C44.2461 12.2964 45.2507 11.0941 45.9001 9.61921C45.9092 9.61871 45.9174 9.61827 45.9246 9.61794C45.9618 9.61626 45.9741 9.61742 45.9764 9.61765L45.9763 9.61798L45.9898 9.62052C53.8871 11.1078 60.5451 14.7899 65.904 20.7371L65.9043 20.7374C69.876 25.129 72.5299 30.2469 73.9674 35.9935C74.1368 36.6707 74.434 37.201 74.8526 37.5265C75.2787 37.8577 75.8047 37.9561 76.3767 37.8135C76.9684 37.6724 77.4084 37.3484 77.6393 36.8516C77.8663 36.3634 77.8741 35.7455 77.6873 35.0433L77.6864 35.0399C77.6167 34.7931 77.548 34.5448 77.4791 34.2957C77.18 33.2148 76.8767 32.1185 76.4717 31.0577L76.4712 31.0565C71.1508 17.3445 61.2861 8.9232 46.8812 5.87977L46.8812 5.87976L46.8787 5.87925C46.5659 5.81674 46.3736 5.72068 46.2348 5.58849C46.0931 5.45348 45.985 5.26003 45.8794 4.95968C44.6074 1.34003 40.6493 -0.329532 37.0434 1.1823L37.043 1.18249C33.6505 2.61285 32.1362 6.66951 33.7407 10.0354C35.3461 13.4202 39.4557 14.795 42.772 13.0673Z" fill="#151924" stroke="#151924" stroke-width="0.467728"/>
<path d="M60.207 81.9233L60.2061 81.9231C58.2831 81.3278 56.3756 80.732 54.4676 80.1021L54.466 80.1016C53.8499 79.8933 53.3982 79.5594 53.16 79.0859C52.9224 78.6134 52.9195 78.0457 53.1088 77.415L53.1092 77.4135H53.1092C53.7054 75.4729 54.3355 73.5326 54.9651 71.6109C55.1581 71.0141 55.5047 70.559 55.9496 70.2976C56.397 70.0347 56.9264 69.9785 57.4553 70.1515L57.4577 70.1523C57.9904 70.333 58.3842 70.6816 58.5938 71.1523C58.8018 71.6196 58.8185 72.184 58.6453 72.7853L58.6447 72.7873C58.5054 73.2556 58.3568 73.733 58.1852 74.2743C60.8969 72.6087 63.2151 70.7024 65.2952 68.5125C69.6739 63.8829 72.5975 58.4613 74.0344 52.244L74.0353 52.2399L74.0354 52.2399C74.0557 52.1585 74.0754 52.0727 74.0957 51.9845C74.1385 51.7979 74.1839 51.6004 74.2432 51.4106L74.2434 51.4099C74.4106 50.8809 74.7139 50.469 75.1207 50.2201C75.5284 49.9708 76.0203 49.8972 76.54 50.0102C77.5661 50.2236 78.2268 51.162 77.9967 52.2753C77.9966 52.2755 77.9966 52.2758 77.9965 52.276L77.7675 52.2286C77.5633 53.249 77.3081 54.2693 77.0018 55.2727L60.207 81.9233ZM60.207 81.9233C61.3131 82.2606 62.373 81.776 62.7088 80.7715M60.207 81.9233L62.4873 80.6963M60.2787 77.5454L60.2787 77.5454C60.1643 77.6157 60.0499 77.6907 59.9188 77.7791C60.0108 77.8078 60.1014 77.836 60.1908 77.8637C60.6206 77.9971 61.022 78.1217 61.4111 78.2661M60.2787 77.5454L61.3302 78.4856M60.2787 77.5454L60.2809 77.5439M60.2787 77.5454L60.2809 77.5439M61.4111 78.2661C61.4113 78.2662 61.4114 78.2662 61.4116 78.2663L61.3302 78.4856M61.4111 78.2661C61.4109 78.2661 61.4108 78.266 61.4107 78.266L61.3302 78.4856M61.4111 78.2661C61.9679 78.4703 62.3877 78.8246 62.6204 79.2727C62.8537 79.7219 62.8895 80.2475 62.7088 80.7715M61.3302 78.4856C62.3512 78.8597 62.8106 79.761 62.4873 80.6963M62.7088 80.7715C62.7089 80.7711 62.709 80.7707 62.7092 80.7703L62.4873 80.6963M62.7088 80.7715C62.7086 80.7719 62.7085 80.7723 62.7083 80.7727L62.4873 80.6963M60.2809 77.5439C68.6832 72.2422 74.3335 64.8327 77.2255 55.3408L60.2809 77.5439Z" fill="#151924" stroke="#151924" stroke-width="0.467728"/>
<path d="M78.733 43.798L78.733 43.7979C78.7524 42.7323 77.9347 41.898 76.8914 41.8594L76.8914 41.8593L76.887 41.8592C75.8271 41.84 74.9523 42.6509 74.9134 43.7L74.9134 43.7003C74.8747 44.7832 75.7442 45.6928 76.8295 45.6941C77.869 45.7124 78.7138 44.835 78.733 43.798Z" fill="#151924" stroke="#151924" stroke-width="0.467728"/>
<path d="M39.844 52.9719L39.8446 52.9719C44.8719 52.8498 48.5664 49.0208 48.4615 44.0432C48.3737 39.2845 44.3493 35.4962 39.5284 35.5835L39.5284 35.5835C34.7196 35.6709 30.8898 39.6725 31.0122 44.4622C31.1345 49.3846 34.9657 53.0768 39.844 52.9719ZM44.5907 44.3543L44.5907 44.3557C44.6069 46.9609 42.3667 49.1881 39.7198 49.1881C37.0743 49.1881 34.866 46.9959 34.866 44.3543C34.866 41.5405 36.9402 39.4694 39.7198 39.4694C42.5005 39.4694 44.5907 41.5415 44.5907 44.3543Z" fill="#151924" stroke="#151924" stroke-width="0.467728"/>
</svg>
