<svg width="78" height="88" viewBox="0 0 78 88" fill="none" xmlns="http://www.w3.org/2000/svg">
<path d="M37.5632 87.7874C37.4101 87.7194 37.2739 87.6514 37.1208 87.6004C34.8747 86.9882 33.3773 85.5597 32.6797 83.3489C32.5095 82.8047 32.2883 82.6007 31.7268 82.4986C15.6128 79.6757 2.97007 66.8873 0.536809 50.7488C-1.45404 37.5694 2.06823 26.0564 11.512 16.4992C13.5879 14.3735 15.9872 12.6219 18.5395 11.0914C18.7778 10.9553 19.016 10.8023 19.4073 10.5642C18.7267 10.3431 18.1822 10.173 17.6377 9.98598C16.5317 9.61186 16.0212 8.76157 16.3275 7.77523C16.6168 6.82291 17.5526 6.39777 18.6757 6.75489C20.5304 7.33308 22.4021 7.92829 24.2569 8.52349C25.465 8.91462 25.8734 9.7479 25.499 10.9723C24.9035 12.911 24.2739 14.8496 23.6443 16.7883C23.2869 17.8597 22.4362 18.3528 21.5003 18.0637C20.5134 17.7576 20.088 16.8733 20.4113 15.7679C20.5134 15.4108 20.6325 15.0707 20.7516 14.7136C20.8537 14.3905 20.9388 14.0674 21.1089 13.4892C19.8327 14.3395 18.6927 15.0027 17.6547 15.785C9.75938 21.6349 5.08003 29.4746 3.7528 39.1849C2.28944 49.8815 4.96092 59.5238 12.0735 67.7376C17.3484 73.8257 24.0867 77.4819 31.948 79.1315C32.4925 79.2505 32.7818 79.1655 33.054 78.6043C34.4153 75.9004 37.325 74.5739 40.2517 75.2712C43.0423 75.9344 45.0672 78.5023 45.0842 81.3933C45.1012 84.5053 43.2125 86.8861 40.1326 87.6514C39.9965 87.6854 39.8774 87.7534 39.7583 87.8214C39.0266 87.7874 38.2949 87.7874 37.5632 87.7874ZM41.681 81.5633C41.7321 79.8287 40.4899 78.5193 38.7884 78.4683C37.1038 78.4342 35.7766 79.7437 35.7425 81.4273C35.7255 82.9918 37.0357 84.3353 38.6182 84.3863C40.2857 84.4543 41.63 83.1959 41.681 81.5633Z" fill="white"/>
<path d="M16.3276 52.0071C16.4978 50.5446 17.0253 49.3712 18.0122 48.3848C18.9311 47.4495 19.8499 46.5312 20.7517 45.5959C21.6196 44.6946 21.6196 43.8953 20.7688 43.011C19.8669 42.0757 18.9481 41.1574 18.0292 40.2221C16.2936 38.4194 15.9873 36.1747 17.1954 33.9979C17.825 32.8926 18.4546 31.7872 19.1012 30.6988C20.2753 28.7602 22.3342 27.8588 24.5463 28.369C25.8735 28.6751 27.1667 29.0493 28.4939 29.3724C29.8212 29.6955 30.5188 29.2873 30.8932 27.9609C31.2505 26.7025 31.5738 25.461 31.9311 24.2026C32.5948 21.9408 34.4154 20.5634 36.7636 20.5294C38.0568 20.5124 39.367 20.5124 40.6773 20.5294C43.0084 20.5634 44.8461 21.9578 45.5098 24.2026C45.8841 25.444 46.2074 26.7025 46.5477 27.9609C46.9221 29.2873 47.6197 29.6955 48.9469 29.3554C50.2572 29.0322 51.5674 28.6581 52.8946 28.352C55.0046 27.8759 57.0635 28.6921 58.2036 30.4947C58.9863 31.7362 59.718 33.0116 60.4156 34.304C61.4366 36.2257 61.0962 38.4364 59.5988 40.035C58.68 41.0043 57.7271 41.9226 56.8083 42.875C55.8213 43.8953 55.8043 44.6436 56.7912 45.6469C57.659 46.5482 58.5439 47.4155 59.4117 48.3168C61.1983 50.1704 61.4876 52.3812 60.2454 54.6089C59.6329 55.6973 59.0203 56.7687 58.3737 57.84C57.1486 59.8807 55.0046 60.748 52.6904 60.1868C51.4313 59.8807 50.1721 59.5406 48.9129 59.2175C47.6197 58.8944 46.9391 59.2855 46.5647 60.578C46.2244 61.8024 45.9011 63.0268 45.5438 64.2512C44.8632 66.632 43.0084 68.0435 40.5411 68.0605C39.316 68.0775 38.1079 68.0775 36.8827 68.0605C34.4495 68.0265 32.5948 66.632 31.9311 64.3192C31.5738 63.0778 31.2505 61.8194 30.8932 60.561C30.5358 59.2855 29.8212 58.8774 28.545 59.2005C27.2858 59.5236 26.0267 59.8637 24.7675 60.1698C22.4533 60.748 20.3093 59.8467 19.0842 57.823C18.4206 56.7007 17.7229 55.5953 17.1614 54.4389C16.7871 53.6906 16.5999 52.8233 16.3276 52.0071ZM53.7794 56.9727C54.6302 56.9898 55.1407 56.6666 55.498 56.0544C56.0936 55.0171 56.6891 53.9967 57.2677 52.9594C57.7782 52.0581 57.6931 51.4799 56.9784 50.7486C56.0596 49.7963 55.1067 48.861 54.1878 47.8917C52.1289 45.7319 52.1459 42.8069 54.2219 40.6812C55.1237 39.7459 56.0596 38.8276 56.9614 37.8923C57.7101 37.127 57.7782 36.5318 57.2507 35.5965C56.6891 34.6101 56.1276 33.6408 55.5491 32.6545C54.9705 31.6851 54.4431 31.4641 53.3711 31.7362C52.1119 32.0593 50.8527 32.3824 49.5935 32.7055C46.7179 33.4197 44.1655 31.9232 43.3487 29.0833C42.9744 27.8078 42.6511 26.5154 42.2938 25.24C42.0215 24.3046 41.5281 23.9305 40.5752 23.9135C39.367 23.8965 38.1419 23.8965 36.9168 23.9135C35.9639 23.9305 35.4704 24.3046 35.1982 25.24C34.8238 26.5154 34.5005 27.8078 34.1262 29.0833C33.2924 31.9572 30.689 33.4197 27.7793 32.6715C26.5541 32.3484 25.312 32.0423 24.0868 31.7362C22.9978 31.4641 22.4874 31.6851 21.9088 32.6545C21.3303 33.6238 20.7688 34.6101 20.2072 35.5965C19.6798 36.5318 19.7648 37.127 20.4965 37.8923C21.3303 38.7425 22.1641 39.5758 22.9978 40.4261C25.3971 42.875 25.3971 45.6979 23.0319 48.1297C22.1811 48.997 21.3133 49.8643 20.4795 50.7316C19.7648 51.4799 19.6968 52.0581 20.1902 52.9594C20.7347 53.9457 21.3133 54.9151 21.8748 55.9014C22.4533 56.9047 23.0148 57.1428 24.1379 56.8537C25.346 56.5476 26.5371 56.2075 27.7452 55.9014C30.757 55.1361 33.3094 56.6326 34.1602 59.6256C34.5005 60.8161 34.8238 62.0235 35.1641 63.2139C35.4704 64.3022 35.9469 64.6594 37.0359 64.6764C38.1759 64.6934 39.299 64.6934 40.439 64.6764C41.5281 64.6594 42.0215 64.2852 42.3278 63.2139C42.6681 62.0405 42.9744 60.8671 43.3147 59.7107C44.2166 56.5476 46.7009 55.1361 49.8998 55.9694C51.21 56.3095 52.5543 56.6496 53.7794 56.9727Z" fill="white"/>
<path d="M44.7438 9.3907C44.1143 10.8872 43.1273 12.0946 41.664 12.8599C38.465 14.5264 34.5003 13.2 32.9519 9.93488C31.4034 6.68678 32.8668 2.77545 36.1338 1.39798C39.6221 -0.064517 43.4336 1.55103 44.6588 5.03722C44.88 5.66643 45.1522 5.97254 45.8329 6.10858C60.1602 9.13561 69.9613 17.5025 75.2532 31.1411C75.7466 32.4335 76.087 33.777 76.4613 35.1034C76.8186 36.4469 76.3933 37.3312 75.3213 37.5863C74.3003 37.8414 73.5176 37.2292 73.1943 35.9367C71.7479 30.1548 69.0765 25.002 65.0777 20.5805C59.6837 14.5945 52.9795 10.8872 45.0331 9.3907C44.965 9.37369 44.88 9.3907 44.7438 9.3907ZM41.681 7.17995C41.681 5.54739 40.3708 4.23795 38.7202 4.23795C37.0867 4.23795 35.7255 5.5644 35.7425 7.17995C35.7425 8.84651 37.0187 10.139 38.6862 10.173C40.3708 10.207 41.681 8.89753 41.681 7.17995Z" fill="white"/>
<path d="M58.3904 77.8563C59.1221 78.0944 59.7347 78.2645 60.3302 78.4856C61.3512 78.8597 61.8106 79.761 61.4873 80.6963C61.198 81.5636 60.2792 82.0057 59.2753 81.6996C57.3525 81.1044 55.4467 80.5092 53.5409 79.88C52.3839 79.4889 51.9755 78.6726 52.3328 77.4822C52.9284 75.5436 53.5579 73.6049 54.1875 71.6832C54.5449 70.5779 55.4467 70.0677 56.3826 70.3738C57.3354 70.6969 57.7438 71.5982 57.4205 72.7206C57.2334 73.3498 57.0292 73.996 56.7739 74.7953C59.7347 73.0437 62.236 71.02 64.4651 68.6732C68.8722 64.0136 71.8159 58.5548 73.2623 52.2967C73.3303 52.0246 73.3814 51.7525 73.4664 51.4804C73.7727 50.511 74.5555 50.0349 75.4913 50.2389C76.3932 50.426 76.9717 51.2423 76.7675 52.2286C76.5633 53.249 76.3081 54.2693 76.0018 55.2727C73.1261 64.7109 67.5109 72.0744 59.1561 77.3462C58.9349 77.4822 58.7137 77.6353 58.3904 77.8563Z" fill="white"/>
<path d="M77.499 43.7936C77.4819 44.712 76.7333 45.4772 75.8314 45.4602C74.8785 45.4602 74.1128 44.6609 74.1468 43.7086C74.1809 42.7903 74.9466 42.0761 75.8825 42.0931C76.8013 42.1271 77.516 42.8583 77.499 43.7936Z" fill="white"/>
<path d="M38.8392 52.7381C34.0918 52.8401 30.3653 49.2519 30.2462 44.4563C30.1271 39.7967 33.8535 35.9024 38.5329 35.8174C43.2293 35.7323 47.1429 39.4226 47.228 44.0482C47.3301 48.8948 43.7397 52.6191 38.8392 52.7381ZM38.7201 39.2355C35.8104 39.2355 33.6323 41.4123 33.6323 44.3543C33.6323 47.1262 35.9465 49.422 38.7201 49.422C41.4936 49.422 43.8418 47.0922 43.8248 44.3543C43.8248 41.4123 41.6298 39.2355 38.7201 39.2355Z" fill="white"/>
</svg>
