<svg width="91" height="91" viewBox="0 0 91 91" fill="none" xmlns="http://www.w3.org/2000/svg">
<path d="M45.9019 0.0177999C46.7919 0.622998 47.0411 1.4596 47.0233 2.50979C46.9699 4.93058 47.0055 7.35138 46.9877 9.77217C46.9877 10.5554 46.6317 11.2496 45.8841 11.392C45.3145 11.5166 44.5669 11.4098 44.0863 11.1072C43.7125 10.8758 43.4455 10.1638 43.4277 9.66537C43.3565 7.06658 43.4099 4.46779 43.3921 1.86899C43.3921 0.943397 43.9261 0.409399 44.6381 0C45.0653 0.0177999 45.4925 0.0177999 45.9019 0.0177999Z" fill="white"/>
<path d="M60.6402 24.9378C64.4494 26.3618 65.9802 28.9072 65.3038 32.7698C66.977 33.2148 68.3476 34.1226 69.2732 35.6356C70.181 37.1486 70.3768 38.7862 69.9852 40.5662C72.3704 41.2604 74.0258 42.72 74.6488 45.123C75.2718 47.5082 74.542 49.5551 72.8332 51.3351C72.9222 51.4597 72.9934 51.5843 73.1002 51.6911C74.809 53.4177 76.5356 55.1265 78.2444 56.8531C78.547 57.1557 78.7784 57.2447 79.2411 57.0667C81.7509 56.0699 83.9937 56.5683 85.9161 58.4373C86.8239 59.3273 87.7139 60.2351 88.6217 61.1251C91.4341 63.9553 91.4519 67.4441 88.6039 70.2921C83.1393 75.7567 77.6748 81.2212 72.2102 86.668C71.3914 87.4868 70.5904 88.3234 69.7538 89.1066C67.2796 91.4384 63.7196 91.4206 61.2988 89.0532C60.4266 88.1988 59.5722 87.3444 58.7178 86.49C56.2614 84.0336 55.8342 82.0578 57.098 78.8183C54.7662 76.4865 52.4344 74.1369 50.0848 71.8051C49.9602 71.6805 49.7288 71.5915 49.5508 71.5737C47.1835 71.5025 44.8161 71.4669 42.4487 71.3957C41.2561 71.3601 40.3127 71.7517 39.4583 72.6417C37.5181 74.6709 35.4889 76.6289 33.4775 78.6581C34.1539 80.0286 34.5633 81.4348 34.2251 83.0012C33.9581 84.1938 33.4419 85.2262 32.5875 86.0806C31.5551 87.1308 30.5049 88.1988 29.4547 89.2134C26.9805 91.5986 23.4027 91.5986 20.9285 89.1956C19.6825 87.9852 18.4544 86.7392 17.2262 85.4932C16.3006 84.5676 16.2472 83.553 17.0126 82.752C17.7602 81.9866 18.8638 82.0578 19.7715 82.93C20.9641 84.087 22.1033 85.2796 23.2959 86.4366C24.5597 87.6826 25.8413 87.6826 27.0873 86.4544C27.9417 85.6178 28.7605 84.7812 29.5971 83.9446C31.0923 82.4494 31.1101 81.4348 29.6149 79.904C26.5889 76.8247 23.5629 73.7453 20.5191 70.6659C17.5644 67.6755 14.5918 64.7029 11.5836 61.7659C11.014 61.2141 10.302 60.6979 9.57218 60.4309C8.78899 60.1461 8.02359 60.5021 7.40059 61.1251C6.42159 62.1219 5.4248 63.0831 4.4458 64.0799C3.36 65.2013 3.3422 66.4829 4.428 67.6221C5.674 68.9215 7.00899 70.1497 8.23719 71.4669C9.26958 72.5705 8.78899 74.2437 7.34719 74.4751C6.84879 74.5641 6.11899 74.3505 5.7452 73.9945C4.2678 72.6417 2.82601 71.2177 1.47321 69.7225C-0.520382 67.5153 -0.484782 64.0443 1.54441 61.8727C2.68361 60.6445 3.8762 59.4341 5.1222 58.2949C6.79539 56.7819 8.77119 56.3013 10.9606 57.0133C11.4946 57.1913 11.8506 57.1735 12.2778 56.7285C13.9688 54.9841 15.6954 53.2931 17.422 51.5665C17.4576 51.5309 17.4932 51.4775 17.5644 51.3529C16.0692 49.7153 15.197 47.8286 15.6598 45.4968C16.1226 43.2184 17.511 41.7232 19.6647 40.7798C18.579 38.9286 18.312 36.9884 19.0951 34.9948C19.8783 33.0012 21.4091 31.7552 23.5273 31.1856C23.1357 29.4412 23.2959 27.8036 24.2037 26.2906C25.0937 24.7954 26.4287 23.8698 28.1019 23.407C28.1019 22.4992 28.0129 21.5914 28.1197 20.7014C28.5647 17.2305 32.0001 14.8453 35.4355 15.5929C36.0407 15.7175 36.4857 15.6819 37.0197 15.2725C38.1767 14.4003 39.5829 14.3825 40.9357 14.6317C45.0831 15.3615 49.2304 16.1803 53.3778 16.9279C54.1788 17.0703 55.0332 16.9991 55.8342 17.1593C59.2696 17.9069 61.2988 21.0396 60.6224 24.475C60.6402 24.653 60.658 24.7776 60.6402 24.9378ZM70.1454 54.0229C69.7182 54.4323 69.3088 54.8773 68.846 55.2511C67.7424 56.1055 66.0692 55.5003 65.998 54.1653C65.9624 53.5957 66.2294 52.8659 66.621 52.4387C67.8492 51.0681 69.2198 49.8399 70.4836 48.505C71.4804 47.4548 71.4448 45.8706 70.4836 44.8916C69.4868 43.877 68.0094 43.8236 66.888 44.7848C66.3718 45.2298 65.909 45.746 65.4284 46.2088C64.5028 47.0988 63.4526 47.17 62.6872 46.4046C61.904 45.6214 61.9574 44.589 62.8652 43.6634C63.8442 42.6666 64.8588 41.7232 65.8022 40.6908C66.799 39.605 66.7812 38.0742 65.82 37.0774C64.8232 36.045 63.2746 36.0094 62.1532 37.0062C61.6014 37.4868 61.103 38.0386 60.569 38.5548C59.6078 39.4982 58.5576 39.5872 57.7566 38.804C56.9912 38.0208 57.0802 36.935 58.0058 35.9916C59.0382 34.9414 60.124 33.9268 61.1386 32.841C62.171 31.7374 62.1176 30.1888 61.0674 29.1742C60.0706 28.213 58.522 28.213 57.454 29.2098C56.9378 29.6904 56.4394 30.2066 55.941 30.705C54.9264 31.7018 53.8584 31.8086 53.0574 30.972C52.2742 30.1532 52.3632 29.1564 53.3422 28.1596C54.3924 27.1094 55.4604 26.0948 56.475 25.009C57.454 23.9766 57.3828 22.3746 56.4216 21.3956C55.4604 20.4344 53.9118 20.3276 52.8972 21.2888C51.135 22.9798 49.4262 24.7598 47.6819 26.522C48.7854 28.5868 48.8923 30.705 47.7175 32.7698C46.5427 34.8346 44.6737 35.8136 42.3775 35.956C42.3419 36.134 42.3063 36.223 42.3063 36.312C41.7011 39.8542 40.1525 41.474 36.6103 42.1148C36.0229 42.2216 36.0229 42.5776 35.9695 42.9692C35.5957 45.568 34.1361 47.259 31.6619 48.0956C31.0745 48.2914 30.4515 48.3626 29.8107 48.505C29.6683 50.8545 28.6537 52.6879 26.5711 53.8627C24.4885 55.0197 22.3881 54.8951 20.4123 53.8271C18.4544 55.8029 16.5676 57.7075 14.8588 59.4341C20.2343 64.8453 25.6633 70.3099 31.1635 75.8457C33.1927 73.7987 35.2931 71.7161 37.3579 69.5979C38.2835 68.6545 39.3871 68.0315 40.6865 67.8713C41.8613 67.7467 43.0361 67.7645 44.2287 67.7645C45.8485 67.7823 47.4861 67.8713 49.1059 67.8713C50.601 67.8713 51.847 67.2661 52.8438 66.1269C53.1464 65.7709 53.5024 65.4505 53.8584 65.1301C54.606 64.4537 55.6562 64.4359 56.3504 65.0589C57.098 65.7353 57.1514 66.7855 56.4572 67.6043C55.6384 68.5655 54.8018 69.5089 54.1076 70.3099C55.8342 72.0365 57.7388 73.9589 59.6256 75.8635C65.0012 70.4701 70.4302 65.0233 75.8058 59.6121C73.9546 57.8499 72.0856 55.9631 70.1454 54.0229ZM81.5729 59.9859C80.8965 60.3597 80.2201 60.5733 79.7751 61.0183C73.4562 67.2839 67.155 73.5851 60.8538 79.8863C59.7324 81.0076 59.7502 82.3604 60.8538 83.4996C61.726 84.3896 62.616 85.2618 63.4882 86.134C64.9478 87.5758 66.1582 87.5936 67.6 86.1518C70.1632 83.6064 72.7086 81.0432 75.2718 78.4978C78.9029 74.8845 82.5163 71.2711 86.1297 67.6399C87.4291 66.3405 87.4113 65.0589 86.1475 63.7773C85.2397 62.8517 84.3319 61.8905 83.3707 61.0361C82.8901 60.6089 82.2493 60.3775 81.5729 59.9859ZM38.7997 35.8848C38.5327 35.3508 38.3903 34.6922 37.9809 34.2828C35.7737 32.0044 33.5487 29.7794 31.2703 27.5722C30.2913 26.6288 28.6893 26.7178 27.7459 27.6612C26.8025 28.5868 26.6779 30.2066 27.6391 31.1856C29.8641 33.4818 32.1247 35.7424 34.4209 37.9496C35.2041 38.715 36.2365 38.7862 37.2333 38.3056C38.1767 37.8606 38.6573 37.0418 38.7997 35.8848ZM44.8873 29.6904C44.8339 29.0674 44.7983 28.4444 43.9795 28.1062C40.1347 26.522 37.3935 23.8164 35.7915 19.9538C35.6847 19.6868 35.4355 19.4198 35.1685 19.2952C33.9403 18.7613 32.4451 19.3842 31.8755 20.6124C31.3771 21.6804 31.6263 22.7662 32.6053 23.763C35.1329 26.3084 37.6783 28.836 40.2059 31.3636C40.4017 31.5594 40.5975 31.7374 40.8111 31.8798C41.6655 32.4494 42.5555 32.5562 43.4811 32.0578C44.4245 31.5594 44.8873 30.794 44.8873 29.6904ZM29.6861 44.9806C30.8965 44.8204 31.7153 44.3042 32.1781 43.3074C32.6765 42.2216 32.4451 41.207 31.6263 40.3704C30.0243 38.7506 28.4223 37.1308 26.8025 35.5466C25.6989 34.4608 24.0791 34.4786 23.0645 35.4932C22.0143 36.5434 22.0143 38.0742 23.1357 39.2134C24.7199 40.851 26.3219 42.4708 27.9773 44.0194C28.4223 44.4644 29.1165 44.6602 29.6861 44.9806ZM23.5451 51.0503C24.5953 51.0681 25.3607 50.6053 25.8591 49.6975C26.3753 48.7542 26.3219 47.7752 25.6455 46.9564C24.9513 46.1198 24.1681 45.3366 23.3315 44.6424C22.5127 43.966 21.5515 43.8948 20.5903 44.411C19.6291 44.9094 19.1842 45.7104 19.2197 46.7962C19.2554 48.3804 21.9431 51.0325 23.5451 51.0503ZM39.3159 18.2095C39.2269 18.3875 39.1913 18.4231 39.1913 18.4409C39.9745 21.182 41.9859 22.873 44.2643 24.297C44.3889 24.3682 44.6915 24.3326 44.7983 24.2258C46.2223 22.8374 47.6285 21.4134 49.1771 19.847C45.7417 19.3308 42.5555 18.4053 39.3159 18.2095Z" fill="white"/>
<path d="M16.532 0.515744C16.7456 0.640344 17.2618 0.836143 17.6178 1.17434C19.7182 3.22133 21.783 5.30393 23.8477 7.38652C24.7199 8.25872 24.7555 9.29111 24.008 10.0743C23.2604 10.8397 22.1924 10.8219 21.3202 9.96751C19.1842 7.86712 17.0838 5.74893 14.9656 3.63073C14.3782 3.04334 14.2536 2.33134 14.5562 1.58374C14.841 0.871743 15.4284 0.497944 16.532 0.515744Z" fill="white"/>
<path d="M76.2331 2.13563C75.9127 2.75863 75.7881 3.23922 75.4855 3.55962C73.3495 5.73122 71.1957 7.88501 69.0241 10.021C68.2231 10.8042 67.1373 10.7864 66.4075 10.0388C65.7311 9.3268 65.7133 8.24101 66.4609 7.47561C68.5969 5.30402 70.7685 3.15022 72.9223 1.01423C73.5097 0.426834 74.2751 0.266634 74.9515 0.676033C75.4677 1.01423 75.8059 1.63723 76.2331 2.13563Z" fill="white"/>
<path d="M14.1113 78.2306C14.1113 79.2452 13.3459 80.0284 12.3313 80.0284C11.3345 80.0284 10.5513 79.2452 10.5513 78.2306C10.5513 77.216 11.3345 76.415 12.3313 76.415C13.3103 76.415 14.0935 77.216 14.1113 78.2306Z" fill="white"/>
<path d="M60.7292 62.6025C59.7502 62.6025 58.9136 61.7659 58.9314 60.8047C58.9492 59.8435 59.7858 59.0069 60.7648 59.0247C61.7438 59.0247 62.5804 59.8791 62.5626 60.8403C62.5626 61.8015 61.7438 62.6025 60.7292 62.6025Z" fill="white"/>
</svg>
