<svg width="94" height="98" viewBox="0 0 94 98" fill="none" xmlns="http://www.w3.org/2000/svg">
<path d="M48.9595 0.019694C50.6728 0.512045 52.465 0.82715 54.0996 1.53614C61.2288 4.60841 65.4828 11.9937 64.6556 19.6744C63.8285 27.3944 57.999 33.7162 50.2986 35.213C40.3729 37.143 30.7622 30.3091 29.3245 20.3439C27.9262 10.5954 34.6419 1.63461 44.3904 0.177246C44.548 0.157552 44.6858 0.0590821 44.8237 0C46.2023 0.019694 47.5809 0.019694 48.9595 0.019694ZM46.9704 32.7512C55.2419 32.7512 61.9378 26.0158 61.9378 17.7443C61.9378 9.55161 55.1828 2.81625 46.9901 2.79655C38.7382 2.77686 32.0226 9.49253 32.0226 17.7837C32.0029 26.0946 38.6595 32.7512 46.9704 32.7512Z" fill="white"/>
<path d="M46.8917 85.9452C45.907 88.8205 45.001 91.5777 44.036 94.2955C43.1695 96.7375 40.885 97.998 38.5217 97.3677C35.9418 96.6785 34.445 94.197 35.1146 91.5974C35.9812 88.1903 36.9265 84.7833 37.793 81.3762C37.99 80.5687 38.1081 79.7022 38.1278 78.875C38.1672 76.5511 38.1672 74.2272 38.1081 71.9033C38.0884 71.4504 37.8521 70.8989 37.537 70.5838C35.0949 68.2009 32.6135 65.877 30.132 63.5334C29.1276 62.5881 28.6747 61.4261 28.9898 60.0672C29.62 57.2707 32.8892 56.2466 34.9965 58.1766C36.8871 59.89 38.6989 61.7018 40.5896 63.4152C40.9047 63.7106 41.4364 63.9076 41.8697 63.9273C43.2483 63.9863 44.6072 63.947 46.0054 63.8879C44.0754 63.5137 42.4802 62.6078 41.2986 61.0519C40.0972 59.4567 39.6443 57.6252 39.9594 55.6755C40.5896 51.9336 43.78 49.5309 47.6794 49.8066C50.9683 50.0233 53.7452 52.9774 53.9815 56.5026C54.2179 59.9688 51.5985 63.1198 47.9158 63.9273C49.4716 63.9273 51.0274 63.947 52.5832 63.9076C52.8196 63.9076 53.0756 63.6122 53.2725 63.4152C55.045 61.7609 56.7781 60.0672 58.5702 58.4129C60.2836 56.798 62.5484 56.798 63.9861 58.3342C65.4238 59.9097 65.2465 62.0957 63.5134 63.7303C61.1305 65.9951 58.7475 68.2206 56.4039 70.5051C56.0494 70.8399 55.9706 71.4504 55.754 71.923C55.7343 71.9821 55.754 72.0609 55.754 72.12C55.0647 78.7175 56.7781 84.9605 58.6687 91.1641C59.7322 94.65 57.0144 97.7813 53.8437 97.5253C51.9333 97.3678 50.5941 96.3634 49.9245 94.5712C48.9792 91.9913 48.093 89.3917 47.1871 86.8117C47.128 86.5557 47.0295 86.3194 46.8917 85.9452ZM40.9244 75.4877C40.9835 75.4877 41.0425 75.5074 41.1213 75.5074C40.9244 77.7131 40.9244 79.9582 40.4714 82.1049C39.7624 85.4922 38.758 88.8008 37.8718 92.1488C37.5764 93.2714 38.0884 94.2561 39.0928 94.5909C40.1366 94.9257 41.0031 94.4333 41.4364 93.232C41.7318 92.4048 42.0075 91.558 42.2833 90.7309C43.3664 87.5404 44.4102 84.35 45.5722 81.1989C45.7494 80.7263 46.3402 80.1945 46.8326 80.0567C47.5613 79.8597 47.9945 80.4703 48.2309 81.1399C48.4081 81.6322 48.5854 82.1246 48.7626 82.6169C50.0033 86.2012 51.2441 89.7658 52.5045 93.3502C52.9968 94.7681 54.3951 95.162 55.4586 94.2364C56.2069 93.5865 56.207 92.7593 55.9706 91.8928C55.3798 89.6477 54.7496 87.4223 54.1785 85.1771C53.7255 83.4047 53.0953 81.6519 52.9771 79.84C52.7802 76.9056 52.8787 73.9515 52.9574 70.9974C52.9771 70.3672 53.3316 69.5795 53.7846 69.1462C56.3054 66.6647 58.905 64.2621 61.4653 61.82C61.9182 61.3867 62.5287 60.9535 61.9379 60.2839C61.3274 59.5749 60.835 60.1854 60.3821 60.599C58.4718 62.3911 56.6008 64.2227 54.6511 65.9754C54.2178 66.3693 53.5089 66.6647 52.9377 66.6647C48.9398 66.7238 44.942 66.7238 40.9441 66.6647C40.3926 66.6647 39.723 66.3693 39.3095 65.9951C37.9309 64.7938 36.6311 63.494 35.2919 62.2336C34.5829 61.564 33.8936 60.8353 33.1255 60.2445C32.8892 60.0672 32.2196 60.0672 32.0424 60.2642C31.8454 60.4808 31.9242 61.0125 32.0227 61.367C32.1014 61.6231 32.4165 61.7806 32.6332 61.9972C35.154 64.3802 37.6945 66.7435 40.176 69.1856C40.5896 69.5991 40.8653 70.2884 40.9047 70.8793C40.9835 72.4154 40.9244 73.9515 40.9244 75.4877ZM51.1653 56.7586C51.1653 54.415 49.255 52.5047 46.9311 52.5047C44.6269 52.5244 42.6771 54.4938 42.6771 56.7783C42.6968 59.1219 44.5875 60.9732 46.9507 60.9732C49.3534 60.9928 51.1653 59.1416 51.1653 56.7586Z" fill="white"/>
<path d="M76.1965 59.2594C66.3692 59.22 58.3931 51.2439 58.4325 41.4363C58.4522 31.6681 66.5858 23.6132 76.3147 23.692C86.2208 23.7904 94.0393 31.7468 94 41.6923C93.9409 51.3818 85.9451 59.2791 76.1965 59.2594ZM61.2882 41.4954C61.3078 49.8063 67.9644 56.4629 76.2753 56.4432C84.4877 56.4432 91.2034 49.7275 91.2231 41.5151C91.2428 33.2239 84.4877 26.5082 76.1375 26.5279C67.9054 26.5476 61.2685 33.2239 61.2882 41.4954Z" fill="white"/>
<path d="M17.764 59.2598C7.917 59.2598 0 51.3428 0 41.4564C0 31.6291 8.03517 23.6136 17.8034 23.6727C27.6307 23.7318 35.5871 31.7472 35.5674 41.5352C35.5281 51.3034 27.5323 59.2598 17.764 59.2598ZM32.6921 41.5155C32.7118 33.244 26.0946 26.548 17.8625 26.5283C9.51222 26.5086 2.75717 33.1849 2.75717 41.4958C2.75717 49.6688 9.47283 56.4239 17.5868 56.4436C25.9961 56.483 32.6724 49.8658 32.6921 41.5155Z" fill="white"/>
<path d="M46.5174 11.6006C47.1279 10.5371 46.5764 9.80845 45.9659 9.07977C45.4933 8.50865 45.3357 7.81936 45.8281 7.28762C46.1432 6.95282 46.7734 6.79526 47.2657 6.73618C47.5414 6.71649 47.8959 7.05129 48.1323 7.28762C49.0776 8.29201 49.629 9.49335 49.6093 10.931C50.4562 11.0689 51.2636 11.128 52.0317 11.3249C55.6357 12.2899 58.1171 15.7757 58.0974 19.7736C58.0581 23.8109 55.5963 27.1983 51.9726 28.1633C50.4759 28.5572 48.9988 28.439 47.5414 27.9073C47.2263 27.7891 46.8128 27.73 46.537 27.8285C41.9483 29.6994 37.2218 26.7453 36.0598 21.9006C35.1736 18.2375 36.6113 14.3578 39.5457 12.3687C41.6332 11.0098 43.5829 10.7735 46.5174 11.6006ZM55.4388 19.7146C55.1827 18.7889 55.0252 17.8042 54.6313 16.918C53.3512 14.0821 50.2789 13.1171 47.8565 14.5547C47.1869 14.9486 46.5764 14.8501 45.9265 14.4956C43.9374 13.4519 41.8893 13.7866 40.3531 15.3425C38.7776 16.9574 38.3443 18.9268 38.7579 21.0538C39.5063 24.9138 43.13 26.6862 46.0841 24.9138C46.734 24.5199 47.3051 24.6184 47.9156 24.9729C49.117 25.6622 50.3971 25.7803 51.6969 25.3471C53.8238 24.6381 55.2615 22.3339 55.4388 19.7146Z" fill="white"/>
<path d="M64.4784 43.7214C62.5681 43.5442 62.1939 43.2488 62.1545 41.949C62.0954 39.7432 62.2333 39.566 64.439 39.2312C64.951 36.4937 66.2114 35.1939 68.299 35.2136C70.3472 35.2333 71.6076 36.6119 72.0409 39.2706C74.8177 39.2706 77.5946 39.2706 80.4896 39.2706C80.5487 37.8329 80.9426 36.4543 82.3409 35.7847C83.0499 35.4499 83.9164 35.2136 84.6648 35.2727C86.5751 35.4105 87.737 36.9073 87.9143 39.1721C90.3957 39.822 90.3957 39.822 90.2382 42.2247C90.1594 43.2685 89.8837 43.4654 87.9537 43.7411C87.5992 46.3013 86.2797 47.739 84.2315 47.7587C82.203 47.7784 80.9032 46.4195 80.4305 43.7214C77.6537 43.7214 74.8571 43.7214 71.9818 43.7214C71.903 44.9621 71.6076 46.2029 70.4851 46.9119C69.7958 47.3451 68.9292 47.6996 68.1415 47.7193C66.113 47.7784 64.8132 46.2817 64.4784 43.7214ZM83.365 41.4172C83.365 42.2641 83.2862 43.1306 83.4044 43.9578C83.4437 44.2926 83.8967 44.588 84.1527 44.8834C84.4678 44.588 85.0586 44.3122 85.0586 43.9971C85.1571 42.3428 85.1571 40.6688 85.0586 39.0146C85.039 38.6798 84.4875 38.3843 84.1724 38.0692C83.8967 38.404 83.4437 38.6994 83.365 39.0736C83.2665 39.822 83.365 40.6295 83.365 41.4172ZM67.3931 41.3778C67.3931 42.2247 67.3931 43.0715 67.3931 43.9184C67.3931 44.4895 67.6097 44.8834 68.2399 44.8834C68.8701 44.8834 69.0868 44.4698 69.0868 43.9184C69.1065 42.2838 69.0868 40.6492 69.0868 39.0342C69.0868 38.4631 68.8505 38.0692 68.2399 38.0692C67.6491 38.0692 67.3931 38.4434 67.3931 39.0342C67.4128 39.8023 67.3931 40.5901 67.3931 41.3778Z" fill="white"/>
<path d="M17.784 34.5434C20.6002 31.2741 25.9767 32.0816 27.9855 35.1736C29.502 37.5172 29.1475 39.9198 27.8673 42.1453C26.8039 43.9965 25.445 45.7099 24.0073 47.3051C22.5303 48.9594 20.8169 50.3971 19.1823 51.9135C18.3354 52.7013 17.4098 52.8194 16.6024 52.1301C13.4907 49.4321 10.3593 46.734 8.13392 43.189C7.12952 41.5938 6.44023 39.841 6.57809 37.911C6.79472 34.9569 9.33525 32.633 12.3287 32.4755C14.6723 32.3573 15.7752 32.7709 17.784 34.5434ZM20.6002 40.5106C21.5456 40.294 22.2349 40.0774 22.9438 39.9986C23.6922 39.9198 24.4603 40.0183 25.2087 39.9592C25.4647 39.9395 25.8979 39.7229 25.9373 39.5259C26.0555 38.8563 26.154 38.1474 26.0161 37.5172C25.7404 36.2764 24.7754 35.6462 23.5937 35.3705C22.2152 35.0357 20.9941 35.2917 20.0094 36.3552C17.9219 38.6003 17.6658 38.62 15.5586 36.3355C14.3572 35.0357 12.2697 34.8585 10.7138 35.9022C9.39434 36.7885 9.05954 38.2655 9.8473 39.9198C10.5366 39.9198 11.2653 39.8607 11.9743 39.9395C12.6635 39.9986 12.9983 39.7426 13.1953 39.1124C13.4316 38.364 13.8058 37.6747 14.692 37.6353C15.657 37.5959 15.9918 38.364 16.3266 39.0927C16.7599 40.0183 17.1932 40.9242 17.6855 41.9286C18.8869 39.782 19.4777 39.5653 20.6002 40.5106ZM19.7928 44.2525C19.5762 44.7252 19.458 45.1978 19.1626 45.5326C18.7884 45.9659 18.3354 46.4583 17.8037 46.6158C17.075 46.8127 16.6417 46.2219 16.3266 45.5917C15.8146 44.5479 15.2632 43.5041 14.8102 42.6179C13.5892 42.7164 12.5257 42.8148 11.4622 42.8936C11.4228 42.9724 11.3637 43.0709 11.3244 43.1496C13.4316 45.2569 15.5586 47.3642 17.7643 49.5699C19.9897 47.3248 22.0773 45.2372 24.283 43.0315C23.2983 42.7361 22.7863 42.8739 22.3333 43.5041C21.5456 44.6464 21.2108 44.7055 19.7928 44.2525Z" fill="white"/>
</svg>
