<svg width="350" height="320" viewBox="0 0 350 320" fill="none" xmlns="http://www.w3.org/2000/svg">
<path d="M97.8423 143.32H91.832V176.319H114.594V170.425H97.8423V143.32Z" fill="white"/>
<path d="M131.868 142.777C127.332 142.777 123.047 144.561 119.848 147.799C116.629 151.037 114.846 155.38 114.846 160.013C114.846 164.57 116.571 168.816 119.693 171.937C122.834 175.078 127.118 176.823 131.752 176.823C136.386 176.823 140.709 175.058 143.947 171.84C147.166 168.641 148.93 164.376 148.93 159.839C148.93 150.436 141.272 142.777 131.868 142.777ZM142.745 159.878C142.745 166.179 138.073 170.929 131.868 170.929C125.684 170.929 121.031 166.179 121.031 159.878C121.031 153.615 125.781 148.71 131.868 148.71C134.815 148.71 137.549 149.835 139.566 151.89C141.621 153.964 142.745 156.795 142.745 159.878Z" fill="white"/>
<path d="M180.397 143.32H173.03L160.04 158.734V143.32H154.029V176.319H160.04V167.09L163.394 163.154L173.863 176.202L173.96 176.319H181.502L167.33 158.927L180.397 143.32Z" fill="white"/>
<path d="M196.411 142.777C191.875 142.777 187.59 144.561 184.391 147.799C181.172 151.037 179.389 155.38 179.389 160.013C179.389 164.57 181.114 168.816 184.236 171.937C187.377 175.078 191.661 176.823 196.295 176.823C200.929 176.823 205.252 175.058 208.49 171.84C211.709 168.641 213.473 164.376 213.473 159.839C213.473 150.436 205.815 142.777 196.411 142.777ZM207.288 159.878C207.288 166.179 202.616 170.929 196.411 170.929C190.227 170.929 185.573 166.179 185.573 159.878C185.573 156.814 186.698 154.003 188.753 151.909C190.769 149.835 193.503 148.71 196.411 148.71C199.358 148.71 202.092 149.835 204.108 151.89C206.164 153.964 207.288 156.795 207.288 159.878Z" fill="white"/>
<path d="M238.426 147.236L238.484 147.159V143.32H214.578V149.098H229.973L213.88 172.441L213.822 172.519V176.319H238.949V170.541H222.489L238.426 147.236Z" fill="white"/>
<path d="M254.169 143.32L240.811 176.319H247.364L250.524 168.214H261.149L264.309 176.319H270.843L257.659 143.32H254.169ZM259.035 162.437H252.657L255.856 154.08L259.035 162.437Z" fill="white"/>
<path d="M288.253 143.32L280.711 158.036L273.285 143.32H266.558L277.686 164.414V176.319H283.716V164.414L295 143.32H288.253Z" fill="white"/>
<path d="M72.1146 143.32L65.7359 159.102C64.2624 158.617 63.0215 158.404 61.7807 158.404C57.4766 158.443 55.2275 162.049 55.0143 163.018C54.8592 163.716 55.2663 164.065 55.3826 164.162C56.0225 164.628 56.6623 164.24 57.7674 163.581C57.9613 163.464 58.1551 163.348 58.3684 163.232C59.0858 162.824 60.2297 162.475 61.4899 163.057C61.7807 163.193 62.2654 163.484 62.7501 163.794C63.0215 163.949 63.293 164.123 63.6032 164.317L58.7368 176.338H65.29L68.9737 166.721C70.1758 167.032 71.339 167.167 72.4248 167.09C74.5768 166.935 76.4769 166.372 78.0861 165.384L82.2545 176.338H88.8077L75.6044 143.32H72.1146ZM76.5932 161.409C75.7207 161.739 74.8095 161.894 73.8595 161.836C73.0258 161.797 72.1339 161.603 71.087 161.254L73.8207 154.119L76.5932 161.409Z" fill="white"/>
</svg>
