<svg width="350" height="320" viewBox="0 0 350 320" fill="none" xmlns="http://www.w3.org/2000/svg">
<g clip-path="url(#clip0_2717_341)">
<path d="M97.3136 143.549H91.2407V176.891H114.239V170.935H97.3136V143.549Z" fill="white"/>
<path d="M131.693 143C127.109 143 122.78 144.802 119.547 148.074C116.295 151.345 114.493 155.733 114.493 160.415C114.493 165.019 116.237 169.309 119.391 172.463C122.564 175.637 126.894 177.4 131.576 177.4C136.258 177.4 140.626 175.617 143.898 172.365C147.15 169.133 148.932 164.823 148.932 160.239C148.932 150.738 141.194 143 131.693 143ZM142.683 160.278C142.683 166.645 137.962 171.445 131.693 171.445C125.444 171.445 120.742 166.645 120.742 160.278C120.742 153.951 125.542 148.995 131.693 148.995C134.671 148.995 137.433 150.131 139.47 152.207C141.547 154.303 142.683 157.163 142.683 160.278Z" fill="white"/>
<path d="M180.727 143.549H173.283L160.158 159.123V143.549H154.085V176.891H160.158V167.566L163.547 163.589L174.125 176.773L174.223 176.891H181.844L167.524 159.318L180.727 143.549Z" fill="white"/>
<path d="M196.909 143C192.325 143 187.996 144.802 184.763 148.074C181.511 151.345 179.709 155.733 179.709 160.415C179.709 165.019 181.452 169.309 184.606 172.463C187.78 175.637 192.109 177.4 196.791 177.4C201.473 177.4 205.842 175.617 209.113 172.365C212.365 169.133 214.148 164.823 214.148 160.239C214.148 150.738 206.41 143 196.909 143ZM207.899 160.278C207.899 166.645 203.178 171.445 196.909 171.445C190.66 171.445 185.958 166.645 185.958 160.278C185.958 157.183 187.094 154.343 189.171 152.227C191.208 150.131 193.97 148.995 196.909 148.995C199.887 148.995 202.649 150.131 204.686 152.207C206.763 154.303 207.899 157.163 207.899 160.278Z" fill="white"/>
<path d="M239.36 147.506L239.418 147.427V143.549H215.264V149.386H230.818L214.559 172.973L214.5 173.051V176.891H239.888V171.053H223.257L239.36 147.506Z" fill="white"/>
<path d="M255.267 143.549L241.77 176.891H248.391L251.584 168.702H262.319L265.512 176.891H272.114L258.793 143.549H255.267ZM260.184 162.864H253.739L256.971 154.421L260.184 162.864Z" fill="white"/>
<path d="M289.707 143.549L282.086 158.417L274.583 143.549H267.786L279.03 164.862V176.891H285.123V164.862L296.524 143.549H289.707Z" fill="white"/>
<path d="M71.3178 143.549L64.8727 159.495C63.3839 159.005 62.1302 158.79 60.8764 158.79C56.5275 158.829 54.255 162.472 54.0395 163.452C53.8828 164.157 54.2942 164.51 54.4117 164.608C55.0582 165.078 55.7047 164.686 56.8213 164.02C57.0172 163.902 57.2131 163.785 57.4286 163.667C58.1534 163.256 59.3092 162.903 60.5826 163.491C60.8764 163.628 61.3662 163.922 61.8559 164.236C62.1302 164.392 62.4044 164.569 62.7179 164.764L57.8008 176.91H64.4222L68.1443 167.194C69.3588 167.507 70.5342 167.644 71.6313 167.566C73.8057 167.409 75.7255 166.841 77.3515 165.842L81.5633 176.91H88.1847L74.844 143.549H71.3178ZM75.8431 161.826C74.9615 162.159 74.0408 162.316 73.0809 162.257C72.2385 162.218 71.3374 162.022 70.2796 161.669L73.0417 154.46L75.8431 161.826Z" fill="white"/>
</g>
<defs>
<clipPath id="clip0_2717_341">
<rect width="242.523" height="34.3998" fill="white" transform="translate(54.0005 143)"/>
</clipPath>
</defs>
</svg>
