<svg width="350" height="320" viewBox="0 0 350 320" fill="none" xmlns="http://www.w3.org/2000/svg">
<g clip-path="url(#clip0_2717_292)">
<path d="M239.848 173.255C238.873 173.394 237.846 173.464 236.801 173.412C230.62 173.203 226.267 169.999 223.864 163.904C220.816 156.156 223.167 146.701 229.453 141.442C232.204 139.126 235.286 137.716 238.612 137.211C239.709 137.054 240.841 136.985 241.973 137.019C244.619 137.107 247.057 138.029 249.268 139.753L249.303 136.462L258.236 135.139V169.598L249.303 170.922L249.268 168.083C246.57 170.991 243.4 172.715 239.848 173.255ZM240.754 145.761C240.075 145.865 239.396 146.039 238.734 146.3C234.172 148.076 231.386 153.039 232.291 157.862C233.11 162.302 236.418 164.897 240.51 164.287C241.294 164.166 242.112 163.939 242.913 163.608C247.214 161.815 249.843 156.939 249.147 152.029C248.99 150.758 248.502 149.522 247.719 148.459C246.152 146.353 243.557 145.343 240.754 145.761Z" fill="white"/>
<path d="M171.243 183.459C169.537 183.72 167.726 183.668 165.88 183.354C160.639 182.431 156.965 179.14 155.206 173.847C152.525 165.75 154.057 158.629 159.734 152.691C162.52 149.783 165.95 148.007 169.955 147.415C170.86 147.276 171.783 147.206 172.706 147.188C175.596 147.136 178.278 148.077 180.663 149.94L180.698 146.666L189.631 145.343V179.82L180.716 181.143L180.663 178.27C177.912 181.195 174.743 182.936 171.243 183.459ZM172.166 155.964C171.783 156.017 171.383 156.104 170.982 156.208C165.863 157.636 162.607 163.086 163.756 168.38C164.661 172.611 167.935 175.066 171.905 174.474C172.654 174.369 173.42 174.143 174.186 173.83C178.557 172.001 181.238 167.178 180.559 162.337C180.263 160.178 179.236 158.367 177.703 157.218C176.223 156.104 174.256 155.668 172.166 155.964Z" fill="white"/>
<path d="M111.013 192.391C110.038 192.531 108.993 192.6 107.949 192.548C101.715 192.322 97.3619 189.118 95.046 183.024C91.8943 174.77 94.4366 163.26 104.135 158.246C106.051 157.253 108.001 156.609 109.934 156.33C111.013 156.173 112.093 156.121 113.172 156.173C115.837 156.295 118.274 157.218 120.451 158.925L120.468 155.634L129.418 154.31L129.401 188.804L120.468 190.128L120.433 187.272C117.734 190.145 114.565 191.869 111.013 192.391ZM111.954 164.897C111.24 165.002 110.526 165.193 109.812 165.472C105.215 167.317 102.499 172.367 103.491 177.26C104.379 181.613 107.618 184.033 111.745 183.424L112.18 183.337C112.493 183.267 112.772 183.215 113.051 183.128C117.456 181.787 120.364 177.73 120.433 172.82C120.468 170.243 119.563 168.014 117.874 166.534C116.307 165.141 114.2 164.566 111.954 164.897Z" fill="white"/>
<path d="M278.016 167.561C276.798 167.735 275.544 167.787 274.29 167.7C270.094 167.387 267.203 164.705 266.106 160.143C265.514 157.636 265.532 155.094 265.549 152.639C265.549 152.255 265.567 144.507 265.567 142.313L260.238 143.114L260.291 134.826L265.671 134.025L265.706 122.376L274.952 121L275.004 132.614L285.817 131.012L285.661 139.318L274.987 140.92C274.987 143.114 274.987 152.987 275.021 154.885C275.039 156.382 275.439 157.497 276.153 158.106C276.728 158.594 277.546 158.768 278.556 158.628C278.957 158.576 279.392 158.454 279.845 158.298C280.75 157.967 281.621 157.514 282.561 157.026C283.031 156.783 283.449 156.556 283.867 156.347L284.616 155.982L284.947 156.748C285.312 157.618 286.148 159.482 286.827 161.066L287.733 163.121L286.688 163.87C286.009 164.34 285.382 164.74 285.086 164.932C282.77 166.325 280.402 167.213 278.016 167.561Z" fill="white"/>
<path d="M132.361 188.334L132.43 153.84L141.381 152.517L141.363 155.042C143.418 152.447 145.995 150.95 149.216 150.479C150.696 150.253 152.333 150.27 154.092 150.497L154.875 150.601L153.796 159.638L153.308 159.586C152.02 159.447 150.801 159.447 149.704 159.621C144.167 160.439 142.721 164.81 142.478 165.681C142.303 166.238 142.181 166.76 142.077 167.3C141.764 169.111 141.746 171.026 141.729 172.872C141.729 173.272 141.729 186.541 141.729 186.541V186.976L132.361 188.334Z" fill="white"/>
<path d="M57 199.6V153.144L57.4179 153.074C57.5746 153.057 73.9598 150.619 76.5542 150.271C78.1388 150.062 79.8104 150.096 81.3775 150.375C84.0764 150.863 86.3923 152.343 87.8724 154.502C89.4569 156.8 90.0141 159.726 89.4395 162.738C88.8823 165.715 87.35 168.171 84.9296 170.016C86.9147 170.626 88.5689 171.81 89.7877 173.464C91.1111 175.275 91.8424 177.591 91.9121 180.133C92.1384 187.847 87.7679 193.732 80.2457 195.891C79.288 196.17 78.3477 196.379 77.4423 196.518C74.3428 196.988 71.226 197.458 68.4226 197.876L57 199.6ZM66.6117 189.24C68.5793 188.891 74.9697 187.76 77.1811 187.29C78.7656 186.941 80.1238 185.931 81.0118 184.434C82.2133 182.414 82.3004 180.446 81.273 178.601C80.472 177.173 79.1661 176.563 76.8677 176.616C76.7284 176.616 75.7707 176.755 75.3876 176.807L66.6117 178.096V189.24ZM68.5967 169.076C69.8678 168.902 71.2086 168.728 71.7484 168.641C73.2284 168.414 74.4299 168.205 75.5443 167.962C77.9646 167.439 79.4969 165.75 79.8626 163.225C80.0193 162.198 79.7755 161.24 79.2183 160.527C78.6786 159.83 77.8253 159.412 76.8328 159.325C76.2234 159.273 75.7881 159.273 75.4224 159.325C74.9175 159.395 73.4374 159.621 71.8006 159.865L66.5943 160.648V169.355C67.1167 169.285 67.848 169.181 68.5967 169.076Z" fill="white"/>
<path d="M267.743 189.257C243.697 192.827 219.632 184.382 203.056 166.638L203.038 177.869L193.723 179.262L193.792 131.552L203.091 130.159L203.038 153.892C205.615 151.072 214.13 141.773 214.13 141.773L226.528 139.945L209.115 158.838C225.5 177.887 250.052 187.046 274.9 183.354C280.785 182.484 286.531 180.882 291.999 178.618L292.451 178.427L293.322 180.464L292.939 180.69C285.121 185.026 276.658 187.934 267.743 189.257Z" fill="white"/>
</g>
<defs>
<clipPath id="clip0_2717_292">
<rect width="236.322" height="78.6" fill="white" transform="translate(57 121)"/>
</clipPath>
</defs>
</svg>
