<svg width="350" height="320" viewBox="0 0 350 320" fill="none" xmlns="http://www.w3.org/2000/svg">
<g clip-path="url(#clip0_3111_2697)">
<path d="M82.2577 150.14C77.7214 150.14 73.534 151.623 70.1317 154.11V140.675L59.0672 129L52.001 135.441L60.5066 144.412V190.866H70.1317V187.231C73.534 189.732 77.7214 191.2 82.2577 191.2C93.5694 191.2 102.787 181.997 102.787 170.67C102.787 159.358 93.5694 150.14 82.2577 150.14ZM82.2577 181.837C76.0929 181.837 71.0914 176.82 71.0914 170.67C71.0914 164.505 76.1075 159.504 82.2577 159.504C88.4079 159.504 93.424 164.52 93.424 170.67C93.424 176.835 88.4224 181.837 82.2577 181.837Z" fill="white"/>
<path d="M177.855 178.114C175.325 180.47 171.08 181.924 166.776 181.924C163.49 181.924 160.32 181.11 157.587 179.583C155.711 178.536 154.286 177.242 153.356 175.759L153.036 175.265L153.632 175.294C154.097 175.308 154.563 175.323 155.028 175.323C157.325 175.323 159.666 175.076 161.992 174.596C166.601 173.636 174.889 171.106 178.727 164.84C180.239 162.383 180.705 159.62 180.036 157.061C179.178 153.79 176.706 151.275 173.057 149.966C171.298 149.341 169.291 149.006 167.256 149.006C166.354 149.006 165.467 149.079 164.609 149.195C154.752 150.693 146.028 157.89 143.862 166.308C143.28 168.562 143.091 170.787 143.28 172.938L143.295 173.04C143.309 173.215 143.338 173.389 143.353 173.564L143.251 173.724C140.023 178.769 134.207 181.895 128.057 181.895C125.789 181.895 123.564 181.488 121.413 180.688C118.665 179.67 116.324 177.882 114.972 175.774L114.652 175.279L115.248 175.308C115.655 175.323 116.062 175.337 116.484 175.337C118.781 175.337 121.122 175.09 123.448 174.61C128.057 173.651 136.345 171.121 140.183 164.854C141.695 162.397 142.16 159.635 141.492 157.076C140.634 153.804 138.162 151.289 134.513 149.98C132.753 149.355 130.747 149.021 128.711 149.021C127.81 149.021 126.923 149.094 126.065 149.21C116.207 150.707 107.484 157.905 105.317 166.323C104.765 168.475 104.59 170.641 104.808 172.778L104.823 172.924L104.838 173.084C105.695 180.223 110.741 186.184 118.33 189.005C121.471 190.182 124.742 190.764 128.057 190.764C135.414 190.764 142.437 187.74 147.424 182.622C148.979 184.439 150.942 186.024 153.269 187.332C157.223 189.557 162.138 190.778 167.081 190.778C173.9 190.778 179.992 188.481 184.238 184.308L184.383 184.163L178.015 177.998L177.855 178.114ZM153.516 165.959C155.871 162.005 160.975 158.704 165.933 157.963C166.369 157.89 166.819 157.861 167.256 157.861C169.408 157.861 171.269 158.617 171.443 159.271L171.647 159.213L171.458 159.315C171.472 159.431 171.428 159.766 171.167 160.202C169.684 162.63 165.482 164.811 160.189 165.916C158.43 166.279 156.685 166.468 154.999 166.468C154.592 166.468 154.185 166.454 153.778 166.439L153.269 166.41L153.516 165.959ZM114.957 165.959C117.312 162.005 122.416 158.704 127.374 157.963C127.81 157.89 128.261 157.861 128.697 157.861C130.849 157.861 132.71 158.617 132.884 159.271L132.899 159.315C132.913 159.446 132.87 159.766 132.608 160.202C131.125 162.63 126.923 164.811 121.631 165.916C119.871 166.279 118.127 166.468 116.44 166.468C116.033 166.468 115.626 166.454 115.219 166.439L114.71 166.41L114.957 165.959Z" fill="white"/>
<path d="M289.897 175.599V150.446H280.126V153.426C276.825 151.158 272.827 149.835 268.523 149.835C257.212 149.835 247.994 159.039 247.994 170.365C247.994 181.677 257.197 190.895 268.523 190.895C274.79 190.895 280.417 188.074 284.182 183.625L291.191 191.011L298.402 184.57L289.897 175.599ZM268.523 181.531C262.359 181.531 257.357 176.515 257.357 170.365C257.357 164.2 262.373 159.199 268.523 159.199C274.688 159.199 279.69 164.215 279.69 170.365C279.69 176.515 274.688 181.531 268.523 181.531Z" fill="white"/>
<path d="M228.278 149.079C223.378 149.079 218.973 151.013 215.832 154.124C212.692 151.013 208.286 149.079 203.387 149.079C193.878 149.079 186.157 156.392 186.157 165.392V189.223H195.71V165.392H195.724C195.724 161.38 199.156 158.137 203.387 158.137C207.618 158.137 211.049 161.38 211.049 165.392V189.223H220.601V165.392H220.616C220.616 161.38 224.047 158.137 228.278 158.137C232.509 158.137 235.94 161.38 235.94 165.392V189.223H245.493V165.392H245.508C245.508 156.392 237.787 149.079 228.278 149.079Z" fill="white"/>
</g>
<defs>
<clipPath id="clip0_3111_2697">
<rect width="246.386" height="62.2" fill="white" transform="translate(52.0005 129)"/>
</clipPath>
</defs>
</svg>
