<svg width="350" height="320" viewBox="0 0 350 320" fill="none" xmlns="http://www.w3.org/2000/svg">
<g clip-path="url(#clip0_2717_311)">
<path d="M69.5684 152.968C69.5684 151.108 71.0896 149.587 72.9489 149.587H105.457C106.396 149.568 106.997 149.174 107.636 148.085C108.143 147.221 108.669 145.925 109.439 144.028C109.627 143.54 109.983 142.695 110.04 142.526C110.04 142.507 110.059 142.451 110.059 142.432V142.376C110.059 142.169 109.89 142 109.683 142H72.9676C66.9204 142 62 146.92 62 152.968V166.133C62 172.18 66.9204 177.1 72.9676 177.1H109.702C109.908 177.1 110.077 176.931 110.077 176.725V176.706C110.077 176.687 110.059 176.631 110.059 176.612C109.983 176.443 109.645 175.579 109.458 175.109C108.706 173.213 108.162 171.917 107.655 171.053C107.016 169.964 106.415 169.569 105.476 169.551H72.9676C71.1084 169.551 69.5872 168.029 69.5872 166.17V152.968H69.5684Z" fill="white"/>
<path d="M252.3 169.513C250.441 169.513 248.92 167.992 248.92 166.133V146.62C248.901 145.681 248.507 145.08 247.417 144.442C246.553 143.935 245.258 143.409 243.361 142.639C242.873 142.451 242.027 142.094 241.858 142.038C241.84 142.038 241.783 142.019 241.765 142.019H241.746C241.539 142.019 241.37 142.188 241.37 142.395V166.133C241.37 172.18 246.291 177.1 252.338 177.1H277.71C283.757 177.1 288.677 172.18 288.677 166.133V142.395C288.677 142.188 288.508 142.019 288.302 142.019H288.283C288.264 142.019 288.208 142.038 288.189 142.038C288.02 142.113 287.156 142.451 286.687 142.639C284.79 143.39 283.494 143.935 282.63 144.442C281.541 145.08 281.147 145.681 281.128 146.62V166.133C281.128 167.992 279.607 169.513 277.747 169.513H252.3Z" fill="white"/>
<path d="M122.548 176.574C122.566 176.856 122.811 177.1 123.111 177.1C123.167 177.1 123.224 177.081 123.28 177.063C124.069 176.743 124.876 176.462 125.515 176.218C129.121 174.809 130.229 173.701 130.229 172.687C130.229 171.673 130.21 167.954 130.21 167.954H162.268C162.268 167.954 162.249 171.691 162.249 172.687C162.249 173.701 163.357 174.809 166.963 176.218C167.601 176.462 168.409 176.743 169.198 177.063C169.254 177.081 169.31 177.1 169.367 177.1C169.667 177.1 169.911 176.856 169.93 176.574V176.537L169.949 153.005C169.911 146.958 165.01 142.019 158.962 142H133.515C127.468 142.019 122.566 146.958 122.529 153.005L122.548 176.537V176.574ZM162.268 160.405H130.21V153.005C130.21 151.033 131.806 149.456 133.759 149.456H147.45H148.014H158.718C160.69 149.456 162.268 151.052 162.268 153.005V160.405Z" fill="white"/>
<path d="M230.421 142.376V142.394C230.421 142.413 230.403 142.47 230.403 142.488C230.327 142.657 229.989 143.521 229.802 143.991C229.182 145.531 228.712 146.676 228.28 147.521C228.187 147.709 228.093 147.897 227.999 148.047C227.36 149.136 226.759 149.531 225.82 149.55H193.312C192.786 149.55 192.298 149.681 191.847 149.888C190.701 150.432 189.912 151.597 189.912 152.93V160.348C191.471 160.348 219.153 160.348 219.153 160.348C219.36 160.348 219.529 160.517 219.529 160.724V160.743C219.529 160.761 219.51 160.818 219.51 160.837C219.435 161.006 219.097 161.869 218.909 162.339C218.289 163.879 217.82 165.025 217.388 165.87C217.294 166.057 217.2 166.245 217.106 166.395C216.505 167.41 215.961 167.823 215.134 167.898C215.078 167.898 215.003 167.917 214.928 167.917H190.044C190.044 167.917 190.063 171.654 190.063 172.649C190.063 173.438 189.387 174.283 187.377 175.297C186.814 175.579 186.138 175.879 185.349 176.18C184.71 176.424 183.903 176.706 183.114 177.025C183.058 177.044 183.001 177.044 182.945 177.044C182.645 177.044 182.4 176.8 182.382 176.518V176.48L182.363 152.893C182.344 146.92 187.264 142 193.312 142H230.046C230.252 142 230.421 142.169 230.421 142.376Z" fill="white"/>
</g>
<defs>
<clipPath id="clip0_2717_311">
<rect width="226.639" height="35.1002" fill="white" transform="translate(62 142)"/>
</clipPath>
</defs>
</svg>
