<svg width="350" height="320" viewBox="0 0 350 320" fill="none" xmlns="http://www.w3.org/2000/svg">
<g clip-path="url(#clip0_3130_119)">
<path d="M180.23 147.244H175.944V178.753H185.301V174.829H180.23V147.244Z" fill="white"/>
<path d="M152.584 147.244V151.107H156.809V178.753H161.095V151.107H165.32V147.244H152.584Z" fill="white"/>
<path d="M139.847 147.244H135.562V178.753H139.847V147.244Z" fill="white"/>
<path d="M151.256 147.244H146.97V178.753H151.256V147.244Z" fill="white"/>
<path d="M139.968 147.244L142.745 178.753H146.789L143.831 147.244H139.968Z" fill="white"/>
<path d="M103.389 147.244H99.103V178.753H103.389V147.244Z" fill="white"/>
<path d="M121.799 147.244H117.513V178.753H121.799V147.244Z" fill="white"/>
<path d="M103.57 147.244L106.346 178.753H110.391L107.433 147.244H103.57Z" fill="white"/>
<path d="M110.511 178.753H114.556L117.393 147.244H113.469L110.511 178.753Z" fill="white"/>
<path d="M80.6925 147.244H76.4067V178.753H85.8233V174.829H80.6925V147.244Z" fill="white"/>
<path d="M89.9883 145.252H93.0668L96.9903 140H92.0406L89.9883 145.252Z" fill="white"/>
<path d="M87.1509 147.244V178.753H96.9899V174.829H91.4366V164.809H95.7827V160.886H91.4366V151.107H96.9899V147.244H87.1509Z" fill="white"/>
<path d="M286.106 147.244H281.82V178.753H291.176V174.829H286.106V147.244Z" fill="white"/>
<path d="M275.361 147.244H271.075V178.753H280.492V174.829H275.361V147.244Z" fill="white"/>
<path d="M223.751 147.244H219.465V178.753H223.751V147.244Z" fill="white"/>
<path d="M242.162 147.244H237.876V178.753H242.162V147.244Z" fill="white"/>
<path d="M223.872 147.244L226.709 178.753H230.753L227.795 147.244H223.872Z" fill="white"/>
<path d="M230.874 178.753H234.918L237.695 147.244H233.832L230.874 178.753Z" fill="white"/>
<path d="M201.176 146.821C192.242 146.821 184.999 154.065 184.999 162.998C184.999 171.932 192.242 179.175 201.176 179.175C210.109 179.175 217.353 171.932 217.353 162.998C217.353 154.065 210.109 146.821 201.176 146.821ZM201.176 175.131C194.717 175.131 189.526 169.698 189.526 162.998C189.526 156.298 194.717 150.865 201.176 150.865C207.634 150.865 212.826 156.298 212.826 162.998C212.826 169.698 207.634 175.131 201.176 175.131Z" fill="white"/>
<path d="M123.912 147.244V178.753H133.751V174.829H128.198V164.809H132.604V160.886H128.198V151.107H133.751V147.244H123.912Z" fill="white"/>
<path d="M259.486 147.244V178.753H269.325V174.829H263.772V164.809H268.118V160.886H263.772V151.107H269.325V147.244H259.486Z" fill="white"/>
<path d="M292.564 147.244V178.753H302.404V174.829H296.85V164.809H301.196V160.886H296.85V151.107H302.404V147.244H292.564Z" fill="white"/>
<path d="M58.1771 175.131C51.7183 175.131 46.5272 169.698 46.5272 162.998C46.5272 156.298 51.7183 150.865 58.1771 150.865C64.0323 150.865 68.8613 155.332 69.7063 161.187H74.2335C73.3281 153.099 66.5071 146.821 58.1771 146.821C49.2435 146.821 42 154.065 42 162.998C42 171.932 49.2435 179.175 58.1771 179.175C66.5675 179.175 73.5092 172.777 74.2335 164.568H69.7063C68.982 170.483 64.0926 175.131 58.1771 175.131Z" fill="white"/>
<path d="M253.449 162.274C255.562 162.274 257.011 160.825 257.011 158.411V152.495C257.011 149.779 254.657 147.244 251.518 147.244H244.274V178.753H251.518C255.019 178.753 257.313 176.761 257.313 173.803V165.956C257.313 163.904 255.623 162.274 253.449 162.274ZM248.379 151.107H251.397C252.122 151.107 252.786 151.71 252.786 152.495V159.256C252.786 159.98 252.182 160.644 251.397 160.644H248.379V151.107ZM253.087 173.501C253.087 174.226 252.484 174.89 251.699 174.89H248.379V164.507H251.699C252.423 164.507 253.087 165.111 253.087 165.896V173.501Z" fill="white"/>
<path d="M304.335 174.829H303.731V175.252H304.335V178.753H304.758V175.252H305.301V174.829H304.758H304.335Z" fill="white"/>
<path d="M305.965 174.829L306.568 178.753H306.991L306.327 174.829H305.965Z" fill="white"/>
<path d="M306.991 178.753H307.413L308.077 174.829H307.655L306.991 178.753Z" fill="white"/>
<path d="M305.965 174.829H305.542V178.753H305.965V174.829Z" fill="white"/>
<path d="M308.5 174.829H308.078V178.753H308.5V174.829Z" fill="white"/>
</g>
<defs>
<clipPath id="clip0_3130_119">
<rect width="266.5" height="39.1752" fill="white" transform="translate(42 140)"/>
</clipPath>
</defs>
</svg>
