<svg width="350" height="320" viewBox="0 0 350 320" fill="none" xmlns="http://www.w3.org/2000/svg">
<g clip-path="url(#clip0_2717_327)">
<path d="M145.051 181.67C145.461 179.56 145.461 176.6 145.127 174.186L142.41 154.088L127.625 181.654H124.802L109.759 152.844L106.844 174.626C106.526 177.131 106.435 180.319 106.693 181.67H101.41C102.427 179.484 102.685 178.543 103.156 174.96L107.953 139.03H110.396L127.944 172.562L145.461 139.03H147.298L152.246 174.884C152.732 178.467 153.112 179.484 154.098 181.67H145.051Z" fill="white"/>
<path d="M99.1332 177.419L98.4957 181.67H68C69.2599 178.725 69.184 177.07 69.184 174.945V145.74C69.184 143.69 69.2599 141.884 68 139.03H77.1381H97.7519L97.7974 143.356C97.2358 143.129 96.7956 142.931 96.3857 142.749C95.2776 142.339 93.8811 141.96 92.4239 141.96H76.121V158.657H95.2624L94.3213 161.936H76.121V178.649H93.3802C96.2946 178.694 99.1788 177.055 99.1788 177.055L99.1029 177.419H99.1332Z" fill="white"/>
<path d="M253.221 159.705V141.52C266.609 140.988 267.975 147.637 268.127 150.703C268.248 153.876 266.928 157.625 262.996 159.128L263.011 159.113C263.011 159.113 262.951 159.143 262.814 159.189C260.704 160.099 253.221 159.705 253.221 159.705ZM262.328 161.724L264.12 161.541C270.131 160.661 275.246 157.17 275.246 150.688C275.246 138.423 260.492 138.985 254.253 138.985H245.1C246.36 141.838 246.284 143.645 246.284 145.694V174.93C246.284 177.04 246.36 178.709 245.1 181.639H254.42C253.236 178.694 253.236 177.04 253.236 174.93V161.8C254.131 161.86 255.513 162.149 257.471 164.456C264.347 172.638 269.827 177.799 274.062 181.67H282.669C281.804 180.865 262.328 161.724 262.328 161.724Z" fill="white"/>
<path d="M214.058 163.075L219.72 150.339L225.488 163.075H214.058ZM238.239 174.702L222.088 139.03H220.236L203.811 175.734C202.567 178.467 201.975 179.484 200.214 181.67H200.244H205.147H205.739L212.676 166.05H226.839L233.882 181.67H243.248C240.774 179.286 239.969 178.193 238.239 174.702Z" fill="white"/>
<path d="M169.748 163.075L175.41 150.339L181.179 163.075H169.748ZM193.929 174.702L177.778 139.03H175.927L159.517 175.734C158.273 178.467 157.681 179.484 155.92 181.67H155.95H160.853H161.445L168.397 166.05H182.56L189.588 181.67H198.954C196.48 179.286 195.66 178.193 193.929 174.702Z" fill="white"/>
</g>
<defs>
<clipPath id="clip0_2717_327">
<rect width="214.654" height="42.7" fill="white" transform="translate(68 139)"/>
</clipPath>
</defs>
</svg>
