<svg width="350" height="320" viewBox="0 0 350 320" fill="none" xmlns="http://www.w3.org/2000/svg">
<g clip-path="url(#clip0_2717_299)">
<path d="M241.728 169.992C241.243 168.581 240.824 167.149 240.251 165.783C238.796 162.367 237.033 158.862 234.278 156.328C233.683 155.777 233.044 155.27 232.361 154.829C230.223 153.419 227.799 152.669 225.243 152.559C225.507 152.581 225.86 152.427 226.124 152.383C226.521 152.339 226.896 152.317 227.292 152.251C228.042 152.163 228.791 152.052 229.54 151.942C231.898 151.568 234.433 151.171 236.548 149.981C238.422 148.923 239.81 146.763 240.361 144.736C241.551 140.482 239.281 135.611 236.218 132.68C234.962 131.49 233.463 130.543 231.832 129.97C230.157 129.374 228.526 129.419 226.785 129.397C223.964 129.33 221.143 129.463 218.322 129.551C216.956 129.595 215.59 129.639 214.201 129.683V170.697H219.887V169.617C219.887 164.13 219.887 158.642 219.887 153.154C219.887 152.978 221.011 153.132 221.121 153.176C221.694 153.375 222.267 153.617 222.818 153.86C224.427 154.587 225.97 155.535 227.292 156.725C228.284 157.606 229.408 158.378 230.289 159.369C231.435 160.647 232.185 162.234 232.846 163.799C233.794 166.025 234.367 168.317 234.719 170.697H241.794C241.794 170.411 241.794 170.19 241.728 169.992ZM219.931 134.686C219.931 134.686 220.196 134.487 220.46 134.377C223.788 132.835 227.336 131.689 231.083 132.019C233.177 132.217 235.998 133.408 236.659 135.722C237.033 137.044 236.989 138.322 236.703 139.667C236.284 141.65 235.535 143.457 234.345 145.088C232.163 148.129 228.438 150.047 224.846 150.972C223.81 151.237 222.774 151.413 221.716 151.545C221.562 151.568 219.909 151.435 219.909 151.545C219.909 146.939 219.909 142.62 219.909 138.014C219.909 137.815 219.931 134.686 219.931 134.686Z" fill="white"/>
<path d="M99.4673 129.639H102.531C103.434 129.639 104.338 129.661 105.263 129.639C105.77 129.639 106.079 129.793 106.365 130.256C108.503 134.025 110.685 137.771 112.867 141.54C115.247 145.639 117.627 149.76 119.985 153.86C122.101 157.518 124.195 161.176 126.311 164.835C126.773 165.628 127.236 166.422 127.787 167.369C127.919 167.083 128.052 166.929 128.074 166.774C128.118 166.488 128.096 166.179 128.096 165.893C128.096 154.234 128.096 142.576 128.096 130.917C128.096 130.543 128.14 130.168 128.184 129.727H129.66C129.704 130.124 129.771 130.498 129.771 130.895C129.771 141.165 129.771 151.457 129.771 161.727C129.771 164.394 129.771 167.083 129.771 169.749C129.771 170.036 129.749 170.322 129.727 170.697H123.115C115.886 158.179 108.635 145.595 101.363 133.011C101.297 133.033 101.208 133.033 101.142 133.055C101.098 133.297 101.032 133.54 101.032 133.782C101.032 140.791 101.01 147.799 101.054 154.807C101.076 156.636 101.098 158.466 101.429 160.273C101.759 162.08 102.244 163.865 102.861 165.606C103.17 166.466 103.5 167.347 103.853 168.185C104.029 168.581 104.184 169 104.382 169.397C104.536 169.727 104.801 170.036 104.911 170.389C104.933 170.433 104.933 170.477 104.955 170.521L104.977 170.653C104.536 170.653 99.4893 170.653 99.4893 170.653V129.639H99.4673Z" fill="white"/>
<path d="M160.823 165.32V170.675H137.837V129.705H160.801V135.105C155.468 132.041 149.892 131.424 143.611 131.644V149.121C148.041 148.923 152.14 149.011 156.46 147.777C156.526 150.311 156.482 150.069 156.504 152.669C152.25 151.457 148.129 151.523 143.831 151.347C143.501 151.92 143.391 167.502 143.677 168.736C149.87 169.088 155.424 168.361 160.823 165.32Z" fill="white"/>
<path d="M209.815 170.697H203.975C203.49 169.397 203.027 168.141 202.565 166.907C201.948 165.232 201.308 163.557 200.691 161.904C200.206 160.604 198.994 157.254 198.994 157.254L198.069 157.232L183.325 157.364C182.421 161.331 181.76 165.21 182.333 169.287C182.333 169.353 182.355 169.419 182.377 169.485C182.399 169.595 182.575 170.697 182.686 170.697H177.11L190.113 129.727H194.41C194.476 129.837 194.675 129.992 194.741 130.19C199.744 143.634 204.746 157.077 209.815 170.697ZM198.73 155.513L191.722 132.438H190.818C190.818 132.438 183.788 155.16 183.699 155.491H198.73V155.513Z" fill="white"/>
<path d="M270.135 161.353C271.942 160.163 272.912 159.524 274.83 158.245C275.292 159.083 275.711 159.898 276.174 160.67C277.65 163.182 278.378 165.099 280.758 166.84C281.573 167.436 282.83 168.207 283.799 168.493C286.113 169.155 289.485 167.942 290.433 165.628C291.27 163.601 290.168 161.265 289.089 159.546C287.766 157.452 285.695 156.041 283.909 154.389C280.846 151.568 277.717 148.813 274.83 145.815C272.053 142.928 271.612 139.358 272.846 135.567C273.794 132.636 275.843 130.719 278.62 129.683C283.733 127.788 289.816 129.859 293.452 133.738C292.086 134.664 290.719 135.589 289.353 136.537C289.265 136.603 289.155 136.669 289.045 136.669C288.912 136.669 288.802 136.559 288.714 136.471C287.48 135.259 286.312 134.003 284.945 132.967C283.777 132.085 282.146 131.094 280.692 130.939C278.047 130.631 275.447 132.46 276.064 135.325C276.504 137.375 278.025 139.182 279.303 140.769C280.824 142.664 282.631 144.339 284.46 145.904C286.797 147.909 289.133 149.915 291.028 152.361C293.21 155.182 294.18 158.267 293.43 161.882C292.769 164.989 291.292 167.524 288.736 169.331C285.937 171.314 282.763 171.998 279.37 171.072C277.54 170.565 276.042 169.397 274.719 168.097C272.824 166.223 271.325 164.02 270.135 161.353Z" fill="white"/>
<path d="M79.9629 135.413C79.9629 135.105 77.759 134.399 77.4285 134.289C74.4092 133.275 71.2797 132.636 68.1722 132.041C67.7094 131.953 62.7507 131.336 62.7507 131.689V149.121C67.1804 148.923 71.3017 149.011 75.5331 147.799V152.647C71.3678 151.457 67.2686 151.523 62.7286 151.347C62.6184 153.044 62.6845 154.631 62.6625 156.218C62.6405 157.827 62.6625 159.435 62.6625 161.044V165.805V170.697H56.9985V129.705H79.9629V135.413Z" fill="white"/>
<path d="M258.08 170.697H252.394C252.372 170.301 252.35 169.948 252.35 169.595C252.35 157.298 252.35 145 252.35 132.702C252.35 131.402 252.306 131.336 251.028 131.336C248.537 131.336 246.047 131.336 243.534 131.336C243.182 131.336 242.851 131.248 242.477 131.182V129.859C243.005 129.595 266.455 129.463 267.931 129.727V131.336H258.3C258.234 131.755 258.146 132.129 258.146 132.482C258.146 139.843 258.146 147.226 258.146 154.587C258.146 159.656 258.146 164.703 258.146 169.772C258.124 170.058 258.08 170.345 258.08 170.697Z" fill="white"/>
<path d="M91.1809 129.683H85.583V170.697H91.1809V129.683Z" fill="white"/>
<path d="M136.294 187.843C136.294 189.496 135.258 190.4 133.892 190.4C132.768 190.4 132.107 189.871 131.732 189.408L132.305 188.813C132.636 189.232 133.12 189.563 133.87 189.563C134.795 189.563 135.412 188.945 135.412 187.755V183.37H136.294V187.843Z" fill="white"/>
<path d="M146.388 190.312H141.473V183.37H146.344V184.185H142.333V186.411H146.211V187.226H142.333V189.474H146.388V190.312Z" fill="white"/>
<path d="M158.84 190.312H157.76L155.909 184.516L154.035 190.312H152.977L150.751 183.37H151.655L153.528 189.32L155.424 183.37H156.415L158.311 189.32L160.162 183.37H161.044L158.84 190.312Z" fill="white"/>
<path d="M170.454 190.312H165.54V183.37H170.41V184.185H166.421V186.411H170.278V187.226H166.421V189.474H170.454V190.312Z" fill="white"/>
<path d="M180.173 190.312H175.347V183.37H176.206V189.474H180.173V190.312Z" fill="white"/>
<path d="M189.451 190.312H184.625V183.37H185.485V189.474H189.451V190.312Z" fill="white"/>
<path d="M198.818 190.312H193.903V183.37H198.774V184.185H194.763V186.411H198.642V187.226H194.763V189.474H198.818V190.312Z" fill="white"/>
<path d="M206.443 183.37C208.008 183.37 208.868 184.075 208.868 185.331C208.868 186.543 207.942 187.315 206.443 187.315H206.399L208.846 190.312H207.744L205.363 187.315H204.548V190.312H203.667V183.392H206.443V183.37ZM204.548 184.185V186.521H206.399C207.413 186.521 207.942 186.124 207.942 185.331C207.942 184.56 207.413 184.185 206.399 184.185H204.548Z" fill="white"/>
<path d="M216.251 187.425V190.312H215.369V187.403L212.636 183.37H213.672L215.81 186.609L217.948 183.37H218.961L216.251 187.425Z" fill="white"/>
</g>
<defs>
<clipPath id="clip0_2717_299">
<rect width="236.674" height="61.4" fill="white" transform="translate(56.9995 129)"/>
</clipPath>
</defs>
</svg>
