<svg width="350" height="320" viewBox="0 0 350 320" fill="none" xmlns="http://www.w3.org/2000/svg">
<g clip-path="url(#clip0_2717_335)">
<path d="M275.59 163.505H268.521V179.103H275.59V163.505Z" fill="white"/>
<path d="M303.543 178.876V143.302H296.506V169.439L276.887 143.302H268.585L295.273 179.135H303.737L303.543 178.876Z" fill="white"/>
<path d="M71.0681 179.167L71.0033 163.44H53.1031V179.167H46.0015V143.367H53.1031V156.857H71.0681V143.367H78.1374V179.167H71.0681Z" fill="white"/>
<path d="M148.409 179.167V149.982H136.54L136.475 143.367H167.281V149.982H155.413V179.167H148.409Z" fill="white"/>
<path d="M191.31 179.167V149.982H179.441L179.376 143.367H210.183V149.982H198.314V179.167H191.31Z" fill="white"/>
<path d="M111.603 141L107.874 147.81L124.477 179.2H132.194L111.603 141Z" fill="white"/>
<path d="M90.6548 179.2L99.2806 163.44H106.901L98.5347 179.2H90.6548Z" fill="white"/>
<path d="M235.445 141L231.715 147.81L248.318 179.2H256.069L235.445 141Z" fill="white"/>
<path d="M214.529 179.2L223.155 163.44H230.775L222.376 179.2H214.529Z" fill="white"/>
</g>
<defs>
<clipPath id="clip0_2717_335">
<rect width="257.736" height="38.1999" fill="white" transform="translate(46.0005 141)"/>
</clipPath>
</defs>
</svg>
