<svg width="350" height="320" viewBox="0 0 350 320" fill="none" xmlns="http://www.w3.org/2000/svg">
<g clip-path="url(#clip0_2717_309)">
<path d="M214.044 157.515C209.994 157.515 206.29 159.135 203.629 161.796C200.851 159.135 197.148 157.515 193.214 157.515C184.998 157.515 178.286 164.227 178.286 172.443V191.768H187.312V172.559C187.312 169.318 189.974 166.657 193.214 166.657C195.297 166.657 197.264 167.814 198.306 169.55C198.653 170.244 199 170.938 199 171.748C199 171.98 199 172.327 199 172.559V191.884H208.026V172.559C208.026 169.318 210.688 166.657 213.928 166.657C217.168 166.657 219.83 169.318 219.83 172.559V191.884H228.856V172.559C229.088 164.227 222.376 157.515 214.044 157.515Z" fill="white"/>
<path d="M104.107 192H77.7227V157.515H86.749V182.858H104.107V192Z" fill="white"/>
<path d="M139.171 171.98V177.072C139.171 178.113 138.361 178.923 137.32 178.923C136.278 178.923 135.468 178.113 135.468 177.072V171.98C135.468 170.939 136.278 170.128 137.32 170.128C138.361 170.013 139.171 170.939 139.171 171.98Z" fill="white"/>
<path d="M111.861 144.785C111.861 143.744 111.051 142.934 110.009 142.934H105.265C104.223 142.934 103.413 143.744 103.413 144.785C103.413 145.827 104.223 146.637 105.265 146.637H110.009C111.051 146.753 111.861 145.827 111.861 144.785Z" fill="white"/>
<path d="M168.796 142.934H163.705C162.663 142.934 161.853 143.744 161.853 144.785C161.853 145.827 162.663 146.637 163.705 146.637H168.796C169.838 146.637 170.648 145.827 170.648 144.785C170.648 143.744 169.838 142.934 168.796 142.934Z" fill="white"/>
<path d="M143.453 145.943C143.453 149.183 140.791 151.844 137.551 151.844C134.31 151.844 131.649 149.183 131.649 145.943V128.816H122.623V146.058C122.623 154.275 129.334 160.986 137.551 160.986C145.767 160.986 152.479 154.275 152.479 146.058V128.7H143.453V145.943Z" fill="white"/>
<path d="M264.036 157.515V160.292C261.49 158.556 258.597 157.515 255.472 157.515C245.983 157.515 238.229 165.268 238.229 174.757C238.229 184.246 245.983 192 255.472 192C258.597 192 261.49 190.958 264.036 189.223V192H273.178V157.515H264.036ZM264.036 174.873C263.92 179.386 260.217 182.974 255.704 182.974C251.19 182.974 247.372 179.27 247.372 174.757C247.487 170.244 251.19 166.541 255.704 166.541C260.217 166.541 264.036 170.244 264.036 174.873C264.036 174.757 264.036 174.757 264.036 174.873Z" fill="white"/>
<path d="M120.077 161.334C119.383 160.639 118.11 160.639 117.416 161.334L114.06 164.69C113.365 165.384 113.365 166.657 114.06 167.351C114.754 168.046 116.027 168.046 116.721 167.351L120.077 163.995C120.772 163.301 120.772 162.144 120.077 161.334Z" fill="white"/>
<path d="M155.835 161.334C155.14 162.028 155.14 163.301 155.835 163.995L159.191 167.351C159.885 168.046 161.158 168.046 161.852 167.351C162.547 166.657 162.547 165.384 161.852 164.69L158.496 161.334C157.802 160.639 156.645 160.639 155.835 161.334Z" fill="white"/>
</g>
<defs>
<clipPath id="clip0_2717_309">
<rect width="195.455" height="63.3" fill="white" transform="translate(77.7227 128.7)"/>
</clipPath>
</defs>
</svg>
