<svg width="350" height="320" viewBox="0 0 350 320" fill="none" xmlns="http://www.w3.org/2000/svg">
<path d="M168.982 146.143C166.829 145.286 161.527 144.289 158.458 144.289C137.689 144.289 132.168 163.424 132.168 169.284C132.168 175.881 135.736 181.9 143.13 181.9C150.146 181.9 153.455 177.655 154.95 175.442C154.87 176.379 154.81 176.519 154.81 177.595C154.81 180.824 156.524 181.92 159.534 181.92C162.105 181.92 164.916 180.386 168.145 177.994L167.885 177.595C167.288 177.854 166.67 178.034 166.112 178.034C163.182 178.034 163.6 174.087 163.819 173.17L168.982 146.143ZM156.245 165.118C155.03 171.137 151.223 178.153 145.502 178.153C144.067 178.153 141.416 176.937 141.416 171.496C141.416 168.128 143.629 147.857 156.883 147.857C157.88 147.857 159.255 148.296 159.534 148.495L156.245 165.118Z" fill="white"/>
<path d="M235.214 177.994L234.955 177.595C234.357 177.854 233.739 178.034 233.181 178.034C230.251 178.034 230.67 174.087 230.889 173.17L236.051 146.163C233.898 145.306 228.597 144.309 225.527 144.309C204.758 144.309 199.237 163.444 199.237 169.304C199.237 175.901 202.805 181.92 210.2 181.92C217.216 181.92 220.524 177.675 222.019 175.462C221.939 176.399 221.88 176.539 221.88 177.615C221.88 180.844 223.594 181.94 226.603 181.94C229.155 181.92 231.965 180.386 235.214 177.994ZM212.552 178.153C211.117 178.153 208.466 176.937 208.466 171.496C208.466 168.128 210.678 147.857 223.933 147.857C224.929 147.857 226.304 148.296 226.584 148.495L223.295 165.118C222.079 171.137 218.272 178.153 212.552 178.153Z" fill="white"/>
<path d="M126.766 177.954C123.537 177.954 124.195 173.808 124.613 172.014L128.042 156.687C130.194 146.94 123.677 144.289 119.092 144.289C112.934 144.289 107.711 148.874 106.137 151.744C106.217 150.309 105.061 144.588 97.8254 144.588C90.0919 144.588 85.7269 149.89 83.933 152.76C84.6505 148.754 81.2024 145.286 77.216 145.904L73.4689 165.237L70.3994 181.88L79.1893 181.9C80.8436 173.37 82.3584 164.321 82.3584 164.321C85.0093 150.069 93.2411 149.571 93.8191 149.571C97.5463 149.571 98.1841 152.362 97.4068 156.368L92.1847 181.86L101.214 181.88L104.363 164.46C106.655 151.704 112.595 149.631 115.186 149.631C120.488 149.631 119.411 155.87 118.973 157.803L115.325 174.127C114.03 180.007 118.176 181.88 120.906 181.88C124.394 181.88 127.025 179.668 129.098 177.854L128.819 177.416C128.121 177.735 127.424 177.954 126.766 177.954Z" fill="white"/>
<path d="M188.574 143.93C182.196 143.93 176.117 148.295 176.117 155.391C176.117 159.975 178.27 161.909 181.917 165.776C186.422 170.579 187.936 171.795 187.936 174.147C187.936 176.519 185.864 179.229 181.778 179.229C175.26 179.229 172.051 172.931 172.27 170.639H171.891L170.197 179.548L173.626 180.904C173.785 180.963 173.924 181.003 174.084 181.043C175.619 181.462 178.648 182.538 182.495 182.538C191.086 182.538 195.809 177.017 195.809 171.356C195.809 167.848 193.597 164.759 189.511 160.693C185.126 156.308 183.412 154.674 183.412 152.023C183.412 150.01 184.987 147.299 188.933 147.299C194.873 147.299 196.328 153.179 196.328 154.534H196.806L198.321 146.661L194.235 144.987C192.899 144.508 191.225 143.93 188.574 143.93Z" fill="white"/>
<path d="M262.421 145.286H255.265L257.079 136.596V136.556C257.358 135.141 257.657 133.825 257.976 132.629C259.611 126.49 261.564 123.341 265.291 123.341C267.842 123.341 269.756 124.796 270.593 125.733L270.972 123.78C270.075 122.743 267.484 120.192 264.115 120.192C257.657 120.192 252.794 124.916 249.784 132.649C249.306 133.885 248.867 135.2 248.469 136.576C248.289 137.233 248.13 137.911 247.97 138.609L246.476 145.266H241.214L240.496 148.993H245.798L241.672 172.114L239.858 182.219C239.519 184.113 239.141 185.827 238.742 187.362C237.108 193.5 234.855 196.69 231.128 196.69C228.577 196.69 226.644 195.235 225.806 194.278L225.428 196.231C226.285 197.268 228.876 199.839 232.264 199.839C238.722 199.839 243.247 195.115 246.236 187.362C247.372 184.452 248.289 181.103 249.007 177.416L250.063 172.094L254.608 149.053H261.703L262.421 145.286Z" fill="white"/>
<path d="M267.643 136.895C267.643 138.39 268.858 140.901 271.729 140.901C275.376 140.901 277.748 137.612 277.748 135.24C277.748 132.809 275.894 131.015 273.602 131.015C270.792 131.015 267.643 133.666 267.643 136.895Z" fill="white"/>
<path d="M272.945 178.013C270.793 178.013 270.414 175.96 270.434 174.446L270.474 174.047C270.514 173.569 270.573 173.07 270.673 172.512L275.716 145.565L266.846 145.644L265.89 151.066C265.87 151.245 265.85 151.445 265.81 151.644C264.514 158.52 261.505 174.645 261.505 174.645C261.465 174.864 261.445 175.064 261.425 175.263H261.405C261.405 175.263 261.405 175.363 261.385 175.542C261.345 175.841 261.345 176.14 261.345 176.419C261.325 176.837 261.325 177.316 261.325 177.834C261.325 177.854 261.325 177.854 261.345 177.874C261.465 180.943 263.199 182 266.189 182C268.839 182 271.71 180.425 275.038 177.974L274.779 177.555C274.161 177.834 273.543 178.013 272.945 178.013Z" fill="white"/>
<path d="M279.96 174.286L279.9 174.007L279.821 173.748L279.681 173.509L279.522 173.25L279.322 173.031L279.103 172.851L278.864 172.692L278.605 172.552L278.346 172.453L278.047 172.393L277.748 172.373L277.449 172.393L277.15 172.453L276.871 172.533L276.632 172.672L276.392 172.831L276.153 173.011L275.954 173.23L275.794 173.489L275.655 173.728L275.555 173.988L275.496 174.267L275.476 174.585L275.496 174.884L275.555 175.163L275.655 175.423L275.794 175.662L275.934 175.901L276.133 176.12L276.353 176.32L276.592 176.479L276.851 176.618L277.13 176.698L277.409 176.758L277.708 176.778L278.027 176.758L278.306 176.698L278.605 176.618L278.864 176.479L279.123 176.339L279.342 176.14L279.542 175.921L279.701 175.662L279.841 175.423L279.94 175.163L279.98 174.884L280 174.585L279.96 174.286ZM279.562 174.825L279.482 175.064L279.402 175.303L279.302 175.522L279.143 175.742L278.964 175.941L278.744 176.1L278.525 176.22L278.286 176.3L278.007 176.359L277.728 176.379L277.449 176.359L277.19 176.3L276.931 176.18L276.711 176.021L276.472 175.821L276.273 175.602L276.113 175.383L276.014 175.124L275.954 174.865L275.934 174.585L275.954 174.346L276.014 174.107L276.093 173.888L276.213 173.669L276.353 173.449L276.532 173.25L276.751 173.091L276.951 172.971L277.21 172.891L277.449 172.831L277.728 172.812L278.007 172.831L278.266 172.891L278.505 172.971L278.724 173.091L278.944 173.25L279.123 173.449L279.283 173.669L279.382 173.888L279.462 174.127L279.542 174.366L279.562 174.605V174.825Z" fill="white"/>
<path d="M278.287 174.565L278.426 174.406L278.526 174.207L278.546 174.007L278.526 173.828L278.446 173.668L278.347 173.549L278.187 173.449L278.008 173.409L277.788 173.389H276.991V175.801H277.47V174.824H277.689L278.347 175.801H278.905L278.167 174.685L278.287 174.565ZM278.068 174.167L278.008 174.266L277.928 174.366L277.828 174.406L277.669 174.446L277.49 174.466H277.43V173.728H277.589L277.729 173.748L277.848 173.788L277.928 173.828L277.988 173.888L278.028 173.947V174.067L278.068 174.167Z" fill="white"/>
</svg>
