<svg width="350" height="320" viewBox="0 0 350 320" fill="none" xmlns="http://www.w3.org/2000/svg">
<g clip-path="url(#clip0_3130_228)">
<path d="M85.6292 177.31V158.914C85.6292 155.053 85.241 151.948 84.4862 149.748C83.8608 147.915 82.9766 146.707 81.9198 146.276C80.9062 145.866 79.7847 146.19 78.7927 147.16C79.2671 148.519 79.5259 150.072 79.5259 151.775V172.134L81.9414 177.331H65.8313V158.914C65.8313 154.989 65.4 151.84 64.5158 149.576C63.6531 147.333 62.5964 146.492 61.8415 146.19C61.0867 145.866 60.2888 145.974 59.728 146.427V172.091L62.1435 177.288H43.6611L46.0766 172.091V146.944L43.6611 141.747H59.7712V145.996C61.9925 143.86 64.4726 142.351 66.9528 141.618C69.4545 140.884 71.8699 140.949 73.9403 141.79C76.14 142.696 77.7791 144.464 78.6849 146.815C81.1865 144.335 83.9255 142.588 86.6213 141.725C89.2092 140.906 91.6893 140.927 93.7813 141.79C97.2966 143.257 99.3023 146.88 99.3023 151.732V172.091L101.718 177.288H85.6292V177.31Z" fill="white"/>
<path d="M121.882 177.375V174.808C120.329 176.275 118.237 177.31 115.929 177.763C115.11 177.914 114.269 178 113.449 178C111.853 178 110.279 177.698 108.877 177.137C107.044 176.383 105.513 175.153 104.456 173.579C103.27 171.811 102.666 169.611 102.666 167.066C102.666 161.998 104.952 158.159 108.963 156.52C111.012 155.679 113.428 155.506 115.757 156.002C118.064 156.498 120.178 157.641 121.882 159.302V149.748C121.817 145.866 121.58 141.855 120.221 141.553C120.221 141.553 120.178 141.553 120.135 141.553L114.829 153.954L105.125 146.88L105.232 146.75C106.764 145.025 108.985 143.602 111.659 142.631C114.204 141.726 117.094 141.229 120.027 141.229H120.264C122.442 141.251 124.491 141.618 126.389 142.286C128.265 142.955 129.904 143.947 131.285 145.176C134.045 147.656 135.555 151.064 135.555 154.752V172.177L137.97 177.375H121.882ZM121.882 174.377V159.712C121.386 159.216 120.48 159.108 119.617 159.475C118.992 159.733 118.108 160.316 117.417 161.696C116.727 163.055 116.361 164.866 116.361 167.044C116.361 169.223 116.706 171.034 117.417 172.393C118.129 173.773 119.013 174.377 119.617 174.614C120.458 174.981 121.364 174.873 121.882 174.377Z" fill="white"/>
<path d="M176.661 141.747L163.851 177.331H148.884L136.052 141.747H151.127L163.7 176.663C163.98 175.52 164.282 173.018 164.045 169.244C163.743 164.176 162.363 155.334 157.532 141.941L157.467 141.725H176.661V141.747Z" fill="white"/>
<path d="M206.552 172.609C203.08 176.081 198.443 178 193.547 178C188.63 178 184.015 176.081 180.543 172.609C177.071 169.136 175.151 164.521 175.151 159.604C175.151 154.687 177.071 150.072 180.543 146.6C183.627 143.516 187.207 141.682 190.895 141.294C194.216 140.949 197.516 141.79 200.19 143.688C202.799 145.543 204.654 148.303 205.409 151.452C206.25 154.924 205.754 158.72 203.878 162.494H190.463C190.507 162.537 190.528 162.559 190.571 162.602C194 166.031 197.559 168.942 200.578 170.797C203.49 172.587 205.603 173.169 206.358 172.414L206.552 172.609ZM190.118 162.149C191.348 161.545 191.952 160.402 191.908 158.741C191.844 156.736 190.765 154.04 189.019 151.517C187.293 149.037 185.244 147.16 183.519 146.47C182.355 146.017 181.427 146.125 180.737 146.794C179.982 147.548 180.565 149.662 182.355 152.573C184.123 155.463 186.862 158.849 190.118 162.149Z" fill="white"/>
<path d="M236.702 141.618L232.41 155.075C229.65 153.414 225.768 150.266 224.387 151.301C224.021 151.56 223.848 151.948 223.848 152.444V172.069L230.857 177.31H207.76L210.175 172.112V146.966L207.76 141.747H223.87V150.913C224.107 149.64 224.452 148.476 224.948 147.376C225.789 145.5 227.018 143.947 228.507 142.847C230.879 141.122 233.812 140.647 236.572 141.531L236.702 141.618Z" fill="white"/>
<path d="M272.027 159.582C272.027 164.499 270.107 169.115 266.635 172.587C263.163 176.059 258.548 177.978 253.63 177.978C248.713 177.978 244.098 176.059 240.626 172.587C237.154 169.115 235.234 164.499 235.234 159.582C235.234 154.665 237.154 150.05 240.626 146.578C244.098 143.106 248.713 141.186 253.63 141.186C258.548 141.186 263.163 143.106 266.635 146.578C270.107 150.05 272.027 154.665 272.027 159.582ZM264.392 167.044C262.43 164.154 259.453 160.661 256.024 157.21C252.574 153.781 249.102 150.805 246.19 148.842C243.43 146.988 241.445 146.211 240.842 146.815C240.259 147.397 241.014 149.403 242.869 152.164C244.831 155.053 247.808 158.547 251.237 161.998C258.893 169.654 265.255 173.557 266.419 172.414C267.023 171.789 266.247 169.805 264.392 167.044Z" fill="white"/>
<path d="M306.059 172.393L306.275 172.608C302.802 176.081 298.187 178 293.27 178C288.353 178 283.738 176.081 280.266 172.608C276.793 169.136 274.874 164.521 274.874 159.604C274.874 154.687 276.793 150.072 280.266 146.599C283.738 143.127 288.353 141.208 293.27 141.208C298.187 141.208 302.781 143.106 306.339 146.664L300.279 166.699L300.107 166.268C298.877 163.033 295.686 158.504 291.566 154.148C287.577 149.942 283.824 147.052 281.732 146.599C281.15 146.47 280.719 146.556 280.46 146.815C279.705 147.57 280.287 149.683 282.077 152.595C283.932 155.614 286.822 159.151 290.272 162.602C293.701 166.031 297.26 168.942 300.279 170.797C303.191 172.565 305.283 173.148 306.059 172.393Z" fill="white"/>
</g>
<defs>
<clipPath id="clip0_3130_228">
<rect width="262.678" height="36.9" fill="white" transform="translate(43.6611 141.1)"/>
</clipPath>
</defs>
</svg>
