<svg width="350" height="320" viewBox="0 0 350 320" fill="none" xmlns="http://www.w3.org/2000/svg">
<g clip-path="url(#clip0_2717_323)">
<path d="M145.235 219.142V214.569C146.259 214.752 148.747 215.191 151.784 215.191C154.345 215.191 155.625 214.862 155.625 213.471C155.625 211.825 154.528 211.642 150.942 209.995C147.466 208.422 144.905 207.032 144.905 203.3C144.905 198.727 147.686 197.117 153.211 197.117C156.028 197.117 158.113 197.373 159.357 197.519V202.093C158.113 201.983 155.845 201.654 153.32 201.654C150.357 201.654 149.735 201.983 149.735 203.19C149.735 204.434 151.345 205.056 153.759 206.117C157.382 207.764 160.382 209.117 160.382 213.325C160.382 217.715 157.638 219.764 151.747 219.764C149.442 219.728 147.283 219.508 145.235 219.142Z" fill="white"/>
<path d="M163.346 211.971V197.373H168.285V211.788C168.285 214.276 169.785 215.154 172.127 215.154C174.505 215.154 176.005 214.276 176.005 211.788V197.373H180.944V211.971C180.944 217.313 177.432 219.728 172.127 219.728C166.822 219.728 163.346 217.313 163.346 211.971Z" fill="white"/>
<path d="M185.188 197.373H194.811C199.311 197.373 201.799 199.019 201.799 203.08C201.799 206.264 199.97 207.288 198.287 207.947C200.262 208.532 202.348 209.63 202.348 213.325C202.348 217.167 200.043 219.472 195.14 219.472H185.188V197.373ZM194.116 206.3C196.092 206.3 196.823 205.239 196.823 203.776C196.823 202.019 195.945 201.544 194.116 201.544H190.164V206.3H194.116ZM194.445 215.264C196.421 215.264 197.226 214.569 197.226 212.63C197.226 210.91 196.494 210.178 194.628 210.178H190.091V215.227H194.445V215.264Z" fill="white"/>
<path d="M210.287 197.373H205.348V219.435H210.287V197.373Z" fill="white"/>
<path d="M213.872 219.142V214.569C214.897 214.752 217.385 215.191 220.421 215.191C222.983 215.191 224.263 214.862 224.263 213.471C224.263 211.825 223.165 211.642 219.58 209.995C216.104 208.422 213.543 207.032 213.543 203.3C213.543 198.727 216.324 197.117 221.848 197.117C224.666 197.117 226.751 197.373 227.995 197.519V202.093C226.751 201.983 224.483 201.654 221.958 201.654C218.958 201.654 218.372 201.983 218.372 203.19C218.372 204.434 219.982 205.056 222.397 206.117C226.019 207.764 229.019 209.117 229.019 213.325C229.019 217.715 226.275 219.764 220.385 219.764C218.116 219.728 215.958 219.508 213.872 219.142Z" fill="white"/>
<path d="M249.399 197.373V219.435H244.497V210.654H236.667V219.435H231.728V197.373H236.667V206.081H244.497V197.373H249.399Z" fill="white"/>
<path d="M258.399 197.373H253.46V219.435H258.399V197.373Z" fill="white"/>
<path d="M138.393 227.045V249.108H133.417V233.595L126.758 244.681L120.099 233.595V249.108H115.16V227.045H121.563L126.758 236.046L131.844 227.045H138.393Z" fill="white"/>
<path d="M141.759 238.095C141.759 230.192 144.759 226.753 151.272 226.753C157.748 226.753 160.785 230.192 160.785 238.095C160.785 245.998 157.748 249.437 151.272 249.437C144.759 249.4 141.759 245.961 141.759 238.095ZM155.662 238.095C155.662 233.595 154.894 231.326 151.272 231.326C147.686 231.326 146.882 233.595 146.882 238.095C146.882 242.632 147.65 244.937 151.272 244.937C154.858 244.9 155.662 242.632 155.662 238.095Z" fill="white"/>
<path d="M167.553 231.655H161.553V227.045H178.493V231.655H172.492V249.108H167.553V231.655Z" fill="white"/>
<path d="M179.261 238.095C179.261 230.192 182.261 226.753 188.773 226.753C195.249 226.753 198.25 230.192 198.25 238.095C198.25 245.998 195.249 249.437 188.773 249.437C182.297 249.4 179.261 245.961 179.261 238.095ZM193.164 238.095C193.164 233.595 192.396 231.326 188.773 231.326C185.151 231.326 184.383 233.595 184.383 238.095C184.383 242.632 185.151 244.937 188.773 244.937C192.396 244.937 193.164 242.632 193.164 238.095Z" fill="white"/>
<path d="M201.688 227.045H210.652C215.372 227.045 218.372 228.802 218.372 234.107C218.372 237.546 216.653 239.741 213.835 240.4L219.287 249.071H213.506L208.823 241.205H206.628V249.071H201.688V227.045ZM210.323 236.924C212.555 236.924 213.25 235.79 213.25 234.143C213.25 232.424 212.592 231.326 210.323 231.326H206.628V236.961H210.323V236.924Z" fill="white"/>
<path d="M221.337 248.815V244.241C222.362 244.424 224.849 244.863 227.886 244.863C230.447 244.863 231.728 244.534 231.728 243.144C231.728 241.497 230.63 241.314 227.045 239.668C223.569 238.095 221.008 236.704 221.008 232.972C221.008 228.399 223.788 226.789 229.313 226.789C232.13 226.789 234.216 227.045 235.46 227.192V231.802C234.216 231.655 231.947 231.362 229.423 231.362C226.423 231.362 225.837 231.692 225.837 232.899C225.837 234.143 227.447 234.765 229.862 235.826C233.484 237.473 236.484 238.826 236.484 243.034C236.484 247.424 233.74 249.473 227.85 249.473C225.545 249.4 223.386 249.181 221.337 248.815Z" fill="white"/>
<path d="M153.723 107.587L174.871 144.175L195.982 107.587L174.871 71L153.723 107.587Z" fill="white"/>
<path d="M217.093 144.175H174.871L195.982 180.726H238.204L217.093 144.175Z" fill="white"/>
<path d="M132.612 144.175H174.871L153.723 180.726H111.501L132.612 144.175Z" fill="white"/>
<path d="M115.233 197.373V219.435H110.257V203.922L103.598 215.008L96.9393 203.922V219.435H92V197.373H98.4028L103.598 206.373L108.684 197.373H115.233Z" fill="white"/>
<path d="M124.343 197.373H119.404V219.435H124.343V197.373Z" fill="white"/>
<path d="M132.466 201.983H126.502V197.373H143.405V201.983H137.442V219.435H132.466V201.983Z" fill="white"/>
</g>
<defs>
<clipPath id="clip0_2717_323">
<rect width="166.399" height="178.4" fill="white" transform="translate(92 71)"/>
</clipPath>
</defs>
</svg>
