<svg width="350" height="320" viewBox="0 0 350 320" fill="none" xmlns="http://www.w3.org/2000/svg">
<g clip-path="url(#clip0_3130_377)">
<path d="M59.7998 151.203C61.7747 150.112 63.946 149.523 66.0955 148.879C67.2739 148.519 68.4523 148.181 69.6306 147.842C73.1113 146.86 76.6573 146.391 80.2798 146.533C83.3131 146.653 86.3245 146.839 89.3141 147.45C91.7146 147.941 94.0713 148.541 96.3299 149.468C97.6502 150.014 98.9704 150.57 100.225 151.225C101.109 151.694 101.905 152.338 102.735 152.916C103.564 153.483 104.393 154.062 105.222 154.64C106.063 155.229 106.892 155.851 107.732 156.44C108.583 157.04 109.445 157.63 110.307 158.219C111.093 158.764 111.878 159.321 112.664 159.855C113.897 160.685 115.075 161.612 116.373 162.299C117.585 162.943 119.352 162.714 120.171 161.263C121.12 159.604 121.818 157.848 122.222 155.982C122.636 154.094 123.171 152.218 123.509 150.319C123.88 148.202 124.099 146.053 124.36 143.914C124.6 141.983 124.775 140.052 125.026 138.132C125.288 136.102 125.528 134.062 125.921 132.054C126.346 129.905 126.914 127.777 127.917 125.824C128.419 124.842 129.15 123.969 129.816 123.074C130.842 121.689 132.227 120.685 133.657 119.779C134.857 119.026 136.166 118.426 137.454 117.837C140.007 116.68 142.702 115.949 145.419 115.371C149.063 114.607 152.762 114.204 156.472 113.931C158.152 113.811 159.81 114.073 161.425 114.498C162.702 114.826 163.989 115.175 165.189 115.709C166.935 116.484 168.659 117.324 170.296 118.317C171.911 119.299 173.416 120.477 174.922 121.623C176.199 122.594 177.432 123.631 178.654 124.678C179.592 125.486 180.476 126.369 181.381 127.21C182.243 128.017 183.127 128.814 183.978 129.643C184.807 130.461 185.593 131.334 186.411 132.163C187.241 133.003 188.103 133.822 188.954 134.651C189.488 135.186 190.001 135.731 190.536 136.266C191.201 136.92 191.867 137.575 192.532 138.23C193.285 138.961 194.038 139.67 194.791 140.401C195.609 141.208 196.406 142.049 197.235 142.856C198.763 144.329 200.268 145.835 201.851 147.231C203.422 148.617 205.037 149.937 206.706 151.203C207.939 152.141 209.215 153.036 210.579 153.756C212.216 154.629 213.929 155.371 215.664 156.026C217.213 156.615 218.817 157.117 220.432 157.455C222.396 157.87 224.393 158.208 226.422 157.968C228.222 157.76 229.892 157.269 231.343 156.135C232.336 155.36 233.383 154.651 234.365 153.854C235.096 153.254 235.773 152.578 236.428 151.879C237.53 150.69 238.653 149.512 239.635 148.224C241.01 146.435 242.287 144.569 243.574 142.725C244.665 141.154 245.735 139.561 246.793 137.968C247.655 136.669 248.462 135.349 249.324 134.062C250.165 132.796 251.048 131.563 251.888 130.297C252.456 129.446 252.991 128.563 253.547 127.701C254.06 126.915 254.584 126.14 255.107 125.355C256.013 123.991 256.908 122.616 257.824 121.241C258.653 119.997 259.515 118.754 260.345 117.51C260.923 116.637 261.479 115.753 262.058 114.88C262.581 114.084 263.116 113.287 263.651 112.491C264.283 111.552 264.916 110.603 265.56 109.665C266.237 108.661 266.913 107.657 267.589 106.653C268.157 105.791 268.691 104.918 269.259 104.067C270.099 102.802 270.95 101.547 271.801 100.292C272.03 99.9538 272.303 99.6265 272.489 99.2665C273.089 98.0881 274.114 97.4007 275.304 97.0188C276.624 96.5932 277.977 96.2223 279.33 95.9604C281.457 95.5458 283.618 95.2294 285.756 94.8802C286.716 94.7275 287.677 94.5529 288.604 95.1421C289.761 95.8731 290.252 96.9315 289.946 98.2299C289.783 98.9064 289.379 99.5392 288.997 100.15C288.43 101.078 287.786 101.951 287.186 102.856C286.575 103.784 285.975 104.733 285.364 105.66C284.818 106.49 284.229 107.286 283.683 108.115C282.832 109.403 282.003 110.723 281.152 112.011C280.584 112.873 279.984 113.702 279.417 114.564C278.599 115.797 277.78 117.041 276.962 118.273C276.362 119.179 275.751 120.074 275.162 120.979C274.332 122.234 273.514 123.489 272.696 124.744C272.434 125.137 272.183 125.529 271.921 125.922C270.874 127.504 269.826 129.075 268.768 130.657C267.72 132.218 266.662 133.756 265.625 135.327C264.6 136.899 263.661 138.524 262.57 140.052C261.294 141.841 259.963 143.609 258.522 145.278C257.322 146.675 256.035 148.017 254.638 149.217C253.22 150.439 251.659 151.498 250.099 152.523C248.746 153.418 247.339 154.247 245.877 154.945C243.825 155.917 241.73 156.822 239.592 157.575C236.853 158.535 234.049 159.375 231.256 160.161C229.27 160.717 227.251 161.176 225.233 161.568C222.352 162.114 219.461 162.692 216.548 163.009C213.307 163.358 210.034 163.565 206.76 163.271C204.753 163.096 202.767 162.889 200.781 162.441C198.512 161.929 196.319 161.241 194.169 160.357C192.085 159.506 190.099 158.47 188.234 157.237C186.335 155.982 184.513 154.618 182.745 153.189C180.945 151.749 179.221 150.199 177.508 148.65C176.351 147.602 175.282 146.457 174.158 145.355C173.329 144.536 172.478 143.74 171.649 142.911C170.841 142.092 170.056 141.252 169.248 140.434C168.485 139.67 167.721 138.917 166.946 138.164C166.237 137.477 165.539 136.779 164.808 136.113C163.662 135.066 162.494 134.051 161.327 133.025C160.356 132.174 159.374 131.312 158.381 130.483C157.366 129.643 156.33 128.824 155.304 128.006C154.257 127.177 153.209 126.337 152.162 125.518C151.409 124.929 150.634 124.362 149.881 123.784C149.27 123.314 148.67 122.834 147.939 122.256C147.645 123.129 147.295 123.904 147.132 124.711C146.815 126.217 146.564 127.733 146.346 129.261C145.844 132.774 145.43 136.309 144.895 139.812C144.502 142.387 144.033 144.951 143.509 147.504C143.062 149.741 142.331 151.89 141.414 153.985C140.585 155.873 139.592 157.64 138.305 159.233C137.028 160.805 135.522 162.125 133.798 163.216C131.638 164.602 129.292 165.616 126.924 166.544C124.786 167.373 122.593 168.093 120.367 168.65C117.792 169.293 115.173 169.85 112.533 170.155C110.132 170.439 107.677 170.352 105.244 170.374C103.324 170.385 101.447 170.046 99.636 169.446C98.7849 169.163 97.9339 168.802 97.1592 168.355C95.7953 167.548 94.4423 166.708 93.1657 165.769C91.8346 164.776 90.6016 163.652 89.3251 162.583C88.4849 161.885 87.6557 161.154 86.7937 160.488C85.8663 159.768 84.9061 159.092 83.935 158.437C81.8728 157.062 79.7015 155.884 77.4211 154.902C74.9116 153.811 72.3148 152.981 69.6306 152.425C66.7065 151.825 63.7605 151.465 60.7709 151.585C60.4545 151.596 60.138 151.465 59.8216 151.41C59.7998 151.345 59.7998 151.268 59.7998 151.203Z" fill="white"/>
<path d="M217.028 92.6543C217.705 93.1889 218.327 93.6799 218.938 94.1818C219.92 94.9783 220.88 95.7858 221.851 96.5932C223.575 98.0225 225.299 99.4519 227.023 100.881C227.601 101.361 228.179 101.841 228.78 102.311C229.14 102.583 229.118 102.911 228.889 103.205C228.354 103.904 227.765 104.569 227.197 105.257C226.39 106.228 225.594 107.21 224.797 108.192C223.673 109.577 222.538 110.963 221.415 112.338C220.902 112.96 220.367 113.571 219.865 114.204C219.429 114.771 219.069 114.858 218.501 114.411C217.803 113.854 217.127 113.298 216.439 112.731C215.424 111.89 214.421 111.05 213.406 110.21C212.009 109.064 210.624 107.919 209.227 106.773C208.638 106.293 208.07 105.791 207.481 105.322C207.143 105.049 207.088 104.798 207.372 104.449C208.169 103.489 208.965 102.529 209.751 101.569C210.525 100.619 211.278 99.6483 212.064 98.699C213.199 97.3133 214.344 95.9494 215.479 94.5746C216.003 93.9418 216.505 93.309 217.028 92.6543Z" fill="white"/>
<path d="M194.954 199.102C195.238 199.102 195.434 199.102 195.631 199.102C198.697 199.102 201.774 199.059 204.84 199.124C206.782 199.168 208.669 199.517 210.502 200.259C212.816 201.197 214.671 202.681 216.056 204.7C217.42 206.664 218.227 208.879 218.468 211.301C218.631 212.927 218.577 214.541 218.315 216.124C218.14 217.182 217.758 218.219 217.344 219.211C216.722 220.706 215.816 222.026 214.671 223.172C213.198 224.656 211.484 225.758 209.466 226.271C207.982 226.653 206.444 226.936 204.927 226.991C201.828 227.1 198.719 227.013 195.609 227.035C195.151 227.035 194.943 226.958 194.943 226.413C194.965 217.487 194.954 208.573 194.954 199.648C194.954 199.495 194.954 199.332 194.954 199.102ZM197.093 225.016C197.267 225.027 197.377 225.049 197.486 225.049C199.842 225.049 202.21 225.082 204.567 225.038C205.625 225.016 206.705 224.885 207.742 224.667C209.215 224.372 210.557 223.718 211.768 222.845C212.336 222.441 212.914 221.994 213.339 221.459C213.972 220.684 214.572 219.855 215.02 218.96C215.522 217.946 215.991 216.876 216.187 215.774C216.613 213.363 216.58 210.963 215.707 208.595C215.151 207.089 214.365 205.747 213.296 204.591C212.346 203.576 211.223 202.779 209.924 202.212C208.549 201.612 207.109 201.208 205.625 201.154C202.941 201.055 200.246 201.099 197.562 201.088C197.409 201.088 197.257 201.121 197.093 201.143C197.093 209.108 197.093 217.04 197.093 225.016Z" fill="white"/>
<path d="M150.994 222.092C150.994 214.454 150.994 206.806 150.994 199.135C151.67 199.135 152.303 199.135 153.002 199.135C153.012 199.31 153.034 199.506 153.034 199.692C153.034 208.595 153.034 217.499 153.023 226.402C153.023 226.598 152.936 226.926 152.805 226.969C152.532 227.078 152.249 227.046 151.998 226.729C150.557 224.918 149.084 223.14 147.622 221.35C146.52 220.008 145.397 218.699 144.305 217.357C143.258 216.069 142.232 214.76 141.196 213.472C140.17 212.207 139.134 210.963 138.108 209.697C136.984 208.322 135.871 206.948 134.758 205.584C134.355 205.093 133.929 204.613 133.384 204.165C133.384 204.373 133.384 204.58 133.384 204.787C133.384 211.967 133.373 219.146 133.394 226.326C133.394 226.893 133.231 227.035 132.696 227.024C131.256 227.002 131.256 227.024 131.256 225.605C131.256 217.008 131.256 208.41 131.256 199.812C131.256 199.594 131.256 199.375 131.256 199.168C132.009 198.972 132.194 199.081 132.718 199.757C133.58 200.87 134.464 201.961 135.347 203.063C136.395 204.373 137.453 205.671 138.523 206.969C139.636 208.322 140.748 209.675 141.861 211.028C142.887 212.283 143.891 213.56 144.916 214.814C146.029 216.189 147.164 217.542 148.288 218.917C149.063 219.866 149.826 220.826 150.59 221.787C150.677 221.896 150.776 221.994 150.863 222.103C150.907 222.125 150.95 222.103 150.994 222.092Z" fill="white"/>
<path d="M167.099 213.865C167.099 217.618 167.099 221.284 167.099 225.027C172.969 225.027 178.828 225.027 184.764 225.027C184.764 225.649 184.775 226.205 184.753 226.762C184.753 226.849 184.589 226.969 184.48 227.013C184.349 227.056 184.196 227.035 184.044 227.035C177.955 227.035 171.867 227.035 165.779 227.035C165.004 227.035 165.004 227.035 165.004 226.249C165.004 217.455 165.004 208.66 165.004 199.866C165.004 199.113 165.004 199.113 165.735 199.113C171.681 199.113 177.617 199.113 183.564 199.113C183.76 199.113 183.956 199.113 184.229 199.113C184.229 199.702 184.24 200.237 184.218 200.772C184.207 200.881 184.044 201.023 183.924 201.066C183.76 201.121 183.564 201.088 183.378 201.088C178.239 201.088 173.089 201.088 167.95 201.088C167.677 201.088 167.415 201.088 167.11 201.088C167.11 204.743 167.11 208.333 167.11 211.988C167.383 211.999 167.644 212.032 167.906 212.032C172.827 212.032 177.759 212.032 182.68 212.032C183.444 212.032 183.444 212.032 183.444 212.807C183.444 213.112 183.444 213.429 183.433 213.734C183.433 213.767 183.411 213.8 183.378 213.887C177.988 213.865 172.587 213.865 167.099 213.865Z" fill="white"/>
</g>
<defs>
<clipPath id="clip0_3130_377">
<rect width="230.201" height="134.391" fill="white" transform="translate(59.7988 92.6543)"/>
</clipPath>
</defs>
</svg>
