<svg width="350" height="320" viewBox="0 0 350 320" fill="none" xmlns="http://www.w3.org/2000/svg">
<g clip-path="url(#clip0_3130_170)">
<path d="M93.7065 199.247V187.783H100.381V189.197H95.1961V192.667H99.4008V194.081H95.1961V197.814H100.381V199.228H93.7065V199.247Z" fill="white"/>
<path d="M105.152 199.398C104.039 199.398 103.096 198.983 102.342 198.172C101.588 197.362 101.211 196.362 101.211 195.193C101.211 194.024 101.588 193.044 102.342 192.214C103.096 191.403 104.039 190.989 105.152 190.989C105.736 190.989 106.302 191.121 106.811 191.384C107.32 191.648 107.716 191.988 107.999 192.384V191.158H109.394V199.228H107.999V197.984C107.716 198.399 107.32 198.738 106.811 199.002C106.302 199.266 105.736 199.398 105.152 199.398ZM105.359 198.135C106.151 198.135 106.811 197.852 107.32 197.286C107.829 196.721 108.093 196.042 108.093 195.212C108.093 194.382 107.829 193.685 107.32 193.138C106.811 192.572 106.151 192.29 105.359 192.29C104.548 192.29 103.888 192.572 103.379 193.138C102.87 193.704 102.606 194.401 102.606 195.212C102.606 196.042 102.87 196.739 103.379 197.286C103.888 197.852 104.548 198.135 105.359 198.135Z" fill="white"/>
<path d="M111.336 199.247V191.158H112.731V192.723C112.882 192.233 113.184 191.837 113.617 191.535C114.051 191.234 114.522 191.083 114.994 191.083C115.239 191.083 115.446 191.102 115.616 191.139V192.572C115.428 192.478 115.164 192.44 114.862 192.44C114.296 192.44 113.806 192.685 113.372 193.176C112.939 193.666 112.731 194.345 112.731 195.231V199.228H111.336V199.247Z" fill="white"/>
<path d="M116.578 199.247V187.142H117.973V199.247H116.578Z" fill="white"/>
<path d="M122.084 202.622H120.538L122.291 198.833L118.765 191.158H120.292L123.064 197.286L125.817 191.158H127.363L122.084 202.622Z" fill="white"/>
<path d="M136.716 199.436C135.019 199.436 133.605 198.87 132.473 197.739C131.342 196.608 130.776 195.193 130.776 193.515C130.776 191.837 131.342 190.423 132.473 189.292C133.605 188.16 135.019 187.595 136.716 187.595C138.092 187.595 139.28 187.991 140.298 188.764C141.298 189.537 141.939 190.48 142.203 191.573H140.619C140.355 190.838 139.865 190.216 139.148 189.744C138.45 189.273 137.621 189.028 136.697 189.028C135.434 189.028 134.378 189.461 133.529 190.329C132.681 191.196 132.266 192.271 132.266 193.534C132.266 194.797 132.681 195.872 133.529 196.74C134.378 197.607 135.434 198.041 136.697 198.041C137.621 198.041 138.432 197.795 139.148 197.324C139.846 196.853 140.336 196.23 140.619 195.495H142.203C141.939 196.589 141.298 197.531 140.298 198.305C139.28 199.04 138.092 199.436 136.716 199.436Z" fill="white"/>
<path d="M144.785 199.247H143.39V187.142H144.785V192.422C145.332 191.479 146.181 191.026 147.35 191.026C148.274 191.026 149.009 191.328 149.556 191.912C150.121 192.497 150.404 193.289 150.404 194.288V199.266H149.028V194.496C149.028 193.817 148.858 193.289 148.519 192.893C148.179 192.497 147.708 192.308 147.123 192.308C146.464 192.308 145.898 192.572 145.445 193.1C144.993 193.628 144.767 194.345 144.767 195.269V199.247H144.785Z" fill="white"/>
<path d="M153.647 188.726C153.459 188.915 153.232 189.009 152.95 189.009C152.667 189.009 152.44 188.915 152.233 188.726C152.044 188.537 151.95 188.311 151.95 188.028C151.95 187.764 152.044 187.519 152.233 187.331C152.422 187.142 152.667 187.048 152.95 187.048C153.232 187.048 153.459 187.142 153.647 187.331C153.836 187.519 153.93 187.764 153.93 188.028C153.93 188.292 153.836 188.537 153.647 188.726ZM152.252 199.247V191.158H153.647V199.228H152.252V199.247Z" fill="white"/>
<path d="M155.608 199.247V187.142H157.004V199.247H155.608Z" fill="white"/>
<path d="M162.283 199.398C161.171 199.398 160.228 198.983 159.474 198.173C158.719 197.362 158.342 196.362 158.342 195.193C158.342 194.024 158.719 193.044 159.474 192.214C160.228 191.403 161.171 190.989 162.283 190.989C162.868 190.989 163.433 191.121 163.942 191.385C164.451 191.649 164.847 191.988 165.13 192.384V187.104H166.525V199.21H165.13V197.965C164.847 198.38 164.451 198.719 163.942 198.983C163.433 199.266 162.886 199.398 162.283 199.398ZM162.49 198.135C163.282 198.135 163.942 197.852 164.451 197.286C164.96 196.721 165.224 196.042 165.224 195.212C165.224 194.383 164.96 193.685 164.451 193.138C163.942 192.573 163.282 192.29 162.49 192.29C161.68 192.29 161.02 192.573 160.511 193.138C160.002 193.704 159.738 194.401 159.738 195.212C159.738 196.042 160.002 196.74 160.511 197.286C161.02 197.852 161.68 198.135 162.49 198.135Z" fill="white"/>
<path d="M169.863 199.247H168.468V187.142H169.863V192.422C170.41 191.479 171.277 191.026 172.427 191.026C173.351 191.026 174.087 191.328 174.633 191.912C175.199 192.497 175.482 193.289 175.482 194.288V199.266H174.105V194.496C174.105 193.817 173.936 193.289 173.596 192.893C173.257 192.497 172.786 192.308 172.201 192.308C171.541 192.308 170.976 192.572 170.523 193.1C170.07 193.628 169.844 194.345 169.844 195.269V199.247H169.863Z" fill="white"/>
<path d="M180.893 199.398C179.668 199.398 178.668 198.983 177.858 198.172C177.047 197.362 176.651 196.362 176.651 195.193C176.651 194.024 177.047 193.025 177.858 192.214C178.668 191.403 179.668 190.989 180.893 190.989C182.1 190.989 183.099 191.403 183.91 192.214C184.702 193.025 185.117 194.024 185.117 195.193C185.117 196.362 184.721 197.362 183.91 198.172C183.118 199.002 182.1 199.398 180.893 199.398ZM178.876 197.267C179.404 197.833 180.083 198.116 180.893 198.116C181.723 198.116 182.402 197.833 182.911 197.267C183.42 196.702 183.684 196.023 183.684 195.193C183.684 194.364 183.42 193.685 182.911 193.119C182.402 192.554 181.723 192.271 180.893 192.271C180.064 192.271 179.385 192.554 178.876 193.119C178.348 193.685 178.084 194.364 178.084 195.193C178.084 196.023 178.348 196.721 178.876 197.267Z" fill="white"/>
<path d="M190.019 199.398C188.794 199.398 187.794 198.983 186.984 198.172C186.173 197.362 185.777 196.362 185.777 195.193C185.777 194.024 186.173 193.025 186.984 192.214C187.776 191.403 188.794 190.989 190.019 190.989C191.226 190.989 192.225 191.403 193.036 192.214C193.847 193.025 194.243 194.024 194.243 195.193C194.243 196.362 193.847 197.362 193.036 198.172C192.225 199.002 191.226 199.398 190.019 199.398ZM188.002 197.267C188.53 197.833 189.209 198.116 190.019 198.116C190.849 198.116 191.528 197.833 192.037 197.267C192.546 196.702 192.81 196.023 192.81 195.193C192.81 194.364 192.546 193.685 192.037 193.119C191.528 192.554 190.849 192.271 190.019 192.271C189.19 192.271 188.511 192.554 188.002 193.119C187.474 193.685 187.21 194.364 187.21 195.193C187.21 196.023 187.474 196.721 188.002 197.267Z" fill="white"/>
<path d="M198.881 199.398C197.769 199.398 196.826 198.983 196.072 198.173C195.318 197.362 194.94 196.362 194.94 195.193C194.94 194.024 195.318 193.044 196.072 192.214C196.826 191.403 197.769 190.989 198.881 190.989C199.466 190.989 200.031 191.121 200.54 191.385C201.05 191.649 201.445 191.988 201.728 192.384V187.104H203.124V199.21H201.728V197.965C201.445 198.38 201.05 198.719 200.54 198.983C200.031 199.266 199.485 199.398 198.881 199.398ZM199.089 198.135C199.881 198.135 200.54 197.852 201.05 197.286C201.559 196.721 201.823 196.042 201.823 195.212C201.823 194.383 201.559 193.685 201.05 193.138C200.54 192.573 199.881 192.29 199.089 192.29C198.278 192.29 197.618 192.573 197.109 193.138C196.6 193.704 196.336 194.401 196.336 195.212C196.336 196.042 196.6 196.74 197.109 197.286C197.618 197.852 198.297 198.135 199.089 198.135Z" fill="white"/>
<path d="M213.683 199.436C211.986 199.436 210.571 198.87 209.44 197.739C208.309 196.608 207.743 195.193 207.743 193.515C207.743 191.837 208.309 190.423 209.44 189.292C210.571 188.16 211.986 187.595 213.683 187.595C215.059 187.595 216.247 187.991 217.265 188.764C218.264 189.537 218.905 190.48 219.169 191.573H217.586C217.322 190.838 216.831 190.216 216.134 189.744C215.436 189.273 214.606 189.028 213.683 189.028C212.419 189.028 211.363 189.461 210.515 190.329C209.666 191.196 209.252 192.271 209.252 193.534C209.252 194.797 209.666 195.872 210.515 196.74C211.363 197.607 212.419 198.041 213.683 198.041C214.606 198.041 215.417 197.795 216.134 197.324C216.831 196.853 217.322 196.23 217.586 195.495H219.169C218.905 196.589 218.264 197.531 217.265 198.305C216.247 199.04 215.059 199.436 213.683 199.436Z" fill="white"/>
<path d="M223.808 199.398C222.639 199.398 221.659 199.002 220.886 198.21C220.112 197.418 219.735 196.419 219.735 195.212C219.735 193.987 220.112 192.987 220.867 192.195C221.621 191.404 222.601 191.008 223.846 191.008C225.09 191.008 226.071 191.441 226.787 192.327C227.504 193.214 227.805 194.288 227.73 195.571H221.149C221.168 196.306 221.432 196.909 221.96 197.399C222.469 197.89 223.11 198.135 223.827 198.135C224.921 198.135 225.712 197.682 226.165 196.777H227.579C227.372 197.531 226.938 198.154 226.278 198.644C225.599 199.153 224.77 199.398 223.808 199.398ZM225.373 192.799C224.939 192.422 224.393 192.233 223.77 192.233C223.148 192.233 222.582 192.422 222.092 192.799C221.602 193.176 221.3 193.742 221.187 194.477H226.222C226.108 193.742 225.826 193.195 225.373 192.799Z" fill="white"/>
<path d="M229.049 199.247V191.158H230.445V192.403C230.991 191.46 231.84 191.008 233.009 191.008C233.933 191.008 234.668 191.309 235.215 191.894C235.781 192.478 236.063 193.27 236.063 194.27V199.247H234.687V194.477C234.687 193.798 234.517 193.27 234.178 192.874C233.839 192.478 233.367 192.29 232.783 192.29C232.123 192.29 231.557 192.554 231.105 193.082C230.652 193.61 230.426 194.326 230.426 195.25V199.247H229.049Z" fill="white"/>
<path d="M241.023 199.323C240.287 199.323 239.684 199.115 239.232 198.7C238.779 198.286 238.553 197.663 238.553 196.853V192.44H236.837V191.158H238.553V188.915H239.948V191.158H242.267V192.44H239.948V196.664C239.948 197.173 240.061 197.531 240.269 197.739C240.476 197.946 240.815 198.04 241.287 198.04C241.702 198.04 242.022 197.984 242.267 197.871V199.115C241.89 199.266 241.475 199.323 241.023 199.323Z" fill="white"/>
<path d="M243.38 199.247V191.158H244.775V192.723C244.926 192.233 245.228 191.837 245.661 191.535C246.095 191.234 246.566 191.083 247.038 191.083C247.283 191.083 247.49 191.102 247.66 191.139V192.572C247.471 192.478 247.208 192.44 246.906 192.44C246.34 192.44 245.85 192.685 245.416 193.176C244.983 193.666 244.775 194.345 244.775 195.231V199.228H243.38V199.247Z" fill="white"/>
<path d="M252.072 199.398C250.903 199.398 249.922 199.002 249.149 198.21C248.376 197.418 247.999 196.419 247.999 195.212C247.999 193.987 248.376 192.987 249.13 192.195C249.885 191.404 250.865 191.008 252.109 191.008C253.354 191.008 254.334 191.441 255.051 192.327C255.767 193.214 256.069 194.288 255.994 195.571H249.413C249.432 196.306 249.696 196.909 250.224 197.399C250.733 197.89 251.374 198.135 252.091 198.135C253.184 198.135 253.976 197.682 254.429 196.777H255.843C255.635 197.531 255.202 198.154 254.542 198.644C253.863 199.153 253.052 199.398 252.072 199.398ZM253.656 192.799C253.222 192.422 252.675 192.233 252.053 192.233C251.431 192.233 250.865 192.422 250.375 192.799C249.885 193.176 249.583 193.742 249.47 194.477H254.504C254.372 193.742 254.089 193.195 253.656 192.799Z" fill="white"/>
<path d="M159.379 138.005C159.379 136.799 159.134 135.648 158.682 134.555C158.229 133.499 157.588 132.537 156.777 131.727C155.966 130.916 155.005 130.275 153.949 129.822C152.855 129.351 151.686 129.125 150.48 129.125C149.273 129.125 148.123 129.351 147.01 129.822C145.954 130.275 144.993 130.916 144.182 131.727C143.371 132.537 142.73 133.499 142.278 134.555C141.806 135.648 141.58 136.818 141.58 138.005V150.016C141.561 151.223 141.316 152.392 140.845 153.504C140.392 154.579 139.732 155.522 138.902 156.352C137.187 158.049 134.924 158.972 132.529 158.972C131.304 158.972 130.116 158.727 129.003 158.256C127.929 157.803 126.948 157.143 126.119 156.314C125.289 155.484 124.629 154.504 124.177 153.429C123.705 152.317 123.46 151.129 123.46 149.903V138.005C123.46 136.799 123.234 135.648 122.762 134.536C122.31 133.48 121.669 132.519 120.858 131.708C120.047 130.897 119.086 130.256 118.03 129.803C116.936 129.332 115.767 129.106 114.56 129.106C113.354 129.106 112.203 129.332 111.091 129.803C110.035 130.256 109.073 130.897 108.263 131.708C107.452 132.519 106.811 133.48 106.358 134.536C105.887 135.63 105.661 136.799 105.661 138.005V149.903C105.661 153.523 106.377 157.049 107.772 160.349C108.451 161.933 109.281 163.479 110.242 164.912C111.204 166.326 112.298 167.665 113.523 168.89C114.73 170.097 116.069 171.209 117.502 172.171C118.935 173.133 120.462 173.981 122.065 174.641C125.383 176.036 128.89 176.753 132.511 176.753C136.131 176.753 139.657 176.036 142.956 174.641C144.54 173.962 146.086 173.133 147.519 172.171C148.933 171.209 150.272 170.116 151.498 168.89C152.704 167.684 153.817 166.345 154.779 164.912C155.74 163.479 156.589 161.952 157.249 160.349C158.644 157.03 159.36 153.523 159.36 149.903L159.379 138.005Z" fill="white"/>
<path d="M99.0991 146.603C98.1375 145.189 97.0439 143.85 95.8183 142.625C94.6115 141.418 93.2728 140.306 91.8398 139.344C90.4068 138.382 88.8795 137.534 87.2768 136.874C83.9772 135.498 80.4701 134.781 76.8499 134.781C73.2297 134.781 69.7037 135.498 66.4041 136.893C64.8202 137.572 63.2741 138.401 61.8411 139.363C60.427 140.324 59.0882 141.418 57.8626 142.644C56.6559 143.85 55.5434 145.189 54.5818 146.622C53.6202 148.055 52.7717 149.582 52.1118 151.185C50.7165 154.485 50 157.992 50 161.612V166.684C50 167.891 50.2451 169.041 50.6976 170.135C51.1502 171.191 51.7912 172.152 52.602 172.963C53.4128 173.774 54.3744 174.415 55.4303 174.867C56.5239 175.339 57.6929 175.565 58.8997 175.565C60.1064 175.565 61.2566 175.339 62.369 174.867C63.4249 174.415 64.3866 173.774 65.1973 172.963C66.0081 172.152 66.6492 171.191 67.1017 170.135C67.5731 169.041 67.7994 167.872 67.7994 166.684V161.518C67.8182 160.311 68.0633 159.142 68.5347 158.03C68.9872 156.955 69.6472 156.012 70.4768 155.182C72.1926 153.485 74.4553 152.562 76.8499 152.562C78.0755 152.562 79.2634 152.807 80.3758 153.278C81.4506 153.731 82.431 154.39 83.2607 155.22C84.0903 156.05 84.7502 157.03 85.2028 158.105C85.6741 159.217 85.9193 160.405 85.9193 161.631V166.684C85.9193 167.891 86.1455 169.041 86.6169 170.153C87.0694 171.209 87.7105 172.171 88.5213 172.982C89.3321 173.793 90.2937 174.434 91.3496 174.886C92.4432 175.358 93.6122 175.584 94.8189 175.584C96.0257 175.584 97.1758 175.358 98.2883 174.886C99.3442 174.434 100.306 173.793 101.117 172.982C101.927 172.171 102.568 171.209 103.021 170.153C103.492 169.06 103.719 167.891 103.719 166.684V161.631C103.719 158.011 103.002 154.485 101.607 151.185C100.909 149.582 100.061 148.055 99.0991 146.603Z" fill="white"/>
<path d="M299.681 148.47V126.881C299.681 125.674 299.436 124.524 298.983 123.43C298.531 122.374 297.89 121.413 297.079 120.602C296.268 119.791 295.307 119.15 294.251 118.698C293.157 118.226 291.988 118 290.781 118C289.575 118 288.424 118.226 287.312 118.698C286.256 119.15 285.294 119.791 284.484 120.602C283.673 121.413 283.032 122.374 282.579 123.43C282.108 124.524 281.882 125.693 281.882 126.881V150.016C281.863 151.223 281.618 152.392 281.146 153.504C280.694 154.579 280.034 155.522 279.204 156.352C277.488 158.049 275.226 158.973 272.831 158.973C271.606 158.973 270.418 158.727 269.305 158.256C268.23 157.803 267.25 157.144 266.42 156.314C265.591 155.484 264.931 154.504 264.478 153.429C264.007 152.317 263.762 151.129 263.762 149.903V126.881C263.762 125.674 263.535 124.524 263.064 123.412C262.612 122.356 261.971 121.394 261.16 120.583C260.349 119.772 259.387 119.131 258.331 118.679C257.238 118.207 256.069 117.981 254.862 117.981C253.655 117.981 252.505 118.207 251.393 118.679C250.337 119.131 249.375 119.772 248.564 120.583C247.754 121.394 247.113 122.356 246.66 123.412C246.189 124.505 245.962 125.674 245.962 126.881V148.451V149.903C245.962 153.523 246.679 157.049 248.074 160.349C248.753 161.933 249.583 163.479 250.544 164.912C251.506 166.326 252.599 167.665 253.825 168.89C255.032 170.097 256.37 171.21 257.803 172.171C259.236 173.133 260.764 173.981 262.366 174.641C265.685 176.037 269.192 176.753 272.812 176.753C276.432 176.753 279.958 176.037 283.258 174.641C284.842 173.962 286.388 173.133 287.821 172.171C289.235 171.21 290.574 170.116 291.8 168.89C293.025 167.665 294.119 166.345 295.08 164.912C296.042 163.479 296.89 161.952 297.55 160.349C298.946 157.03 299.662 153.523 299.662 149.903L299.681 148.47Z" fill="white"/>
<path d="M240.702 138.326C240.099 136.874 239.326 135.479 238.458 134.178C237.591 132.895 236.592 131.67 235.479 130.576C234.386 129.483 233.16 128.464 231.878 127.597C230.577 126.711 229.182 125.957 227.73 125.353C226.259 124.731 224.713 124.26 223.148 123.939C221.545 123.619 219.886 123.449 218.246 123.449C212.551 123.449 207.102 125.41 202.728 129.011C198.372 125.41 192.904 123.449 187.21 123.449C185.551 123.449 183.91 123.619 182.289 123.939C180.724 124.26 179.178 124.731 177.707 125.353C176.255 125.957 174.86 126.73 173.559 127.597C172.277 128.464 171.051 129.464 169.957 130.576C168.864 131.67 167.846 132.895 166.978 134.178C166.092 135.479 165.338 136.874 164.734 138.326C164.112 139.796 163.641 141.343 163.32 142.908C163 144.51 162.83 146.17 162.83 147.829V167.91C162.83 167.91 162.83 167.91 162.83 167.929C162.83 169.116 163.056 170.285 163.528 171.379C163.98 172.435 164.621 173.378 165.432 174.188C166.243 174.999 167.186 175.64 168.242 176.093C169.335 176.564 170.504 176.79 171.692 176.79C172.88 176.79 174.049 176.564 175.143 176.093C176.198 175.64 177.141 174.999 177.952 174.188C178.763 173.378 179.404 172.435 179.856 171.379C180.328 170.285 180.554 169.116 180.554 167.929C180.554 167.929 180.554 167.929 180.554 167.91V147.81C180.554 146.038 181.252 144.359 182.496 143.096C183.741 141.833 185.419 141.154 187.21 141.154C188.926 141.154 190.547 141.814 191.792 142.983C193.017 144.152 193.753 145.717 193.847 147.414C193.847 148.564 193.847 161.612 193.847 166.439V167.891H193.866C193.866 169.079 194.092 170.248 194.563 171.341C195.016 172.397 195.657 173.34 196.468 174.151C197.279 174.962 198.221 175.603 199.277 176.055C200.371 176.527 201.54 176.753 202.728 176.753C203.916 176.753 205.085 176.527 206.178 176.055C207.234 175.603 208.177 174.962 208.988 174.151C209.799 173.34 210.44 172.397 210.892 171.341C211.345 170.248 211.59 169.098 211.59 167.891H211.609V166.439C211.609 161.612 211.609 148.564 211.609 147.414C211.703 145.717 212.438 144.152 213.664 142.983C214.908 141.795 216.53 141.154 218.246 141.154C220.018 141.154 221.696 141.852 222.959 143.096C224.223 144.359 224.902 146.019 224.902 147.81V167.891C224.902 167.891 224.902 167.891 224.902 167.91C224.902 169.098 225.128 170.267 225.599 171.36C226.052 172.416 226.693 173.359 227.504 174.17C228.314 174.98 229.257 175.621 230.313 176.074C231.407 176.545 232.576 176.772 233.764 176.772C234.951 176.772 236.12 176.545 237.214 176.074C238.27 175.621 239.213 174.98 240.023 174.17C240.834 173.359 241.475 172.416 241.928 171.36C242.399 170.267 242.626 169.098 242.626 167.91C242.626 167.91 242.626 167.91 242.626 167.891V147.81C242.626 146.151 242.456 144.51 242.135 142.889C241.815 141.343 241.325 139.796 240.702 138.326Z" fill="white"/>
</g>
<defs>
<clipPath id="clip0_3130_170">
<rect width="249.7" height="84.6224" fill="white" transform="translate(50 118)"/>
</clipPath>
</defs>
</svg>
