<svg width="350" height="320" viewBox="0 0 350 320" fill="none" xmlns="http://www.w3.org/2000/svg">
<g clip-path="url(#clip0_2717_319)">
<path d="M191.752 97.9035V97H183.685V110.596H191.752V109.714H185.986V104.25H191.752V103.346H185.986V97.9035H191.752Z" fill="white"/>
<path d="M176.822 97V103.346H171.53V97H169.228V110.596H171.53V104.25H176.822V110.596H179.124V97H176.822Z" fill="white"/>
<path d="M157.375 97V97.9035H161.139V110.596H163.42V97.9035H167.163V97H157.375Z" fill="white"/>
<path d="M133.646 221.732H136.356C137.002 221.732 137.496 221.624 137.841 221.409C138.185 221.194 138.357 220.85 138.357 220.377C138.357 219.903 138.185 219.559 137.841 219.322C137.496 219.107 137.002 219 136.356 219H133.538V218.053H136.055C136.657 218.053 137.109 217.946 137.453 217.73C137.776 217.515 137.948 217.171 137.948 216.741C137.948 216.311 137.776 215.966 137.453 215.751C137.131 215.536 136.657 215.429 136.055 215.429H133.646V221.732ZM132.484 222.7V214.46H136.184C137.131 214.46 137.862 214.654 138.378 215.041C138.895 215.429 139.153 215.945 139.153 216.59C139.153 217.042 139.045 217.408 138.852 217.709C138.658 218.01 138.378 218.247 138.056 218.419C137.712 218.591 137.346 218.677 136.959 218.677L137.174 218.333C137.647 218.333 138.056 218.419 138.421 218.569C138.787 218.742 139.067 218.978 139.282 219.301C139.497 219.624 139.605 220.011 139.605 220.484C139.605 221.194 139.347 221.732 138.809 222.119C138.271 222.506 137.496 222.7 136.442 222.7H132.484Z" fill="white"/>
<path d="M146.252 222.7V219.537L146.532 220.269L142.982 214.46H144.23L147.22 219.365H146.532L149.522 214.46H150.684L147.156 220.269L147.414 219.537V222.7H146.252Z" fill="white"/>
<path d="M162.215 218.01H166.453V219H162.215V218.01ZM162.322 221.667H167.12V222.7H161.139V214.46H166.948V215.493H162.322V221.667Z" fill="white"/>
<path d="M172.089 222.7V214.46H173.057L176.758 220.678H176.241L179.877 214.46H180.845L180.867 222.7H179.726V216.246H179.985L176.736 221.689H176.198L172.928 216.246H173.23V222.7H172.089Z" fill="white"/>
<path d="M186.718 220.635L187.041 219.688H191.687L192.032 220.635H186.718ZM185.147 222.7L188.869 214.46H190.031L193.774 222.7H192.548L189.213 215.127H189.687L186.352 222.7H185.147Z" fill="white"/>
<path d="M198.55 220.635L198.873 219.688H203.498L203.842 220.635H198.55ZM196.958 222.7L200.68 214.46H201.841L205.585 222.7H204.358L201.024 215.127H201.497L198.163 222.7H196.958Z" fill="white"/>
<path d="M215.373 222.7L213.287 219.71H214.556L216.664 222.7H215.373ZM211.049 219.774L210.512 219.193H213.05C213.803 219.193 214.384 219.021 214.771 218.698C215.158 218.376 215.352 217.924 215.352 217.322C215.352 216.741 215.158 216.289 214.771 215.966C214.384 215.644 213.803 215.493 213.05 215.493H210.512L211.049 214.912V219.774ZM209.888 222.7V214.46H213.093C213.825 214.46 214.427 214.568 214.943 214.805C215.46 215.041 215.847 215.364 216.126 215.794C216.406 216.225 216.535 216.741 216.535 217.343C216.535 217.946 216.406 218.44 216.126 218.871C215.847 219.301 215.46 219.624 214.943 219.86C214.427 220.097 213.825 220.204 213.093 220.204H210.533L211.071 219.667V222.721H209.888V222.7Z" fill="white"/>
<path d="M123.449 154.697C123.449 157.838 123.104 160.915 122.416 163.819L122.394 163.797L122.33 164.056C121.62 167.024 120.544 169.757 119.146 172.144C117.748 174.532 116.091 176.662 114.241 178.448C112.391 180.212 110.24 181.61 107.83 182.6C105.442 183.568 102.882 184.063 100.215 184.063C95.8259 184.063 91.803 182.75 88.2749 180.169C84.7683 177.587 81.9716 174.016 79.9924 169.541C78.0132 165.088 77.0021 160.076 77.0021 154.676C77.0021 149.276 78.0132 144.264 79.9924 139.811C81.9716 135.357 84.7468 131.786 88.2964 129.205C91.803 126.623 95.8259 125.311 100.236 125.311C103.506 125.311 106.625 126.085 109.53 127.613C112.434 129.14 114.929 131.227 116.952 133.808C118.974 136.39 120.587 139.531 121.727 143.124C122.868 146.738 123.449 150.61 123.449 154.697ZM125.643 139.402C123.104 134.776 119.555 131.033 115.101 128.301C110.627 125.569 105.636 124.192 100.236 124.192C94.8363 124.192 89.8453 125.569 85.3706 128.301C80.9175 131.012 77.3678 134.755 74.8293 139.402C72.2908 144.027 71 149.169 71 154.676C71 160.183 72.2908 165.325 74.8078 169.95C77.3463 174.575 80.8959 178.319 85.3491 181.051C89.8238 183.783 94.8148 185.16 100.215 185.16C105.614 185.16 110.605 183.783 115.08 181.051C119.555 178.319 123.104 174.597 125.621 169.95C128.16 165.325 129.429 160.183 129.429 154.676C129.451 149.169 128.181 144.027 125.643 139.402Z" fill="white"/>
<path d="M227.27 125.053H222.107V184.342H227.27V125.053Z" fill="white"/>
<path d="M208.618 161.259C207.457 159.129 205.908 157.344 204.036 155.967L204.058 155.945L203.929 155.838C201.971 154.418 199.798 153.106 197.496 151.944C195.194 150.782 192.849 149.685 190.526 148.652C188.289 147.663 186.137 146.609 184.18 145.49C182.265 144.414 180.695 143.08 179.511 141.553C178.328 140.047 177.704 138.326 177.64 136.455C177.575 133.206 178.694 130.495 180.931 128.43C183.169 126.365 186.266 125.311 190.16 125.311C191.795 125.311 193.344 125.504 194.786 125.87L194.958 125.913V124.644L194.85 124.622C193.323 124.343 191.752 124.192 190.16 124.192C184.933 124.192 180.673 125.397 177.511 127.763C174.327 130.151 172.864 133.744 173.144 138.498C173.208 140.542 173.746 142.392 174.714 144.006C175.704 145.619 176.951 146.996 178.457 148.093C179.942 149.19 181.663 150.266 183.534 151.255C185.406 152.267 187.342 153.17 189.278 153.966C191.214 154.762 193.129 155.687 194.958 156.741C196.808 157.795 198.464 158.914 199.906 160.054C201.347 161.194 202.509 162.614 203.369 164.314C204.23 165.992 204.66 167.906 204.66 170.036C204.66 173.091 203.563 175.63 202.616 177.48C201.153 180.319 196.808 183.74 191.666 184.45C187.987 184.966 182.373 184.299 176.629 178.147C173.896 175.221 172.003 171.671 170.777 168.918C169.852 166.831 153.674 125.117 153.674 125.117L153.631 125.031H152.599L132.678 184.342H134.42L151.502 133.055L165.463 168.853C167.529 173.93 170.39 177.845 173.983 180.513C179.447 184.557 184.761 185.719 189.042 185.719C190.569 185.719 191.946 185.569 193.172 185.353C199.217 184.299 204.789 180.857 208.468 175.931C209.759 173.758 210.425 171.305 210.425 168.638C210.425 165.927 209.823 163.432 208.618 161.259Z" fill="white"/>
<path d="M276.319 161.216L276.233 161.066L276.212 161.087C275.007 158.979 273.458 157.236 271.586 155.859C269.65 154.44 267.52 153.149 265.197 151.966C262.895 150.804 260.55 149.707 258.205 148.674C255.947 147.706 253.795 146.63 251.816 145.512C249.901 144.436 248.331 143.102 247.148 141.575C245.965 140.069 245.341 138.348 245.276 136.476C245.276 133.206 246.395 130.496 248.611 128.452C250.826 126.387 253.924 125.333 257.797 125.333C259.432 125.333 261.024 125.526 262.508 125.913L262.68 125.956V124.687L262.572 124.666C261.002 124.364 259.389 124.214 257.797 124.214C252.612 124.214 248.395 125.419 245.233 127.785C242.071 130.151 240.565 133.766 240.78 138.52C240.887 140.779 241.576 142.844 242.824 144.651C244.071 146.458 245.642 147.964 247.492 149.126C249.364 150.288 251.429 151.406 253.623 152.417C255.452 153.278 257.861 154.418 260.292 155.58C262.465 156.634 264.487 157.774 266.316 159.022C268.08 160.248 269.564 161.797 270.704 163.669C271.845 165.519 272.404 167.648 272.404 170.036C272.404 174.231 270.92 177.652 267.994 180.212C265.068 182.772 261.368 184.063 257.044 184.063C252.612 184.063 248.675 182.751 245.663 180.255C243.275 178.297 241.511 176.082 240.328 173.672V180.061L240.35 180.083C244.76 183.46 250.375 185.181 257.044 185.181C259.453 185.181 261.906 184.816 264.294 184.127C266.681 183.417 268.962 182.406 271.027 181.116C273.114 179.825 274.856 178.061 276.169 175.888C277.502 173.715 278.169 171.263 278.169 168.595C278.148 165.884 277.524 163.41 276.319 161.216Z" fill="white"/>
<path d="M180.393 187.44C165.055 183.46 156.729 164.744 140.143 170.875C154.513 168.746 167.529 194.518 190.612 188.581C186.933 188.71 183.448 188.301 180.393 187.44Z" fill="white"/>
</g>
<defs>
<clipPath id="clip0_2717_319">
<rect width="207.148" height="125.7" fill="white" transform="translate(71 97)"/>
</clipPath>
</defs>
</svg>
