<svg width="350" height="320" viewBox="0 0 350 320" fill="none" xmlns="http://www.w3.org/2000/svg">
<g clip-path="url(#clip0_2717_331)">
<path d="M132.071 124.8H127.253C116.045 124.8 106.944 133.901 106.944 145.109V195.967H132.071V124.8Z" fill="white"/>
<path d="M165.162 175.657V157.221H140.001V196H144.819C156.061 196 165.162 186.899 165.162 175.657Z" fill="white"/>
<path d="M157.075 144.125C157.835 139.437 154.652 135.02 149.964 134.26C145.276 133.499 140.86 136.682 140.099 141.37C139.338 146.058 142.521 150.475 147.209 151.235C151.897 151.996 156.314 148.813 157.075 144.125Z" fill="white"/>
<path d="M77.9015 196C89.5615 196 99.0139 186.548 99.0139 174.888C99.0139 163.227 89.5615 153.775 77.9015 153.775C66.2414 153.775 56.7891 163.227 56.7891 174.888C56.7891 186.548 66.2414 196 77.9015 196Z" fill="white"/>
<path d="M235.659 196H240.477C251.686 196 260.787 186.899 260.787 175.691V124.8H235.626V196H235.659Z" fill="white"/>
<path d="M268.75 177.531V196H293.911V157.221H289.093C277.851 157.221 268.75 166.322 268.75 177.531Z" fill="white"/>
<path d="M293.777 144.11C294.538 139.422 291.355 135.005 286.667 134.244C281.979 133.483 277.562 136.667 276.801 141.355C276.041 146.042 279.224 150.459 283.912 151.22C288.6 151.981 293.016 148.797 293.777 144.11Z" fill="white"/>
<path d="M206.65 196C218.311 196 227.763 186.548 227.763 174.888C227.763 163.227 218.311 153.775 206.65 153.775C194.99 153.775 185.538 163.227 185.538 174.888C185.538 186.548 194.99 196 206.65 196Z" fill="white"/>
</g>
<defs>
<clipPath id="clip0_2717_331">
<rect width="237.121" height="71.2" fill="white" transform="translate(56.7891 124.8)"/>
</clipPath>
</defs>
</svg>
