<svg width="350" height="320" viewBox="0 0 350 320" fill="none" xmlns="http://www.w3.org/2000/svg">
<g clip-path="url(#clip0_2717_295)">
<path d="M152.958 179.501C151.383 179.501 150.039 178.886 148.964 177.696C148.004 176.621 147.428 175.046 147.236 173.011C146.237 174.24 145.239 175.277 144.24 176.083C143.088 177.005 141.975 177.734 140.823 178.234C139.709 178.733 138.557 179.078 137.405 179.232C136.253 179.386 135.101 179.501 133.949 179.501C132.413 179.501 130.992 179.27 129.648 178.771C128.304 178.272 127.152 177.581 126.115 176.659C125.116 175.737 124.31 174.624 123.734 173.357C123.158 172.089 122.889 170.63 122.889 169.056C122.889 167.481 123.235 166.099 123.964 164.947C124.656 163.833 125.577 162.834 126.729 162.028C127.881 161.222 129.149 160.53 130.608 159.993C132.029 159.455 133.488 158.956 134.986 158.534C136.483 158.111 137.943 157.689 139.363 157.305C140.746 156.921 142.052 156.498 143.127 156.037C144.202 155.577 145.085 155.039 145.738 154.463C146.353 153.887 146.66 153.234 146.66 152.389C146.66 151.391 146.468 150.469 146.084 149.701C145.7 148.933 145.124 148.28 144.432 147.743C143.703 147.205 142.858 146.783 141.821 146.514C140.784 146.245 139.632 146.091 138.403 146.091C137.367 146.091 136.33 146.245 135.408 146.514C134.486 146.783 133.642 147.167 132.874 147.666C132.144 148.165 131.53 148.818 131.03 149.548C130.569 150.277 130.224 151.122 130.109 152.12L130.07 152.389H123.888L123.926 152.082C124.041 150.277 124.54 148.626 125.424 147.205C126.268 145.823 127.382 144.632 128.726 143.672C130.032 142.712 131.568 142.021 133.258 141.522C134.909 141.022 136.675 140.792 138.403 140.792C140.285 140.792 142.128 141.022 143.818 141.483C145.508 141.944 147.044 142.674 148.349 143.634C149.655 144.594 150.692 145.823 151.46 147.282C152.228 148.741 152.612 150.508 152.612 152.466V171.513C152.612 172.396 152.842 173.088 153.265 173.587C153.687 174.086 154.186 174.317 154.801 174.317C155.07 174.317 155.338 174.278 155.607 174.201L155.991 174.086V179.002L155.799 179.078C155.454 179.194 154.993 179.309 154.417 179.386C153.802 179.462 153.342 179.501 152.958 179.501ZM146.621 158.726C145.93 159.34 145.085 159.839 144.125 160.262C142.935 160.799 141.629 161.26 140.247 161.682C138.903 162.105 137.52 162.489 136.138 162.873C134.794 163.257 133.565 163.718 132.451 164.217C131.376 164.716 130.493 165.369 129.801 166.099C129.149 166.79 128.841 167.673 128.841 168.787C128.841 169.785 128.995 170.63 129.341 171.283C129.686 171.974 130.147 172.55 130.685 172.973C131.222 173.433 131.875 173.741 132.566 173.933C133.296 174.125 134.026 174.24 134.755 174.24C136.906 174.24 139.056 173.587 141.13 172.243C143.204 170.937 145.047 168.902 146.621 166.214V158.726Z" fill="white"/>
<path d="M174.5 179.501C172.619 179.501 170.814 179.232 169.124 178.733C167.435 178.234 165.937 177.466 164.631 176.467C163.364 175.469 162.289 174.163 161.521 172.627C160.753 171.091 160.33 169.286 160.253 167.251V166.943H166.398V167.251C166.436 168.518 166.628 169.632 167.05 170.476C167.473 171.36 168.011 172.051 168.74 172.627C169.47 173.165 170.315 173.587 171.236 173.856C172.196 174.125 173.31 174.24 174.462 174.24C175.422 174.24 176.42 174.163 177.457 173.971C178.494 173.779 179.454 173.51 180.337 173.088C181.182 172.665 181.873 172.128 182.45 171.436C182.987 170.745 183.256 169.862 183.256 168.825C183.256 167.865 182.949 167.059 182.373 166.367C181.758 165.676 180.99 165.062 179.992 164.524C178.993 163.987 177.841 163.487 176.574 163.027C175.268 162.566 173.924 162.105 172.58 161.644C171.236 161.145 169.892 160.646 168.587 160.07C167.281 159.494 166.09 158.802 165.054 157.996C164.017 157.19 163.172 156.191 162.519 155.077C161.866 153.964 161.521 152.581 161.521 151.007C161.521 149.356 161.905 147.896 162.596 146.591C163.326 145.323 164.286 144.21 165.476 143.327C166.666 142.443 168.049 141.79 169.585 141.33C171.121 140.869 172.734 140.638 174.424 140.638C176.305 140.638 178.072 140.869 179.685 141.33C181.297 141.79 182.757 142.482 183.947 143.365C185.176 144.248 186.174 145.4 186.904 146.744C187.634 148.088 188.056 149.663 188.133 151.429V151.736H182.066L182.027 151.468C181.912 150.546 181.643 149.74 181.221 149.048C180.798 148.357 180.261 147.781 179.569 147.359C178.878 146.898 178.11 146.552 177.227 146.36C176.344 146.13 175.422 146.015 174.424 146.015C173.272 146.015 172.273 146.168 171.39 146.437C170.507 146.706 169.777 147.09 169.201 147.551C168.625 148.012 168.164 148.549 167.895 149.164C167.588 149.778 167.473 150.392 167.473 151.045C167.473 151.928 167.742 152.658 168.318 153.311C168.932 153.964 169.7 154.578 170.699 155.116C171.697 155.653 172.849 156.153 174.116 156.613C175.384 157.074 176.728 157.535 178.11 158.034C179.454 158.534 180.798 159.071 182.104 159.647C183.41 160.223 184.6 160.914 185.637 161.682C186.674 162.451 187.519 163.372 188.171 164.409C188.824 165.446 189.17 166.713 189.17 168.134C189.17 170.169 188.747 171.897 187.941 173.318C187.135 174.739 186.059 175.929 184.677 176.813C183.333 177.696 181.758 178.387 179.953 178.771C178.264 179.309 176.382 179.501 174.5 179.501Z" fill="white"/>
<path d="M223.847 179.501C222.272 179.501 220.928 178.886 219.853 177.696C218.893 176.621 218.317 175.046 218.125 173.011C217.126 174.24 216.128 175.277 215.13 176.083C213.978 177.005 212.864 177.734 211.712 178.234C210.598 178.733 209.446 179.078 208.294 179.232C207.142 179.386 205.99 179.501 204.838 179.501C203.302 179.501 201.881 179.27 200.537 178.771C199.193 178.272 198.041 177.581 197.004 176.659C196.006 175.737 195.199 174.624 194.623 173.357C194.047 172.089 193.778 170.63 193.778 169.056C193.778 167.481 194.124 166.099 194.854 164.947C195.545 163.833 196.466 162.834 197.618 162.028C198.771 161.222 200.038 160.53 201.497 159.993C202.918 159.455 204.377 158.956 205.875 158.534C207.372 158.111 208.832 157.689 210.253 157.305C211.635 156.921 212.941 156.498 214.016 156.037C215.091 155.577 215.974 155.039 216.627 154.463C217.242 153.887 217.549 153.234 217.549 152.389C217.549 151.391 217.357 150.469 216.973 149.701C216.589 148.933 216.013 148.28 215.322 147.743C214.592 147.205 213.747 146.783 212.71 146.514C211.673 146.245 210.521 146.091 209.293 146.091C208.256 146.091 207.219 146.245 206.297 146.514C205.376 146.783 204.531 147.167 203.763 147.666C203.033 148.165 202.419 148.818 201.919 149.548C201.459 150.277 201.113 151.122 200.998 152.12L200.959 152.389H194.777L194.815 152.082C194.93 150.277 195.43 148.626 196.313 147.205C197.158 145.823 198.271 144.632 199.615 143.672C200.921 142.712 202.457 142.021 204.147 141.522C205.798 141.022 207.564 140.792 209.293 140.792C211.174 140.792 213.018 141.022 214.707 141.483C216.397 141.944 217.933 142.674 219.239 143.634C220.544 144.594 221.581 145.823 222.349 147.282C223.117 148.741 223.501 150.508 223.501 152.466V171.513C223.501 172.358 223.732 173.088 224.154 173.587C224.576 174.086 225.076 174.317 225.69 174.317C225.959 174.317 226.228 174.278 226.496 174.201L226.88 174.086V179.002L226.688 179.078C226.343 179.194 225.882 179.309 225.306 179.386C224.692 179.462 224.231 179.501 223.847 179.501ZM217.51 158.726C216.819 159.34 215.974 159.839 215.014 160.262C213.824 160.799 212.518 161.26 211.136 161.682C209.792 162.105 208.409 162.489 207.027 162.873C205.683 163.257 204.454 163.718 203.34 164.217C202.265 164.716 201.382 165.369 200.691 166.099C200.038 166.79 199.731 167.673 199.731 168.787C199.731 169.785 199.884 170.63 200.23 171.283C200.575 171.974 201.036 172.55 201.574 172.973C202.111 173.433 202.764 173.741 203.456 173.933C204.185 174.125 204.915 174.24 205.644 174.24C207.795 174.24 209.945 173.587 212.019 172.243C214.093 170.937 215.936 168.902 217.51 166.214V158.726Z" fill="white"/>
<path d="M69.7412 170.822C66.9379 170.822 64.6338 168.556 64.6338 165.715C64.6338 162.911 66.8995 160.607 69.7412 160.607C72.5829 160.607 74.8486 162.873 74.8486 165.715C74.8486 168.518 72.5445 170.822 69.7412 170.822Z" fill="white"/>
<path d="M69.7415 180C61.9459 180 55.5713 173.625 55.5713 165.83V155.269C55.5713 147.435 61.9459 141.099 69.7415 141.099C77.5754 141.099 83.9116 147.474 83.9116 155.269V165.83C83.9116 173.625 77.5754 180 69.7415 180ZM69.7415 146.091C64.9413 146.091 61.0243 150.008 61.0243 154.808V166.329C61.0243 171.129 64.9413 175.046 69.7415 175.046C74.5417 175.046 78.4586 171.129 78.4586 166.329V154.808C78.4586 149.97 74.5417 146.091 69.7415 146.091Z" fill="white"/>
<path d="M280.028 179.501C272.31 179.462 265.781 172.781 265.781 164.908V155.154C265.781 147.397 272.233 140.715 279.836 140.6C279.913 140.6 280.028 140.6 280.105 140.6C287.977 140.6 294.429 147.013 294.429 154.924L294.237 162.374H271.541V164.947C271.541 169.632 275.266 173.549 279.836 173.702C279.913 173.702 280.028 173.702 280.105 173.702C283.984 173.702 287.363 171.091 288.361 167.328L288.438 167.097H294.314L294.275 167.443C293.123 174.393 287.209 179.462 280.143 179.462L280.028 179.501ZM288.63 156.806V154.924C288.63 150.2 284.79 146.36 280.067 146.36C279.99 146.36 279.913 146.36 279.836 146.36C275.266 146.476 271.541 150.431 271.541 155.116V156.806H288.63Z" fill="white"/>
<path d="M118.204 149.24L120.854 141.829H114.786L103.957 172.435L100.616 163.065C100.463 162.643 100.309 162.22 100.155 161.798C98.6577 157.497 97.0832 153.042 95.7008 149.24L93.051 141.829H87.1372L89.7869 149.24C90.5165 151.16 91.2078 153.311 92.0142 155.5L96.6224 168.403C96.776 168.825 96.9296 169.248 97.0832 169.67C98.5425 173.817 99.8097 177.35 100.539 179.347L100.616 179.539H107.298L107.375 179.347C107.912 177.85 108.757 175.507 109.756 172.704L118.166 149.279C118.166 149.279 118.166 149.24 118.204 149.24Z" fill="white"/>
<path d="M259.752 149.24L262.402 141.829H256.335L245.505 172.435L242.164 163.065C242.011 162.643 241.857 162.22 241.704 161.798C240.206 157.497 238.632 153.042 237.249 149.24L234.599 141.829H228.686L231.335 149.24C232.065 151.16 232.756 153.311 233.563 155.5L238.171 168.403C238.324 168.825 238.478 169.248 238.632 169.67C240.091 173.817 241.358 177.35 242.088 179.347L242.164 179.539H248.846L248.923 179.347C249.461 177.85 250.306 175.507 251.304 172.704L259.714 149.279L259.752 149.24Z" fill="white"/>
</g>
<defs>
<clipPath id="clip0_2717_295">
<rect width="238.858" height="39.4" fill="white" transform="translate(55.5713 140.6)"/>
</clipPath>
</defs>
</svg>
