<svg width="350" height="320" viewBox="0 0 350 320" fill="none" xmlns="http://www.w3.org/2000/svg">
<g clip-path="url(#clip0_2717_315)">
<path d="M125.867 121.534C129.842 125.224 131.779 130.309 131.779 136.791C131.779 143.322 129.792 148.408 125.867 152.097C121.893 155.787 116.577 157.632 109.77 157.632H82.1468V171.941H66V116H109.77C116.527 116 121.893 117.845 125.867 121.534ZM105.348 143.821C107.385 143.821 109.025 143.721 110.317 143.472C111.608 143.223 112.701 142.624 113.596 141.577C114.49 140.58 114.937 138.935 114.937 136.741C114.937 134.597 114.49 133.002 113.596 132.005C112.701 131.007 111.608 130.359 110.317 130.11C109.025 129.861 107.385 129.761 105.348 129.761H82.1468V143.771H105.348V143.821Z" fill="white"/>
<path d="M205.458 171.941H188.119L182.803 161.371H148.472L143.156 171.941H125.768L154.484 116H176.791L205.458 171.941ZM165.663 127.368L154.633 149.206H176.642L165.663 127.368Z" fill="white"/>
<path d="M268.953 156.884V116H285.05V171.941H261.401L228.561 131.057V171.941H212.414V116H236.162L268.953 156.884Z" fill="white"/>
<path d="M136.599 196.272V191.236H139.282V203.651H136.599V198.615H126.762V203.651H124.079V191.236H126.762V196.272H136.599Z" fill="white"/>
<path d="M154.038 202.255C152.697 201.108 152.001 199.463 152.001 197.419C152.001 195.374 152.697 193.779 154.038 192.632C155.379 191.486 157.367 190.887 160 190.887C162.633 190.887 164.62 191.486 165.962 192.632C167.303 193.779 167.999 195.374 167.999 197.419C167.999 198.765 167.701 199.961 167.104 200.909C166.508 201.906 165.614 202.654 164.422 203.152C163.229 203.701 161.739 203.95 160 203.95C157.416 204 155.429 203.402 154.038 202.255ZM165.117 197.419C165.117 194.627 163.428 193.231 160 193.231C158.311 193.231 157.019 193.58 156.174 194.278C155.33 194.976 154.883 196.023 154.883 197.419C154.883 200.211 156.572 201.657 160 201.657C163.428 201.607 165.117 200.211 165.117 197.419Z" fill="white"/>
<path d="M200.043 191.236V203.651H197.36V193.679L191.647 203.651H189.163L183.4 193.679V203.651H180.717V191.236H184.94L190.355 200.56L195.771 191.236H200.043Z" fill="white"/>
<path d="M226.226 191.236V193.48H215.942V196.322H225.878V198.565H215.942V201.407H226.226V203.651H213.259V191.236H226.226Z" fill="white"/>
</g>
<defs>
<clipPath id="clip0_2717_315">
<rect width="219" height="88" fill="white" transform="translate(66 116)"/>
</clipPath>
</defs>
</svg>
