<svg width="350" height="320" viewBox="0 0 350 320" fill="none" xmlns="http://www.w3.org/2000/svg">
<g clip-path="url(#clip0_2717_301)">
<path d="M84.9726 206.725L82.5226 202.375H78.653V206.725H77.0273V195.803H82.4997C84.2399 195.803 84.7436 195.849 85.5908 196.422C86.4151 196.971 86.9646 198.024 86.9646 199.101C86.9646 200.108 86.5295 201.07 85.7968 201.688C85.316 202.1 84.881 202.237 84.3772 202.329L86.8501 206.748H84.9726V206.725ZM83.0034 200.726C83.9193 200.726 84.3314 200.703 84.6978 200.429C85.087 200.154 85.3389 199.627 85.3389 199.101C85.3389 197.704 84.1941 197.429 83.2324 197.429H78.653V200.726H83.0034Z" fill="white"/>
<path d="M98.5503 206.725V195.803H107.64V197.429H100.199V200.245H104.114V201.894H100.199V205.1H107.961V206.725H98.5503Z" fill="white"/>
<path d="M129.118 206.725L126.988 199.146L125.019 206.725H123.554L119.822 195.803H121.539L124.195 203.634L126.21 195.803H127.698L129.919 203.634L132.415 195.803H134.109L130.56 206.725H129.118Z" fill="white"/>
<path d="M151.717 206.725L149.999 203.108H145.168L143.497 206.725H141.665L146.886 195.803H148.397L153.526 206.725H151.717ZM149.267 201.482L147.641 197.979L145.97 201.482H149.267Z" fill="white"/>
<path d="M171.545 206.725L169.095 202.375H165.226V206.725H163.6V195.803H169.072C170.813 195.803 171.316 195.849 172.164 196.422C172.988 196.971 173.537 198.024 173.537 199.101C173.537 200.108 173.102 201.07 172.37 201.688C171.889 202.1 171.454 202.237 170.95 202.329L173.446 206.748H171.545V206.725ZM169.576 200.726C170.492 200.726 170.904 200.703 171.271 200.429C171.66 200.154 171.912 199.627 171.912 199.101C171.912 197.704 170.767 197.429 169.805 197.429H165.226V200.726H169.576Z" fill="white"/>
<path d="M184.276 206.725V195.803H189.657C191.832 195.803 193.069 196.971 193.71 197.979C194.465 199.146 194.74 200.497 194.74 201.322C194.74 203.955 192.748 206.748 189.795 206.748H184.276V206.725ZM189.795 205.1C191.741 205.1 193.092 203.085 193.092 201.253C193.092 199.078 191.603 197.429 189.657 197.429H185.902V205.1H189.795Z" fill="white"/>
<path d="M209.669 207C207.356 207 205.822 206.336 204.174 204.665L204.036 204.527L205.204 203.382L205.341 203.52C206.715 204.893 207.814 205.351 209.646 205.351C210.012 205.351 213.195 205.306 213.195 203.428C213.195 202.192 211.821 201.848 210.997 201.825L208.776 201.802C207.425 201.78 206.738 201.642 206.051 201.184C205.318 200.703 204.883 199.856 204.883 198.94C204.883 196.628 207.333 195.574 209.623 195.574C211.34 195.574 212.76 196.055 214.202 197.177L214.363 197.292L213.355 198.574L213.195 198.459C211.936 197.566 210.951 197.223 209.577 197.223C208.409 197.223 206.532 197.681 206.532 198.94C206.532 199.307 206.738 199.673 207.059 199.856C207.494 200.085 207.814 200.154 209.119 200.177L210.676 200.2C211.592 200.2 212.302 200.314 212.897 200.566C214.065 201.047 214.843 202.215 214.843 203.474C214.866 206.244 211.615 207 209.669 207Z" fill="white"/>
<path d="M274.329 148.407C273.505 145.774 271.444 143.713 268.811 142.889C267.368 145.476 264.621 147.216 261.438 147.216C260.568 147.216 259.721 147.079 258.919 146.827C258.255 148.041 257.866 149.437 257.866 150.903C257.866 155.551 261.644 159.329 266.292 159.329C267.826 159.329 269.269 158.917 270.505 158.207C270.253 157.406 270.116 156.558 270.116 155.688C270.116 152.574 271.81 149.85 274.329 148.407Z" fill="white"/>
<path d="M268.742 134.577C271.467 133.776 273.619 131.624 274.443 128.899C271.879 127.456 270.116 124.709 270.116 121.549C270.116 120.725 270.23 119.923 270.459 119.168C269.246 118.481 267.849 118.092 266.361 118.092C261.713 118.092 257.935 121.87 257.935 126.518C257.935 128.052 258.347 129.494 259.079 130.731C259.835 130.502 260.636 130.387 261.461 130.387C264.575 130.364 267.276 132.059 268.742 134.577Z" fill="white"/>
<path d="M266.292 142.5C267.162 142.5 268.009 142.637 268.811 142.889C269.475 141.675 269.864 140.279 269.864 138.813C269.864 137.279 269.452 135.837 268.719 134.6C267.963 134.829 267.162 134.944 266.338 134.944C263.224 134.944 260.499 133.249 259.056 130.753C255.576 131.784 253.012 135.012 253.012 138.836C253.012 142.614 255.485 145.797 258.919 146.873C260.362 144.24 263.132 142.5 266.292 142.5Z" fill="white"/>
<path d="M274.786 126.495C274.786 127.319 274.672 128.12 274.443 128.876C275.657 129.563 277.053 129.952 278.542 129.952C279.984 129.952 281.335 129.586 282.526 128.945C282.32 128.212 282.205 127.434 282.205 126.632C282.205 123.427 283.991 120.633 286.647 119.214C285.64 115.687 282.388 113.1 278.542 113.1C274.718 113.1 271.489 115.642 270.459 119.122C273.046 120.564 274.786 123.335 274.786 126.495Z" fill="white"/>
<path d="M282.526 128.945C283.305 131.715 285.48 133.89 288.228 134.715C289.647 132.082 292.441 130.318 295.623 130.318C296.471 130.318 297.272 130.433 298.028 130.662C298.669 129.471 299.058 128.097 299.058 126.632C299.058 121.984 295.28 118.206 290.632 118.206C289.189 118.206 287.838 118.572 286.648 119.214C286.854 119.946 286.968 120.725 286.968 121.526C286.968 124.732 285.16 127.525 282.526 128.945Z" fill="white"/>
<path d="M288.204 142.706C285.502 143.484 283.35 145.591 282.503 148.27C285.159 149.689 286.968 152.483 286.968 155.711C286.968 156.581 286.83 157.451 286.579 158.23C287.769 158.871 289.12 159.214 290.54 159.214C295.188 159.214 298.966 155.436 298.966 150.788C298.966 149.346 298.599 147.995 297.981 146.827C297.226 147.033 296.447 147.148 295.646 147.148C292.417 147.148 289.624 145.362 288.204 142.706Z" fill="white"/>
<path d="M304.049 138.722C304.049 134.898 301.508 131.692 298.027 130.639C296.608 133.272 293.814 135.035 290.632 135.035C289.785 135.035 288.983 134.921 288.228 134.692C287.587 135.882 287.197 137.256 287.197 138.722C287.197 140.164 287.564 141.515 288.182 142.683C288.937 142.477 289.716 142.362 290.517 142.362C293.723 142.362 296.516 144.171 297.936 146.804C301.485 145.797 304.049 142.568 304.049 138.722Z" fill="white"/>
<path d="M282.114 150.788C282.114 149.918 282.251 149.048 282.503 148.269C281.312 147.628 279.961 147.285 278.542 147.285C277.008 147.285 275.565 147.697 274.329 148.407C274.581 149.208 274.718 150.055 274.718 150.926C274.718 154.039 273.024 156.764 270.505 158.23C271.581 161.641 274.764 164.137 278.542 164.137C282.32 164.137 285.502 161.664 286.578 158.253C283.922 156.81 282.114 154.017 282.114 150.788Z" fill="white"/>
<path d="M47.192 163.13L61.5712 164.412C60.1058 169.495 62.3039 172.563 67.3183 172.563C71.0047 172.563 73.2028 170.754 73.2028 167.823C73.2028 156.581 47.65 166.083 47.65 152.437C47.65 145.888 54.8625 141.858 66.723 141.858C81.1023 141.858 88.5208 148.407 85.4527 158.39L71.8748 157.176C73.0884 153.421 71.0734 151.017 66.723 151.017C62.8993 151.017 61.1133 152.62 61.1133 155.505C61.1133 160.016 65.5553 161.069 70.73 161.71C77.9654 162.603 86.6662 162.717 86.6662 170.434C86.6662 177.188 78.7668 181.745 66.9291 181.745C51.6569 181.722 44.2383 174.761 47.192 163.13Z" fill="white"/>
<path d="M92.1846 165.122V142.522H106.358V160.519C106.358 166.404 107.686 170.273 113.044 170.273C118.585 170.273 121.401 166.266 121.401 159.649V142.522H135.574V180.989H121.401V166.953H121.057C119.18 177.257 115.768 181.676 106.152 181.676C95.9168 181.653 92.1846 173.891 92.1846 165.122Z" fill="white"/>
<path d="M171.087 142.522H185.26V155.436H185.604C186.932 144.194 193.823 141.858 200.464 141.858H201.128V155.024C199.914 154.612 196.113 154.36 194.373 154.36C186.222 154.36 185.283 157.497 185.283 162.717V180.966H171.11V142.522H171.087Z" fill="white"/>
<path d="M230.893 170.273H230.55C227.802 177.898 222.65 181.653 214.774 181.653C207.745 181.653 203.211 177.829 203.211 171.945C203.211 157.291 230.893 164.847 230.893 155.963C230.893 153.559 229.016 152.276 225.146 152.276C220.2 152.276 217.521 155.024 219.124 158.573L205.752 159.649C202.41 149.414 210.698 141.858 225.283 141.858C239.205 141.858 245.341 147.079 245.341 158.779V180.989H230.893V170.273ZM223.543 173.822C227.825 173.822 230.893 170.136 230.893 164.916V158.756C228.077 162.695 218.392 161.298 218.392 168.579C218.392 171.945 220.246 173.822 223.543 173.822Z" fill="white"/>
<path d="M155.22 136.913C155.472 135.974 156.158 135.15 157.235 134.875C158.517 134.531 159.936 134.966 160.99 135.608C162.982 136.844 164.722 138.538 166.554 140.004C166.554 140.004 166.599 140.004 167.172 138.584L170.309 131.074L170.263 131.051C169.095 130.387 167.744 129.815 166.256 129.334C164.768 128.876 163.188 128.532 161.585 128.349C159.158 128.074 156.708 128.143 154.556 128.578C151.968 129.082 149.839 130.021 148.167 131.394C145.901 133.272 144.664 136.134 144.664 139.477V142.385H140.451V144.354H144.664V180.989H158.952V144.354H167.218V142.385H160.921C158.059 142.293 156.113 140.828 155.426 139.248C155.128 138.493 155.036 137.645 155.22 136.913Z" fill="white"/>
</g>
<defs>
<clipPath id="clip0_2717_301">
<rect width="257.498" height="93.9" fill="white" transform="translate(46.5508 113.1)"/>
</clipPath>
</defs>
</svg>
