<svg width="350" height="320" viewBox="0 0 350 320" fill="none" xmlns="http://www.w3.org/2000/svg">
<path d="M295.922 150.748C295.43 150.748 295.026 150.344 295.026 149.851C295.026 149.57 295.149 149.341 295.342 149.166L305.979 140.569V133.097H285.972L282.385 143.364C282.245 143.751 281.946 144.05 281.524 144.05C281.154 144.05 280.82 143.821 280.697 143.487L277.093 133.114L267.775 133.132L274.456 151.838C275.898 156.251 280.029 159.451 284.899 159.538H305.979V150.766C305.979 150.748 295.922 150.748 295.922 150.748Z" fill="white"/>
<path d="M148.875 159.644H156.857V186.244H148.875V183.748C147.275 185.928 144.726 187 141.262 187C138.449 187 136.041 186.051 134.124 184.082C132.261 182.112 131.312 179.458 131.312 175.994V159.644H139.293V174.816C139.293 177.963 141.21 179.651 143.917 179.651C146.959 179.651 148.857 177.788 148.857 174.166V159.644H148.875Z" fill="white"/>
<path d="M220.219 186.244H212.237V159.644H220.219V162.14C221.819 159.96 224.368 158.888 227.832 158.888C230.645 158.888 233.053 159.837 234.969 161.806C236.833 163.775 237.782 166.43 237.782 169.894V186.226H229.801V171.054C229.801 167.907 227.884 166.219 225.177 166.219C222.135 166.219 220.237 168.083 220.237 171.704V186.244H220.219Z" fill="white"/>
<path d="M128.64 167.239V159.574H123.154V152.119L115.173 154.51V159.574H110.918V167.239H115.173V176.662C115.173 180.548 116.122 183.202 118.091 184.75C120.06 186.244 123.576 186.719 128.622 186.191V178.948C124.737 179.159 123.137 178.79 123.137 176.662V167.239H128.64Z" fill="white"/>
<path d="M100.264 164.373C101.108 160.699 105.556 159.644 108.246 159.644V168.153C106.277 167.837 104.466 168.153 102.76 169.173C101.108 170.122 100.264 171.828 100.264 174.236V186.262H92.2822V159.644H100.264V164.373Z" fill="white"/>
<path d="M195.464 186.982C191.526 186.982 188.168 185.646 185.461 182.939C182.753 180.231 181.364 176.873 181.364 172.935C181.364 168.997 182.753 165.692 185.461 162.984C188.168 160.277 191.526 158.888 195.464 158.888C199.402 158.888 202.76 160.277 205.468 162.984C208.175 165.692 209.564 168.997 209.564 172.935C209.564 176.873 208.175 180.231 205.468 182.939C202.743 185.664 199.402 186.982 195.464 186.982ZM195.464 179.212C197.222 179.212 198.664 178.631 199.824 177.453C201.002 176.275 201.582 174.799 201.582 172.935C201.582 171.072 201.002 169.577 199.824 168.417C198.646 167.239 197.222 166.659 195.464 166.659C193.706 166.659 192.264 167.239 191.104 168.417C189.926 169.595 189.346 171.072 189.346 172.935C189.346 174.799 189.926 176.293 191.104 177.453C192.264 178.631 193.706 179.212 195.464 179.212Z" fill="white"/>
<path d="M248.647 176.135C249.543 178.631 251.688 179.862 255.029 179.862C257.209 179.862 258.914 179.176 260.145 177.84L266.527 181.515C263.925 185.189 260.039 187 254.923 187C250.458 187 246.889 185.664 244.181 183.009C241.527 180.354 240.19 176.996 240.19 172.953C240.19 168.962 241.527 165.604 244.129 162.949C246.783 160.242 250.194 158.906 254.343 158.906C258.228 158.906 261.428 160.242 263.977 162.949C266.579 165.604 267.863 168.962 267.863 172.953C267.863 174.078 267.757 175.133 267.546 176.152H248.647V176.135ZM259.916 170.175C259.125 167.362 257.262 165.973 254.273 165.973C251.179 165.973 249.28 167.362 248.471 170.175H259.916Z" fill="white"/>
<path d="M172.082 178.807C172.082 178.807 172.047 178.807 172.012 178.807C171.344 178.807 170.816 178.262 170.816 177.612C170.816 177.313 170.922 177.049 171.098 176.838L179.783 164.971V159.644H159.529V167.098L169.111 167.081L159.002 180.952V186.279H180.31V178.807H172.082Z" fill="white"/>
<path d="M81.8391 156.075C79.9755 154.159 79.9755 151.188 81.8391 149.324C83.7554 147.408 86.7266 147.408 88.5902 149.324C90.5065 151.188 90.5065 154.159 88.5902 156.075C86.7266 157.939 83.7554 157.939 81.8391 156.075ZM81.2589 186.367V159.785H89.2407V186.367H81.2589Z" fill="white"/>
<path d="M70.4114 149.166L63.3262 173.744C63.1504 174.271 62.7285 174.693 62.1659 174.693C61.5857 174.693 61.1462 174.307 61.0056 173.744L53.9204 149.166H44.6201L56.7334 186.367H67.5808L79.6941 149.148H70.4114V149.166Z" fill="white"/>
</svg>
