<svg width="771" height="297" viewBox="0 0 771 297" fill="none" xmlns="http://www.w3.org/2000/svg">
<path d="M227.51 236.79H192.8V291H145.61V236.79H0.92V193.11L130.01 5.91H192.8V193.11H227.51V236.79ZM53.96 193.11H145.61V59.73L53.96 193.11ZM266.699 149.04C266.699 60.51 314.279 0.449975 387.209 0.449975C460.139 0.449975 508.109 60.51 508.109 149.04C508.109 237.18 462.869 296.07 387.209 296.07C311.549 296.07 266.699 237.18 266.699 149.04ZM315.839 149.04C315.839 214.95 342.359 252 387.209 252C432.449 252 458.969 214.95 458.969 149.04C458.969 81.57 432.449 44.52 387.209 44.52C342.359 44.52 315.839 81.57 315.839 149.04ZM770.219 236.79H735.509V291H688.319V236.79H543.629V193.11L672.719 5.91H735.509V193.11H770.219V236.79ZM596.669 193.11H688.319V59.73L596.669 193.11Z" fill="#B5B5B5" fill-opacity="0.2"/>
</svg>
