<svg width="300" height="93" viewBox="0 0 300 93" fill="none" xmlns="http://www.w3.org/2000/svg">
<path d="M219.001 23.2217L200.482 23.2219L220.001 74.0004H237L219.001 23.2217Z" fill="white"/>
<path d="M239.847 23.2217L258.365 23.2219L238.847 74.0004H221.848L239.847 23.2217Z" fill="white"/>
<path d="M279.847 23.2217L298.365 23.2219L286.645 52.0001H269.646L279.847 23.2217Z" fill="white"/>
<path d="M258.099 23.2217L239.58 23.2219L259.099 74.0004H276.098L258.099 23.2217Z" fill="white"/>
<path d="M46.3805 23.2217H64.6514L37.5016 85.5001L17.5 85.5002L46.3805 23.2217Z" fill="white"/>
<path d="M18.271 23.2174L0 23.2173L13.5191 52.5001H32.5176L18.271 23.2174Z" fill="white"/>
<path d="M129 0H110V75H129V0Z" fill="white"/>
<path d="M153 0H134V75H153V0Z" fill="white"/>
<path fill-rule="evenodd" clip-rule="evenodd" d="M181 75C197.569 75 211 62.4639 211 47C211 31.5361 197.569 19 181 19C164.431 19 151 31.5361 151 47C151 62.4639 164.431 75 181 75ZM181 59C188.18 59 194 53.6274 194 47C194 40.3726 188.18 35 181 35C173.82 35 168 40.3726 168 47C168 53.6274 173.82 59 181 59Z" fill="white"/>
<path fill-rule="evenodd" clip-rule="evenodd" d="M73 54H111V38.5C109.333 33 101.4 22 83 22C64.6 22 56.6667 38 55 46C55 55.8333 60.6 75.5 83 75.5C105.4 75.5 111 64.1667 111 58.5H93.5C93 59.6667 90.2 62 83 62C75.8 62 73.3333 56.6667 73 54ZM72.5 44H95C94.8333 41.3333 92.4 36 84 36C75.6 36 72.8333 41.3333 72.5 44Z" fill="white"/>
</svg>
