<svg width="39" height="28" viewBox="0 0 39 28" fill="none" xmlns="http://www.w3.org/2000/svg">
<path d="M35.8804 27.9999C24.9653 27.9999 14.0578 27.9999 3.14264 27.9999C3.074 27.9779 3.01297 27.9414 2.9367 27.9268C1.251 27.6197 0.0229492 26.2234 0.0229492 24.5785C0.0229492 19.11 0.0229492 13.6416 0.0229492 8.17323C0.0229492 8.07088 0.0382045 7.97584 0.0458321 7.85156C0.122108 7.88812 0.152619 7.91005 0.183129 7.92467C5.47669 11.3022 10.7626 14.6871 16.0562 18.0646C18.3063 19.5048 20.7014 19.5048 22.9516 18.0719C28.1612 14.7456 33.3633 11.4192 38.5729 8.09282C38.7102 8.00509 38.8551 7.93929 38.9924 7.86618C38.9924 13.6051 38.9924 19.344 38.9924 25.0829C38.9619 25.1633 38.9314 25.2364 38.9085 25.3168C38.6644 26.2526 38.1381 27.0056 37.261 27.4808C36.8414 27.7147 36.3457 27.8317 35.8804 27.9999Z" fill="#A6A6A6"/>
<path d="M39.0003 2.90966C39.0003 3.2752 39.0003 3.64073 39.0003 4.00627C38.7333 4.96397 38.2146 5.73159 37.3298 6.29452C32.0973 9.62089 26.8724 12.9692 21.6398 16.3029C20.2135 17.2094 18.7947 17.2021 17.376 16.2956C16.8192 15.9373 16.2547 15.5791 15.6979 15.2282C11.0069 12.2308 6.31594 9.23342 1.62496 6.23603C0.0612979 5.24178 -0.449752 3.42872 0.427424 1.86423C1.13679 0.606788 2.27331 0 3.76069 0C14.2639 0 24.7671 0 35.2704 0C35.3466 0 35.4229 0 35.4992 0C37.0324 0.0950392 38.1231 0.811488 38.7409 2.15666C38.8554 2.39791 38.9164 2.6611 39.0003 2.90966Z" fill="#A6A6A6"/>
</svg>
