<svg width="52" height="52" viewBox="0 0 52 52" fill="none" xmlns="http://www.w3.org/2000/svg">
<path d="M27.5255 38.3578C25.9796 38.3578 24.4338 38.3578 22.888 38.3578C22.888 38.2484 22.8724 38.139 22.8724 38.0296C22.8724 34.3881 22.8724 30.7467 22.8724 27.1053C22.8724 26.9959 22.8724 26.9021 22.8724 26.7771C21.5608 26.7771 20.2804 26.7771 19 26.7771C19 25.2611 19 23.7764 19 22.2605C20.296 22.2605 21.5764 22.2605 22.8724 22.2605C22.8724 22.1355 22.8724 22.0417 22.8724 21.9635C22.8724 21.0102 22.8568 20.0569 22.8724 19.1192C22.888 18.5097 22.9192 17.9002 23.0441 17.3063C23.4969 14.9776 25.1833 13.4148 27.5255 13.0866C28.6653 12.9303 29.7895 13.0241 30.9294 13.071C31.3197 13.0866 31.7257 13.1491 32.1161 13.196C32.1161 14.54 32.1161 15.8685 32.1161 17.2125C31.1168 17.2281 30.1174 17.2125 29.1337 17.2594C28.3218 17.2906 27.8221 17.7282 27.6191 18.4784C27.5723 18.6659 27.5411 18.8691 27.5411 19.0567C27.5255 20.0725 27.5255 21.0884 27.5255 22.1042C27.5255 22.1511 27.5411 22.2136 27.5567 22.2917C29.0244 22.2917 30.4922 22.2917 31.9756 22.2917C31.7882 23.8077 31.5852 25.2924 31.3978 26.7927C30.1018 26.7927 28.8214 26.7927 27.5411 26.7927C27.5411 26.9178 27.5411 26.9959 27.5411 27.0897C27.5411 30.7467 27.5411 34.4194 27.5411 38.0764C27.5098 38.1702 27.5255 38.264 27.5255 38.3578Z" fill="#111111"/>
</svg>
