<svg width="37" height="36" viewBox="0 0 37 36" fill="none" xmlns="http://www.w3.org/2000/svg">
<path d="M12.8072 35.3548C12.7917 35.2159 12.7686 35.0769 12.7686 34.938C12.7686 27.2802 12.7686 19.6146 12.7686 11.9568C12.7686 11.8178 12.7686 11.6789 12.7686 11.5091C15.4241 11.5091 18.0487 11.5091 20.7043 11.5091C20.7043 12.5975 20.7043 13.6783 20.7043 14.7667C20.7352 14.7822 20.7583 14.7976 20.7892 14.813C20.9127 14.6664 21.0362 14.5197 21.1675 14.3807C22.6496 12.7287 24.3711 11.4087 26.602 11.0536C30.2688 10.4824 34.4374 11.895 36.1434 16.4882C36.5835 17.6847 36.8382 18.9199 36.9231 20.1936C36.9308 20.3171 36.9694 20.4406 37.0003 20.5641C37.0003 25.4969 37.0003 30.422 37.0003 35.3548C34.3525 35.3548 31.7124 35.3548 29.0646 35.3548C29.0646 35.185 29.0569 35.0229 29.0569 34.8531C29.0569 30.8543 29.0646 26.8479 29.0492 22.8491C29.0414 22.0617 28.972 21.2589 28.833 20.4792C28.3775 17.9858 26.4168 16.7352 23.9542 17.3296C22.225 17.7465 20.766 19.5297 20.7506 21.3438C20.7274 25.991 20.7352 30.6305 20.7352 35.2776C20.7352 35.3008 20.7429 35.3317 20.7506 35.3548C18.0951 35.3548 15.455 35.3548 12.8072 35.3548Z" fill="#A6A6A6"/>
<path d="M0.478818 35.355C0.471098 35.2006 0.463379 35.0462 0.463379 34.8918C0.463379 27.2571 0.463379 19.6147 0.463379 11.9801C0.463379 11.8257 0.463379 11.679 0.463379 11.5015C3.1112 11.5015 5.72813 11.5015 8.41455 11.5015C8.41455 19.4526 8.41455 27.4038 8.41455 35.355C5.77445 35.355 3.12663 35.355 0.478818 35.355Z" fill="#A6A6A6"/>
<path d="M4.59731e-05 4.12196C0.00776555 2.05311 1.40501 0.416562 3.45842 0.0923393C4.79391 -0.116089 6.08308 -0.00801527 7.21014 0.794821C8.62282 1.80609 9.13231 3.24965 8.83897 4.91708C8.54562 6.60767 7.44944 7.64981 5.80517 8.08211C4.70127 8.37545 3.59737 8.32913 2.52435 7.91228C0.957274 7.29471 -0.00767361 5.83571 4.59731e-05 4.12196Z" fill="#A6A6A6"/>
</svg>
