<svg width="52" height="52" viewBox="0 0 52 52" fill="none" xmlns="http://www.w3.org/2000/svg">
<path d="M22.7227 36.8454C22.7227 32.1096 22.7227 27.3877 22.7227 22.6519C22.7227 22.5398 22.7227 22.4277 22.7227 22.2876C24.1658 22.2876 25.595 22.2876 27.0662 22.2876C27.0662 22.9321 27.0662 23.5766 27.0662 24.2352C27.3744 23.8709 27.6407 23.5066 27.9629 23.1983C28.7616 22.4417 29.7283 22.0494 30.8072 21.9513C31.746 21.8672 32.6847 21.9373 33.5955 22.2175C35.0807 22.6939 36.0054 23.7307 36.3978 25.2019C36.5939 25.9586 36.664 26.7572 36.7901 27.5278C36.8181 27.682 36.8321 27.8361 36.8461 28.0042C36.8461 30.9326 36.8461 33.875 36.8461 36.8034C35.3469 36.8034 33.8337 36.8034 32.3064 36.8034C32.3064 36.6773 32.3064 36.5652 32.3064 36.4671C32.3064 34.0571 32.3205 31.6612 32.2924 29.2512C32.2924 28.6628 32.2084 28.0603 32.0823 27.4858C31.9141 26.7012 31.4517 26.1407 30.6251 25.9586C30.2888 25.8885 29.9385 25.8745 29.5882 25.9025C28.4533 25.9866 27.7107 26.5891 27.4585 27.696C27.3184 28.3265 27.2483 28.999 27.2483 29.6435C27.2203 32.0535 27.2343 34.4495 27.2343 36.8594C25.7491 36.8454 24.2359 36.8454 22.7227 36.8454Z" fill="#111111"/>
<path d="M15.3652 36.8449C15.3652 33.7764 15.3652 30.722 15.3652 27.6535C15.3652 25.9721 15.3652 24.2767 15.3652 22.5954C15.3652 22.4973 15.3652 22.3992 15.3652 22.2871C16.8785 22.2871 18.3637 22.2871 19.8909 22.2871C19.8909 22.3992 19.8909 22.5113 19.8909 22.6234C19.8909 27.3172 19.8909 32.025 19.8909 36.7188C19.8909 36.7609 19.8909 36.8029 19.8909 36.8449C18.3917 36.8449 16.8785 36.8449 15.3652 36.8449Z" fill="#111111"/>
<path d="M20.2407 17.6486C20.2127 19.1339 19.0077 20.2968 17.5506 20.2548C16.1494 20.2267 14.9725 18.9937 15.0005 17.5646C15.0285 16.1354 16.2475 14.9725 17.6767 15.0005C19.1198 15.0425 20.2688 16.2195 20.2407 17.6486Z" fill="#111111"/>
</svg>
