<svg width="244" height="23" viewBox="0 0 244 23" fill="none" xmlns="http://www.w3.org/2000/svg">
<path d="M0.898438 21.8657V1.40522H12.4134C13.5867 1.39006 14.755 1.56238 15.874 1.91565C16.8191 2.22468 17.699 2.7057 18.4694 3.33447C19.1917 3.90497 19.782 4.62511 20.1996 5.4454C20.5935 6.25352 20.7948 7.14186 20.7879 8.04081C20.7987 8.94018 20.5971 9.82939 20.1996 10.6362C19.7892 11.4395 19.1967 12.1357 18.4694 12.6693C17.6916 13.2641 16.8121 13.7126 15.874 13.993C14.7516 14.3286 13.5848 14.492 12.4134 14.4774H6.35745V21.9003L0.898438 21.8657ZM11.5483 10.9563C12.7466 11.0579 13.9442 10.7532 14.9483 10.0912C15.2811 9.83158 15.5483 9.49755 15.7286 9.11592C15.9089 8.73428 15.9972 8.31568 15.9864 7.89374C15.9946 7.48208 15.9047 7.07438 15.7242 6.70433C15.5437 6.33427 15.2777 6.01247 14.9483 5.7655C13.9405 5.11208 12.7458 4.80809 11.5483 4.90037H6.35745V10.9044L11.5483 10.9563Z" fill="#111111"/>
<path d="M35.0907 21.8658L33.4383 17.6439H23.8094L21.9666 21.8658H16.1875L25.505 1.40527H31.8292L41.0256 21.8658H35.0907ZM28.5849 5.99915L25.2455 14.166H31.8724L28.5849 5.99915Z" fill="#111111"/>
<path d="M62.3246 14.8405C62.0545 15.9656 61.5889 17.0344 60.949 17.9983C60.317 18.9491 59.5131 19.7736 58.5785 20.4293C57.5661 21.1348 56.4434 21.6669 55.2564 22.0039C53.9001 22.3873 52.4958 22.5738 51.0864 22.5576C49.47 22.5702 47.8606 22.3428 46.3109 21.8828C44.9082 21.469 43.6042 20.7743 42.4783 19.841C41.3946 18.9277 40.5286 17.7838 39.9435 16.493C39.3021 15.0299 38.9891 13.4442 39.0264 11.8472C39.0096 10.2486 39.3034 8.66198 39.8916 7.17543C40.42 5.83239 41.2486 4.62798 42.3139 3.65433C43.4199 2.67229 44.7154 1.92736 46.1205 1.46553C47.7482 0.934246 49.4522 0.674122 51.1643 0.695561C52.6574 0.678176 54.1455 0.87038 55.5851 1.26655C56.8185 1.60288 57.9877 2.14075 59.0457 2.8584C59.9432 3.48768 60.7052 4.29084 61.2864 5.22023C61.8379 6.09988 62.1921 7.08867 62.3246 8.11843H56.8655C56.5221 6.97828 55.7665 6.0068 54.746 5.39325C53.6819 4.74197 52.4549 4.40598 51.2075 4.4243C48.9236 4.4243 47.2539 5.0645 46.1725 6.35355C45.0241 7.86791 44.4535 9.74219 44.5633 11.6395C44.4446 13.5432 45.0091 15.4268 46.1551 16.9515C46.7548 17.6105 47.4961 18.125 48.3232 18.4562C49.1504 18.7874 50.0419 18.9266 50.9307 18.8634C52.3091 18.9309 53.6747 18.5713 54.8411 17.8339C55.8493 17.1151 56.5673 16.0596 56.8655 14.8578L62.3246 14.8405Z" fill="#111111"/>
<path d="M79.2654 21.8658L71.4791 12.652L68.5723 14.9014V21.8225H63.2344V1.40527H68.6155V9.72789L78.5992 1.40527H85.6847L75.3895 9.477L85.9096 21.8658H79.2654Z" fill="#111111"/>
<path d="M101.915 21.8648L100.263 17.6429H90.6336L88.7908 21.8648H83.0117L92.3292 1.4043H98.662L107.858 21.8648H101.915ZM95.4351 5.99817L92.0957 14.1651H98.662L95.4351 5.99817Z" fill="#111111"/>
<path d="M126.023 21.8647L125.901 19.8317C125.123 20.798 124.066 21.5017 122.873 21.8474C121.328 22.3569 119.708 22.6026 118.081 22.5741C116.407 22.5993 114.745 22.2905 113.193 21.6657C111.802 21.1027 110.533 20.2774 109.455 19.2347C108.434 18.2359 107.625 17.0412 107.076 15.7223C106.52 14.4199 106.226 13.0204 106.211 11.6042C106.217 10.1479 106.511 8.70726 107.076 7.36503C107.628 6.04769 108.46 4.86667 109.516 3.90449C110.676 2.85683 112.04 2.05882 113.521 1.55997C115.318 0.954889 117.206 0.662274 119.101 0.694829C120.559 0.686197 122.013 0.860587 123.427 1.21391C124.672 1.52094 125.864 2.01073 126.966 2.66734C127.918 3.22885 128.748 3.97614 129.405 4.86479C130.011 5.6916 130.384 6.66538 130.487 7.68513H124.967C124.879 7.19021 124.661 6.72754 124.336 6.34417C123.974 5.90404 123.534 5.53449 123.038 5.2541C122.466 4.92491 121.852 4.67464 121.212 4.51008C120.509 4.32667 119.785 4.23364 119.058 4.23324C118.092 4.18853 117.126 4.33603 116.218 4.6672C115.309 4.99837 114.475 5.50662 113.764 6.16249C112.44 7.44289 111.774 9.31159 111.774 11.7513C111.776 12.6158 111.917 13.4743 112.189 14.2948C112.462 15.1442 112.903 15.9298 113.487 16.6047C114.114 17.3211 114.887 17.8961 115.753 18.2917C116.787 18.7398 117.906 18.9583 119.032 18.9319C119.879 18.9382 120.722 18.8157 121.533 18.5686C122.261 18.3413 122.948 17.9964 123.566 17.5477C124.115 17.1455 124.577 16.6364 124.924 16.051C125.25 15.5076 125.42 14.8852 125.417 14.2515H119.638V10.791H130.521V21.8647H126.023Z" fill="#111111"/>
<path d="M132.469 21.8667V1.40625H137.936V21.8667H132.469Z" fill="#111111"/>
<path d="M156.114 21.8658L144.945 8.11873V21.8658H139.875V1.40527H145.654L156.036 14.564V1.40527H161.149V21.8658H156.114Z" fill="#111111"/>
<path d="M182.299 21.8648L182.187 19.8317C181.408 20.7981 180.351 21.5018 179.159 21.8475C177.613 22.3564 175.993 22.602 174.366 22.5742C172.689 22.5994 171.025 22.2906 169.469 21.6658C168.081 21.1028 166.815 20.2774 165.74 19.2348C164.716 18.2383 163.907 17.043 163.361 15.7224C162.801 14.4211 162.507 13.021 162.496 11.6043C162.498 10.1476 162.792 8.70612 163.361 7.36513C163.906 6.04641 164.737 4.86465 165.792 3.90458C166.957 2.85869 168.323 2.06098 169.807 1.56006C171.603 0.95432 173.491 0.661687 175.387 0.694928C176.845 0.686295 178.298 0.860686 179.712 1.21401C180.957 1.52103 182.15 2.01083 183.251 2.66744C184.199 3.23138 185.025 3.97838 185.682 4.86489C186.287 5.6917 186.661 6.66548 186.763 7.68523H181.252C181.164 7.19031 180.946 6.72764 180.621 6.34427C180.259 5.90414 179.819 5.53459 179.323 5.2542C178.748 4.92505 178.131 4.6748 177.489 4.51018C176.789 4.32619 176.067 4.23314 175.343 4.23334C174.377 4.18766 173.411 4.33471 172.502 4.66593C171.593 4.99715 170.759 5.50591 170.049 6.16259C168.716 7.44299 168.059 9.31169 168.059 11.7514C168.062 12.6159 168.202 13.4744 168.474 14.2949C168.755 15.1736 169.218 15.9836 169.832 16.6721C170.446 17.3607 171.198 17.9125 172.039 18.2918C173.069 18.7403 174.185 18.9588 175.309 18.932C176.156 18.939 176.999 18.8164 177.809 18.5686C178.538 18.3428 179.225 17.9979 179.842 17.5478C180.393 17.148 180.856 16.6384 181.2 16.0511C181.526 15.5077 181.697 14.8853 181.693 14.2516H175.923V10.7911H186.806V21.8648H182.299Z" fill="#111111"/>
<path d="M199.879 21.095L202.215 13.032H203.253L200.467 22.3235H199.36L196.877 14.0961L194.368 22.3235H193.252L190.492 13.0146H191.504L193.823 21.095L196.306 13.032H197.431L199.879 21.095Z" fill="#111111"/>
<path d="M209.205 12.8081C212.545 12.8081 214.232 14.9969 214.232 17.7221C214.178 19.0067 213.63 20.2208 212.702 21.1108C211.774 22.0008 210.538 22.4977 209.253 22.4977C207.967 22.4977 206.731 22.0008 205.803 21.1108C204.875 20.2208 204.327 19.0067 204.274 17.7221C204.235 17.065 204.335 16.4071 204.57 15.792C204.804 15.1768 205.166 14.6184 205.632 14.1538C206.098 13.6892 206.658 13.3289 207.274 13.0969C207.89 12.8649 208.548 12.7665 209.205 12.8081ZM213.228 17.7221C213.228 15.1267 211.697 13.5608 209.231 13.5608C206.489 13.5608 205.286 15.5679 205.286 17.7221C205.286 19.8763 206.471 21.8661 209.266 21.8661C212.06 21.8661 213.228 19.8676 213.228 17.6961V17.7221Z" fill="#111111"/>
<path d="M217.243 18.1096V22.3228H216.23V13.0312H220.418C222.762 13.0312 224.051 13.758 224.051 15.4709C224.051 16.6475 223.55 17.2704 222.321 17.7462C223.584 18.1269 223.662 19.2862 223.688 20.2724C223.74 21.6826 223.87 22.0633 224.138 22.245V22.3228H223.022C222.607 21.6913 222.71 19.9437 222.546 19.2343C222.312 18.2221 221.439 18.0923 220.426 18.0923L217.243 18.1096ZM220.383 17.3569C221.888 17.3569 223.048 16.8205 223.048 15.5142C223.048 14.2078 221.793 13.7839 220.452 13.7839H217.251V17.3569H220.383Z" fill="#111111"/>
<path d="M226.145 22.3228V13.0312H227.157V21.5875H232.893V22.3228H226.145Z" fill="#111111"/>
<path d="M234.406 22.3241V13.0325H238.057C239.201 12.9355 240.348 13.1794 241.353 13.7333C242.763 14.5984 243.135 16.4325 243.135 17.6696C243.169 18.3145 243.073 18.9595 242.851 19.5661C242.63 20.1727 242.288 20.7282 241.846 21.1994C240.781 22.0593 239.419 22.4636 238.057 22.3241H234.406ZM235.418 21.5714H237.832C238.69 21.6206 239.547 21.4757 240.341 21.1475C241.769 20.5159 242.123 18.9241 242.123 17.6869C242.123 16.4498 241.786 14.8493 240.281 14.1485C239.497 13.8672 238.663 13.7494 237.832 13.8025H235.418V21.5714Z" fill="#111111"/>
<path d="M195.197 1.30894C198.658 1.30894 200.388 3.54964 200.388 6.35268C200.426 7.0301 200.319 7.70778 200.073 8.34025C199.827 8.97273 199.449 9.54537 198.964 10.0198C198.479 10.4942 197.898 10.8594 197.261 11.0908C196.623 11.3223 195.943 11.4147 195.267 11.3618C191.875 11.3618 190.154 9.09516 190.154 6.35268C190.112 5.67946 190.214 5.00506 190.452 4.37419C190.691 3.74333 191.061 3.17042 191.538 2.69346C192.015 2.21651 192.588 1.84641 193.219 1.60771C193.85 1.36901 194.524 1.26717 195.197 1.30894ZM199.333 6.35268C199.333 3.69671 197.758 2.07891 195.232 2.07891C192.412 2.07891 191.175 4.13793 191.175 6.35268C191.175 8.56743 192.394 10.5919 195.258 10.5919C198.122 10.5919 199.333 8.57608 199.333 6.35268Z" fill="#111111"/>
<path d="M202.32 11.0761V1.55957H209.397V2.32954H203.341V5.79009H208.826V6.56006H203.341V11.0761H202.32Z" fill="#111111"/>
<path d="M214.145 1.56055H222.138V2.33052H218.678V11.077H217.64V2.33052H214.179L214.145 1.56055Z" fill="#111111"/>
<path d="M223.602 11.077V1.56055H224.631V5.66129H231.128V1.56055H232.166V11.077H231.128V6.43127H224.631V11.077H223.602Z" fill="#111111"/>
<path d="M234.613 11.077V1.56055H241.915V2.33052H235.651V5.79106H241.309V6.56104H235.651V10.3503H242.071V11.077H234.613Z" fill="#111111"/>
</svg>
