<svg width="150" height="150" viewBox="0 0 150 150" fill="none" xmlns="http://www.w3.org/2000/svg">
<path d="M61.1505 29.0946C59.7769 29.5268 58.2527 28.761 57.8259 27.4046C57.3991 26.0481 58.1992 24.5132 59.5728 24.0809C60.9464 23.6487 62.447 24.4597 62.8739 25.8161C63.3007 27.1725 62.5069 28.6677 61.1505 29.0946Z" fill="#111111"/>
<path d="M49.6792 36.6888L43.4576 41.6187L35.3753 31.4187L41.5969 26.4888L42.603 27.7585L37.764 31.5928L40.2904 34.7812L44.6497 31.327L45.6223 32.5544L41.263 36.0086L43.8229 39.2393L48.6619 35.405L49.6792 36.6888Z" fill="#111111"/>
<path d="M35.9519 50.9679L34.9373 52.4108L24.2917 44.9251L27.1183 40.9054C28.7231 38.6232 30.883 38.1176 32.8708 39.5153C34.3432 40.5507 34.8856 42.0324 34.3808 43.6578L40.3937 44.6512L39.2651 46.2561L33.6563 45.2827L31.7408 48.0067L35.9519 50.9679ZM26.6021 44.3933L30.4598 47.1059L32.2821 44.5145C33.2243 43.1746 33.0412 41.9016 31.8191 41.0422C30.5822 40.1725 29.3458 40.4914 28.414 41.8165L26.6021 44.3933Z" fill="#111111"/>
<path d="M32.8197 56.7633L30.2851 64.2858L17.9523 60.1304L20.4869 52.6079L22.0221 53.1252L20.0508 58.976L23.9058 60.2749L25.6818 55.004L27.1658 55.5041L25.3898 60.7749L29.2961 62.0911L31.2674 56.2403L32.8197 56.7633Z" fill="#111111"/>
<path d="M29.0801 77.2017L29.0334 78.9651L16.0239 78.6206L16.0706 76.8572L21.6667 77.0054L21.8372 70.5636L16.2412 70.4155L16.2879 68.6521L29.2973 68.9965L29.2506 70.7599L23.4746 70.607L23.3041 77.0487L29.0801 77.2017Z" fill="#111111"/>
<path d="M22.903 102.826L29.6054 99.7372L20.4769 97.5625L19.5954 95.6499L26.4373 97.2928L31.3843 90.1371L32.2432 92.0007L28.2839 97.73L32.0084 98.6296L34.722 97.3789L35.4604 98.9809L23.6414 104.428L22.903 102.826Z" fill="#111111"/>
<path d="M40.7499 105.452C43.2536 108.187 42.9536 111.805 39.9795 114.527C37.0186 117.237 33.3 117.2 30.7842 114.452C28.8032 112.288 28.5719 109.449 30.2088 107.292L31.4849 108.686C30.565 110.187 30.7926 111.955 32.0688 113.349C33.8432 115.288 36.4705 115.225 38.7143 113.172C40.9582 111.118 41.252 108.506 39.4776 106.568C38.1893 105.16 36.4116 104.738 34.9017 105.461L33.6378 104.08C35.9265 102.741 38.7689 103.287 40.7499 105.452Z" fill="#111111"/>
<path d="M41.8344 123.909L49.1302 113.132L50.5909 114.121L43.2952 124.898L41.8344 123.909Z" fill="#111111"/>
<path d="M55.7954 130.991L59.9253 120.392L54.5918 118.314L55.1864 116.787L62.1636 119.506L57.4391 131.632L55.7954 130.991Z" fill="#111111"/>
<path d="M70.4166 120.763C74.1116 121.073 76.3464 123.933 76.0095 127.951C75.674 131.951 72.9178 134.448 69.2048 134.136C66.2811 133.891 64.1849 131.963 63.9232 129.268L65.8066 129.426C66.1495 131.153 67.5166 132.297 69.4 132.455C72.0188 132.674 73.9062 130.846 74.1604 127.814C74.4146 124.783 72.8581 122.665 70.2393 122.446C68.338 122.286 66.7455 123.182 66.1274 124.738L64.2619 124.582C65.0346 122.046 67.4928 120.518 70.4166 120.763Z" fill="#111111"/>
<path d="M88.5718 121.47C89.9507 121.055 91.4652 121.84 91.8751 123.201C92.285 124.563 91.4657 126.088 90.0868 126.503C88.708 126.918 87.2176 126.088 86.8077 124.727C86.3978 123.365 87.2102 121.88 88.5718 121.47Z" fill="#111111"/>
<path d="M112 116.919C113.346 118.7 112.821 120.992 110.681 122.609C108.699 124.106 106.586 123.966 105.114 122.258L106.536 121.183C107.389 122.163 108.578 122.213 109.741 121.334C111.048 120.346 111.396 119.046 110.625 118.026C109.996 117.193 109.142 117.048 107.992 117.556L105.979 118.446C103.992 119.338 102.435 119.07 101.329 117.605C99.918 115.738 100.468 113.45 102.679 111.779C104.791 110.184 107.034 110.227 108.465 111.942L107.029 113.027C106.252 112.058 104.941 112.056 103.634 113.043C102.256 114.085 101.868 115.393 102.649 116.427C103.268 117.246 104.104 117.426 105.268 116.907L107.27 116.004C109.258 115.111 110.872 115.426 112 116.919Z" fill="#111111"/>
<path d="M118.899 101.172L125.649 106.152L124.601 107.572L117.939 102.655C116.259 101.415 114.648 101.658 113.419 103.324C112.2 104.975 112.468 106.582 114.134 107.811L120.796 112.728L119.738 114.162L112.989 109.181C110.585 107.407 110.226 104.771 112.043 102.309C113.871 99.8319 116.481 99.3869 118.899 101.172Z" fill="#111111"/>
<path d="M125.651 91.1067C121.753 90.4079 119.482 87.3674 120.133 83.7353C120.781 80.1209 123.96 78.0942 127.858 78.793C131.738 79.4886 134.03 82.5145 133.382 86.1289C132.731 89.761 129.548 91.8055 125.651 91.1067ZM125.978 89.2818C128.954 89.8154 131.232 88.4317 131.699 85.8272C132.166 83.2227 130.507 81.1515 127.531 80.6179C124.554 80.0843 122.262 81.4471 121.795 84.0516C121.328 86.6561 123.019 88.7513 125.978 89.2818Z" fill="#111111"/>
<path d="M131.489 63.0545L133.097 62.8587L134.256 72.3824L132.648 72.5782L132.176 68.7008L120.866 70.0776L120.653 68.3265L131.963 66.9497L131.489 63.0545Z" fill="#111111"/>
<path d="M123.505 41.2157L117.245 45.1232L126.574 46.1325L127.689 47.9191L120.695 47.1497L116.687 54.8709L115.601 53.1301L118.808 46.9482L115 46.5243L112.465 48.1063L111.531 46.6099L122.571 39.7192L123.505 41.2157Z" fill="#111111"/>
<path d="M112.129 29.1527L104.677 37.748L109.002 41.4977L107.929 42.7353L102.271 37.8301L110.796 27.9972L112.129 29.1527Z" fill="#111111"/>
<path d="M89.6594 31.3195L87.9798 30.578L97.5832 20.5919L99.378 21.3844L98.4855 35.2162L96.7894 34.4674L97.0277 31.0309L92.0219 28.8208L89.6594 31.3195ZM97.1407 23.4661L93.1338 27.6393L97.1681 29.4204L97.5358 23.6405C97.5553 23.3736 97.5966 23.0574 97.6436 22.8617C97.538 23.0118 97.332 23.2554 97.1407 23.4661Z" fill="#111111"/>
<path d="M76.6526 17.5833L76.8421 15.9744L86.3702 17.0966L86.1807 18.7055L82.3015 18.2486L80.9688 29.5644L79.2169 29.358L80.5497 18.0423L76.6526 17.5833Z" fill="#111111"/>
</svg>
