<svg width="52" height="52" viewBox="0 0 52 52" fill="none" xmlns="http://www.w3.org/2000/svg">
<path d="M15.0143 36.8437C15.515 36.2429 16.0157 35.6564 16.5306 35.0556C18.7479 32.4807 20.9652 29.8915 23.1825 27.3166C23.2254 27.2594 23.2683 27.2022 23.3255 27.145C20.5503 23.1109 17.7895 19.0769 15 15.0143C15.0858 15.0143 15.1287 15 15.186 15C17.1744 15 19.1771 15 21.1655 15C21.3085 15 21.38 15.0572 21.4516 15.1574C23.2111 17.718 24.9563 20.2642 26.7158 22.8248C26.7587 22.8821 26.8016 22.9536 26.8588 23.0251C27.2165 22.6103 27.5741 22.1954 27.9174 21.7949C29.8057 19.6062 31.6939 17.4175 33.5679 15.2146C33.6966 15.0572 33.8397 15 34.04 15C34.5549 15.0143 35.0699 15 35.6421 15C32.9814 18.1042 30.335 21.1655 27.7028 24.241C27.7458 24.3126 27.7887 24.3698 27.8316 24.427C30.6211 28.4896 33.4105 32.5665 36.2143 36.6292C36.2572 36.6864 36.2858 36.7579 36.3288 36.8294C34.2116 36.8294 32.0945 36.8294 29.9773 36.8294C29.9487 36.7865 29.9344 36.7436 29.9058 36.7007C28.0176 33.9827 26.1436 31.2505 24.2696 28.5182C24.241 28.4753 24.1981 28.4324 24.1552 28.3752C24.0837 28.4467 24.0265 28.5182 23.9835 28.5755C22.4672 30.335 20.9509 32.0945 19.4489 33.854C18.6049 34.841 17.7466 35.8424 16.9026 36.8294C16.2588 36.8437 15.6294 36.8437 15.0143 36.8437ZM17.5606 16.4162C17.6178 16.502 17.6464 16.5592 17.675 16.6022C22.0381 22.8391 26.3868 29.0761 30.7498 35.3274C30.8213 35.4419 30.9072 35.4848 31.0502 35.4848C31.8799 35.4848 32.7096 35.4848 33.5393 35.4848C33.5965 35.4848 33.6537 35.4705 33.7396 35.4705C33.668 35.3703 33.6251 35.2988 33.5822 35.2416C30.3922 30.664 27.1879 26.0864 23.9978 21.5231C22.8534 19.8923 21.709 18.2472 20.5646 16.6165C20.5074 16.5449 20.4073 16.4448 20.3358 16.4448C19.4202 16.4162 18.519 16.4162 17.5606 16.4162Z" fill="#111111"/>
</svg>
